<?xml version="1.0" encoding="UTF-8" standalone="no"?>
<!DOCTYPE svg PUBLIC "-//W3C//DTD SVG 1.1//EN" "http://www.w3.org/Graphics/SVG/1.1/DTD/svg11.dtd">
<svg width="841,92pt" height="595,2pt" viewBox="0 0 841.92 595.2" overflow="visible" version="1.1" xmlns="http://www.w3.org/2000/svg">
  <path d="M545.3976,58.16436 C564.0193,57.66931 586.4217,66.12034 601.8484,81.54706 C617.2751,96.97377 625.7261,119.3762 625.2311,137.9979 L625.2311,425.7698 C625.7261,444.3915 617.2751,466.7939 601.8484,482.2206 C586.4217,497.6474 564.0193,506.0984 545.3976,505.6033 L257.6256,505.6033 C239.004,506.0984 216.6015,497.6474 201.1748,482.2206 C185.7481,466.7939 177.2971,444.3915 177.7921,425.7698 L177.7921,137.9979 C177.2971,119.3762 185.7481,96.97377 201.1748,81.54706 C216.6015,66.12034 239.004,57.66931 257.6256,58.16436 z M424.0058,310.717 L371.2234,273.5502 C364.9533,282.6976 354.6839,290.6579 343.0529,294.5804 C331.4218,298.5029 318.4291,298.3877 307.8998,294.9059 C297.2861,291.6906 286.5964,284.3044 279.3448,274.4008 C272.0932,264.4972 268.2797,252.0761 268.4196,240.987 C268.2797,229.8978 272.0932,217.4768 279.3448,207.5731 C286.5964,197.6695 297.2861,190.2833 307.8998,187.0681 C318.4291,183.5862 331.4218,183.471 343.0529,187.3935 C354.6839,191.3161 364.9533,199.2764 371.2234,208.4238 L424.0058,171.2569 C410.5792,151.669 388.5887,134.623 363.6823,126.2234 C338.7759,117.8238 310.9536,118.0705 288.4064,125.5265 C265.6785,132.4115 242.7879,148.2281 227.2595,169.4355 C211.7311,190.6428 203.565,217.241 203.8645,240.987 C203.565,264.733 211.7311,291.3311 227.2595,312.5385 C242.7879,333.7458 265.6785,349.5625 288.4064,356.4475 C310.9536,363.9034 338.7759,364.1502 363.6823,355.7506 C388.5887,347.351 410.5792,330.305 424.0058,310.717 z M579.5179,312.7464 C582.2721,308.1562 584.1082,304.025 585.3934,300.3987 C586.6787,296.7724 587.4131,293.6511 587.9946,290.1319 C588.576,286.6127 589.0044,282.6958 589.0044,277.7689 C589.0044,272.8421 588.576,266.9054 587.5662,261.6114 C586.5563,256.3173 584.965,251.6659 582.6087,246.9532 C580.2524,242.2406 577.131,237.4668 573.6425,233.2132 C570.1539,228.9596 566.2982,225.2262 561.1571,221.707 C556.0161,218.1879 549.5897,214.8829 543.041,212.2512 C536.4923,209.6195 529.8212,207.661 522.9664,206.2227 C516.1118,204.7844 509.0734,203.8664 501.5148,203.438 C493.9563,203.0095 485.8775,203.0707 478.5331,203.4686 C471.1888,203.8664 464.5789,204.6008 457.8771,206.1309 C451.1754,207.661 444.3819,209.9867 437.8026,212.8326 C431.2233,215.6785 424.8582,219.0447 416.7182,224.6295 C408.5782,230.2142 398.6633,238.0176 388.149,251.3049 L440.9315,288.4718 C444.1372,284.716 447.1142,281.8071 450.04,279.328 C452.9658,276.849 455.8404,274.7998 459.0666,273.0272 C462.2928,271.2545 465.8706,269.7584 469.5135,268.5874 C473.1564,267.4165 476.8643,266.5708 480.7349,266.1317 C484.6055,265.6926 488.6387,265.6601 492.5743,265.839 C496.5099,266.0179 500.3479,266.4082 503.9908,267.2051 C507.6337,268.002 511.0814,269.2054 513.9112,270.7992 C516.7409,272.3929 518.9526,274.377 520.5302,276.54 C522.1077,278.7029 523.0509,281.0448 523.49,283.3704 C523.9291,285.696 523.8641,288.0053 523.3599,290.1357 C522.8558,292.2662 521.9125,294.2177 520.6765,295.8277 C519.4406,297.4378 517.9119,298.7063 515.8139,299.7308 C513.716,300.7554 511.0489,301.536 507.959,302.1865 C504.869,302.837 501.3562,303.3575 497.6727,303.6664 C493.9892,303.9754 490.1349,304.073 484.0093,304.1465 L484.0093,336.3383 C500.9883,336.3383 506.7181,337.1972 511.4396,338.1601 C516.1611,339.123 519.8743,340.19 522.7552,341.3531 C525.6361,342.5161 527.6848,343.7752 529.2426,345.173 C530.8004,346.5707 531.8674,348.1072 532.6357,349.8891 C533.4039,351.6711 533.8734,353.6984 534.0334,355.7577 C534.1935,357.817 534.0441,359.9083 533.5746,361.925 C533.1052,363.9416 532.3156,365.8836 531.4091,367.4326 C530.5026,368.9816 529.4793,370.1378 527.8743,371.4271 C526.2692,372.7165 524.0825,374.1392 521.0791,375.417 C518.0757,376.6948 514.2556,377.8276 510.1719,378.5258 C506.0883,379.224 501.7412,379.4874 496.9858,379.606 C492.2304,379.7245 487.0666,379.6982 482.3507,379.4347 C477.6348,379.1713 473.3668,378.6707 468.9143,377.5642 C464.4619,376.4576 459.825,374.7451 456.2815,373.2961 C452.7379,371.8471 450.2878,370.6616 446.9089,368.488 L440.9315,364.2601 L386.7733,402.3956 C389.1219,404.9019 392.4616,408.2267 395.7625,411.2574 C400.7919,415.8752 405.731,419.8105 410.3087,423.1233 C414.8864,426.4361 419.1027,429.1265 424.3429,431.6563 C429.5832,434.186 435.8474,436.5552 442.2321,438.4626 C448.6168,440.3699 455.1219,441.8156 462.1692,442.7993 C469.2164,443.7831 476.8058,444.3052 484.0538,444.526 C491.3018,444.7469 498.2085,444.6666 505.0148,444.2249 C511.8211,443.7831 518.527,442.98 524.47,442.0364 C530.413,441.0927 535.593,440.0085 540.9537,438.3421 C546.3145,436.6757 551.8559,434.427 556.8954,431.8369 C561.9349,429.2469 566.4724,426.3156 570.4077,423.324 C574.3428,420.3325 577.6757,417.2807 580.7677,413.7671 C583.8596,410.2535 586.7106,406.2781 588.9995,402.4835 C591.2883,398.6888 593.015,395.0748 594.4606,391.0192 C595.9062,386.9635 597.0707,382.4661 597.8738,377.8282 C598.6769,373.1902 599.1187,368.4117 599.1588,363.7738 C599.1989,359.1359 598.8375,354.6385 598.2955,350.5427 C597.7534,346.4468 597.0306,342.7526 595.9062,339.0382 C594.7819,335.3238 593.256,331.5894 591.1679,327.6441 C589.0798,323.6989 586.4296,319.5428 579.5179,312.7464 z" stroke="Black" stroke-width="0" fill="#242424" fill-opacity="1" />
  <path d="M579.5179,312.7464 C586.4296,319.5428 589.0798,323.6989 591.1679,327.6441 C593.256,331.5894 594.7819,335.3238 595.9062,339.0382 C597.0306,342.7526 597.7534,346.4468 598.2955,350.5427 C598.8375,354.6385 599.1989,359.1359 599.1588,363.7738 C599.1187,368.4117 598.6769,373.1902 597.8738,377.8282 C597.0707,382.4661 595.9062,386.9635 594.4606,391.0192 C593.015,395.0748 591.2883,398.6888 588.9995,402.4835 C586.7106,406.2781 583.8596,410.2535 580.7677,413.7671 C577.6757,417.2807 574.3428,420.3325 570.4077,423.324 C566.4724,426.3156 561.9349,429.2469 556.8954,431.8369 C551.8559,434.427 546.3145,436.6757 540.9537,438.3421 C535.593,440.0085 530.413,441.0927 524.47,442.0364 C518.527,442.98 511.8211,443.7831 505.0148,444.2249 C498.2085,444.6666 491.3018,444.7469 484.0538,444.526 C476.8058,444.3052 469.2164,443.7831 462.1692,442.7993 C455.1219,441.8156 448.6168,440.3699 442.2321,438.4626 C435.8474,436.5552 429.5832,434.186 424.3429,431.6563 C419.1027,429.1265 414.8864,426.4361 410.3087,423.1233 C405.731,419.8105 400.7919,415.8752 395.7625,411.2574 C392.4616,408.2267 389.1219,404.9019 386.7733,402.3956 L440.9315,364.2601 L446.9089,368.488 C450.2878,370.6616 452.7379,371.8471 456.2815,373.2961 C459.825,374.7451 464.4619,376.4576 468.9143,377.5642 C473.3668,378.6707 477.6348,379.1713 482.3507,379.4347 C487.0666,379.6982 492.2304,379.7245 496.9858,379.606 C501.7412,379.4874 506.0883,379.224 510.1719,378.5258 C514.2556,377.8276 518.0757,376.6948 521.0791,375.417 C524.0825,374.1392 526.2692,372.7165 527.8743,371.4271 C529.4793,370.1378 530.5026,368.9816 531.4091,367.4326 C532.3156,365.8836 533.1052,363.9416 533.5746,361.925 C534.0441,359.9083 534.1935,357.817 534.0334,355.7577 C533.8734,353.6984 533.4039,351.6711 532.6357,349.8891 C531.8674,348.1072 530.8004,346.5707 529.2426,345.173 C527.6848,343.7752 525.6361,342.5161 522.7552,341.3531 C519.8743,340.19 516.1611,339.123 511.4396,338.1601 C506.7181,337.1972 500.9883,336.3383 484.0093,336.3383 L484.0093,304.1465 C490.1349,304.073 493.9892,303.9754 497.6727,303.6664 C501.3562,303.3575 504.869,302.837 507.959,302.1865 C511.0489,301.536 513.716,300.7554 515.8139,299.7308 C517.9119,298.7063 519.4406,297.4378 520.6765,295.8277 C521.9125,294.2177 522.8558,292.2662 523.3599,290.1357 C523.8641,288.0053 523.9291,285.696 523.49,283.3704 C523.0509,281.0448 522.1077,278.7029 520.5302,276.54 C518.9526,274.377 516.7409,272.3929 513.9112,270.7992 C511.0814,269.2054 507.6337,268.002 503.9908,267.2051 C500.3479,266.4082 496.5099,266.0179 492.5743,265.839 C488.6387,265.6601 484.6055,265.6926 480.7349,266.1317 C476.8643,266.5708 473.1564,267.4165 469.5135,268.5874 C465.8706,269.7584 462.2928,271.2545 459.0666,273.0272 C455.8404,274.7998 452.9658,276.849 450.04,279.328 C447.1142,281.8071 444.1372,284.716 440.9315,288.4718 L388.149,251.3049 C398.6633,238.0176 408.5782,230.2142 416.7182,224.6295 C424.8582,219.0447 431.2233,215.6785 437.8026,212.8326 C444.3819,209.9867 451.1754,207.661 457.8771,206.1309 C464.5789,204.6008 471.1888,203.8664 478.5331,203.4686 C485.8775,203.0707 493.9563,203.0095 501.5148,203.438 C509.0734,203.8664 516.1118,204.7844 522.9664,206.2227 C529.8212,207.661 536.4923,209.6195 543.041,212.2512 C549.5897,214.8829 556.0161,218.1879 561.1571,221.707 C566.2982,225.2262 570.1539,228.9596 573.6425,233.2132 C577.131,237.4668 580.2524,242.2406 582.6087,246.9532 C584.965,251.6659 586.5563,256.3173 587.5662,261.6114 C588.576,266.9054 589.0044,272.8421 589.0044,277.7689 C589.0044,282.6958 588.576,286.6127 587.9946,290.1319 C587.4131,293.6511 586.6787,296.7724 585.3934,300.3987 C584.1082,304.025 582.2721,308.1562 579.5179,312.7464 z" stroke="Black" stroke-width="0" fill="#FFFFFF" fill-opacity="1" />
  <path d="M424.0058,310.717 C410.5792,330.305 388.5887,347.351 363.6823,355.7506 C338.7759,364.1502 310.9536,363.9034 288.4064,356.4475 C265.6785,349.5625 242.7879,333.7458 227.2595,312.5385 C211.7311,291.3311 203.565,264.733 203.8645,240.987 C203.565,217.241 211.7311,190.6428 227.2595,169.4355 C242.7879,148.2281 265.6785,132.4115 288.4064,125.5265 C310.9536,118.0705 338.7759,117.8238 363.6823,126.2234 C388.5887,134.623 410.5792,151.669 424.0058,171.2569 L371.2234,208.4238 C364.9533,199.2764 354.6839,191.3161 343.0529,187.3935 C331.4218,183.471 318.4291,183.5862 307.8998,187.0681 C297.2861,190.2833 286.5964,197.6695 279.3448,207.5731 C272.0932,217.4768 268.2797,229.8978 268.4196,240.987 C268.2797,252.0761 272.0932,264.4972 279.3448,274.4008 C286.5964,284.3044 297.2861,291.6906 307.8998,294.9059 C318.4291,298.3877 331.4218,298.5029 343.0529,294.5804 C354.6839,290.6579 364.9533,282.6976 371.2234,273.5502 z" stroke="Black" stroke-width="0" fill="#FFFFFF" fill-opacity="1" />
  <path d="M545.3976,58.16436 L257.6256,58.16436 C239.004,57.66931 216.6015,66.12034 201.1748,81.54706 C185.7481,96.97377 177.2971,119.3762 177.7921,137.9979 L177.7921,425.7698 C177.2971,444.3915 185.7481,466.7939 201.1748,482.2206 C216.6015,497.6474 239.004,506.0984 257.6256,505.6033 L545.3976,505.6033 C564.0193,506.0984 586.4217,497.6474 601.8484,482.2206 C617.2751,466.7939 625.7261,444.3915 625.2311,425.7698 L625.2311,137.9979 C625.7261,119.3762 617.2751,96.97377 601.8484,81.54706 C586.4217,66.12034 564.0193,57.66931 545.3976,58.16436 z" stroke="#242424" stroke-width="0.24" fill="none" />
  <path d="M579.5179,312.7464 C582.2721,308.1562 584.1082,304.025 585.3934,300.3987 C586.6787,296.7724 587.4131,293.6511 587.9946,290.1319 C588.576,286.6127 589.0044,282.6958 589.0044,277.7689 C589.0044,272.8421 588.576,266.9054 587.5662,261.6114 C586.5563,256.3173 584.965,251.6659 582.6087,246.9532 C580.2524,242.2406 577.131,237.4668 573.6425,233.2132 C570.1539,228.9596 566.2982,225.2262 561.1571,221.707 C556.0161,218.1879 549.5897,214.8829 543.041,212.2512 C536.4923,209.6195 529.8212,207.661 522.9664,206.2227 C516.1118,204.7844 509.0734,203.8664 501.5148,203.438 C493.9563,203.0095 485.8775,203.0707 478.5331,203.4686 C471.1888,203.8664 464.5789,204.6008 457.8771,206.1309 C451.1754,207.661 444.3819,209.9867 437.8026,212.8326 C431.2233,215.6785 424.8582,219.0447 416.7182,224.6295 C408.5782,230.2142 398.6633,238.0176 388.149,251.3049 L440.9315,288.4718 C444.1372,284.716 447.1142,281.8071 450.04,279.328 C452.9658,276.849 455.8404,274.7998 459.0666,273.0272 C462.2928,271.2545 465.8706,269.7584 469.5135,268.5874 C473.1564,267.4165 476.8643,266.5708 480.7349,266.1317 C484.6055,265.6926 488.6387,265.6601 492.5743,265.839 C496.5099,266.0179 500.3479,266.4082 503.9908,267.2051 C507.6337,268.002 511.0814,269.2054 513.9112,270.7992 C516.7409,272.3929 518.9526,274.377 520.5302,276.54 C522.1077,278.7029 523.0509,281.0448 523.49,283.3704 C523.9291,285.696 523.8641,288.0053 523.3599,290.1357 C522.8558,292.2662 521.9125,294.2177 520.6765,295.8277 C519.4406,297.4378 517.9119,298.7063 515.8139,299.7308 C513.716,300.7554 511.0489,301.536 507.959,302.1865 C504.869,302.837 501.3562,303.3575 497.6727,303.6664 C493.9892,303.9754 490.1349,304.073 484.0093,304.1465 L484.0093,336.3383 C500.9883,336.3383 506.7181,337.1972 511.4396,338.1601 C516.1611,339.123 519.8743,340.19 522.7552,341.3531 C525.6361,342.5161 527.6848,343.7752 529.2426,345.173 C530.8004,346.5707 531.8674,348.1072 532.6357,349.8891 C533.4039,351.6711 533.8734,353.6984 534.0334,355.7577 C534.1935,357.817 534.0441,359.9083 533.5746,361.925 C533.1052,363.9416 532.3156,365.8836 531.4091,367.4326 C530.5026,368.9816 529.4793,370.1378 527.8743,371.4271 C526.2692,372.7165 524.0825,374.1392 521.0791,375.417 C518.0757,376.6948 514.2556,377.8276 510.1719,378.5258 C506.0883,379.224 501.7412,379.4874 496.9858,379.606 C492.2304,379.7245 487.0666,379.6982 482.3507,379.4347 C477.6348,379.1713 473.3668,378.6707 468.9143,377.5642 C464.4619,376.4576 459.825,374.7451 456.2815,373.2961 C452.7379,371.8471 450.2878,370.6616 446.9089,368.488 L440.9315,364.2601 L386.7733,402.3956 C389.1219,404.9019 392.4616,408.2267 395.7625,411.2574 C400.7919,415.8752 405.731,419.8105 410.3087,423.1233 C414.8864,426.4361 419.1027,429.1265 424.3429,431.6563 C429.5832,434.186 435.8474,436.5552 442.2321,438.4626 C448.6168,440.3699 455.1219,441.8156 462.1692,442.7993 C469.2164,443.7831 476.8058,444.3052 484.0538,444.526 C491.3018,444.7469 498.2085,444.6666 505.0148,444.2249 C511.8211,443.7831 518.527,442.98 524.47,442.0364 C530.413,441.0927 535.593,440.0085 540.9537,438.3421 C546.3145,436.6757 551.8559,434.427 556.8954,431.8369 C561.9349,429.2469 566.4724,426.3156 570.4077,423.324 C574.3428,420.3325 577.6757,417.2807 580.7677,413.7671 C583.8596,410.2535 586.7106,406.2781 588.9995,402.4835 C591.2883,398.6888 593.015,395.0748 594.4606,391.0192 C595.9062,386.9635 597.0707,382.4661 597.8738,377.8282 C598.6769,373.1902 599.1187,368.4117 599.1588,363.7738 C599.1989,359.1359 598.8375,354.6385 598.2955,350.5427 C597.7534,346.4468 597.0306,342.7526 595.9062,339.0382 C594.7819,335.3238 593.256,331.5894 591.1679,327.6441 C589.0798,323.6989 586.4296,319.5428 579.5179,312.7464 z" stroke="#FFFFFF" stroke-width="0.24" fill="none" />
  <path d="M424.0058,310.717 L371.2234,273.5502 C364.9533,282.6976 354.6839,290.6579 343.0529,294.5804 C331.4218,298.5029 318.4291,298.3877 307.8998,294.9059 C297.2861,291.6906 286.5964,284.3044 279.3448,274.4008 C272.0932,264.4972 268.2797,252.0761 268.4196,240.987 C268.2797,229.8978 272.0932,217.4768 279.3448,207.5731 C286.5964,197.6695 297.2861,190.2833 307.8998,187.0681 C318.4291,183.5862 331.4218,183.471 343.0529,187.3935 C354.6839,191.3161 364.9533,199.2764 371.2234,208.4238 L424.0058,171.2569 C410.5792,151.669 388.5887,134.623 363.6823,126.2234 C338.7759,117.8238 310.9536,118.0705 288.4064,125.5265 C265.6785,132.4115 242.7879,148.2281 227.2595,169.4355 C211.7311,190.6428 203.565,217.241 203.8645,240.987 C203.565,264.733 211.7311,291.3311 227.2595,312.5385 C242.7879,333.7458 265.6785,349.5625 288.4064,356.4475 C310.9536,363.9034 338.7759,364.1502 363.6823,355.7506 C388.5887,347.351 410.5792,330.305 424.0058,310.717 z" stroke="#FFFFFF" stroke-width="0.24" fill="none" />
</svg>