<?xml version="1.0" encoding="UTF-8" standalone="no"?>
<!DOCTYPE svg PUBLIC "-//W3C//DTD SVG 1.1//EN" "http://www.w3.org/Graphics/SVG/1.1/DTD/svg11.dtd">
<svg width="792pt" height="612pt" viewBox="0 0 792 612" overflow="visible" version="1.1" xmlns="http://www.w3.org/2000/svg">
  <path d="M570.228,387.6196 C568.3899,388.027 566.033,386.1663 566.0027,384.2839 C565.5953,382.4458 567.456,380.0889 569.3384,380.0586 C571.1765,379.6512 573.5334,381.5119 573.5637,383.3943 C573.9711,385.2324 572.1104,387.5893 570.228,387.6196 z" stroke="Black" stroke-width="0" fill="#FFFFFF" fill-opacity="1" />
  <path d="M437.6815,340.2351 C435.1597,340.4908 432.3009,337.632 432.5566,335.1103 C432.3009,332.5885 435.1597,329.7298 437.6815,329.9854 C440.2032,329.7298 443.062,332.5885 442.8063,335.1103 C443.062,337.632 440.2032,340.4908 437.6815,340.2351 z" stroke="Black" stroke-width="0" fill="#FFFFFF" fill-opacity="1" />
  <path d="M515.6189,402.323 L515.6189,361.5366 L543.2994,361.5366 L543.2994,402.323 z" stroke="Black" stroke-width="0" fill="#FFFFFF" fill-opacity="1" />
  <path d="M215.2507,379.9551 L215.2507,301.5482 L338.4615,301.5482 L338.4615,379.9551 z" stroke="Black" stroke-width="0" fill="#FFFFFF" fill-opacity="1" />
  <path d="M398.8904,568.9928 C367.5893,569.0328 333.6575,563.3202 300.9142,550.3045 C268.1708,537.2888 236.6158,516.97 210.6789,491.0331 C184.742,465.0962 164.4232,433.5412 151.4075,400.7979 C138.3918,368.0545 132.6792,334.1227 132.7192,302.8217 C132.6792,271.5206 138.3918,237.5888 151.4075,204.8455 C164.4232,172.1021 184.742,140.5471 210.6789,114.6102 C236.6158,88.67332 268.1708,68.35452 300.9142,55.33882 C333.6575,42.32312 367.5893,36.61055 398.8904,36.65049 C430.1914,36.61055 464.1232,42.32312 496.8665,55.33882 C529.6099,68.35452 561.1649,88.67332 587.1018,114.6102 C613.0387,140.5471 633.3575,172.1021 646.3732,204.8455 C659.3889,237.5888 665.1014,271.5206 665.0615,302.8217 C665.1014,334.1227 659.3889,368.0545 646.3732,400.7979 C633.3575,433.5412 613.0387,465.0962 587.1018,491.0331 C561.1649,516.97 529.6099,537.2888 496.8665,550.3045 C464.1232,563.3202 430.1914,569.0328 398.8904,568.9928 z M214.0487,294.1557 C210.1778,293.7633 205.7897,298.1514 206.1821,302.0222 L206.1821,377.7815 C205.8266,381.5015 209.8741,385.8202 213.698,385.6441 L205.6797,385.648 L169.5188,403.395 C167.6637,404.1606 166.4212,406.7781 167.0006,408.6995 C167.3269,410.6796 169.5956,412.482 171.5983,412.352 L382.114,412.352 C384.1166,412.482 386.3853,410.6796 386.7116,408.6995 C387.2911,406.7781 386.0486,404.1606 384.1935,403.395 L348.0326,385.648 L340.0143,385.6441 C343.838,385.8203 347.8857,381.5016 347.5302,377.7815 L347.5302,353.67 L410.152,353.67 L408.6714,370.9464 C408.5877,372.5759 407.3574,374.2829 405.838,374.8774 L382.4934,384.9457 C380.5679,385.6245 379.192,388.2673 379.7402,390.234 C380.0157,392.257 382.3257,394.1389 384.3626,393.9996 L491.0003,393.9996 C493.0372,394.1389 495.3472,392.257 495.6227,390.234 C496.1709,388.2673 494.795,385.6245 492.8695,384.9457 L469.525,374.8774 C468.0055,374.2829 466.7751,372.5759 466.6915,370.9464 L465.2109,353.67 L512.2619,353.6724 C509.9676,353.5667 507.539,356.1579 507.7524,358.3899 L507.7524,412.6527 C507.5169,414.9752 510.1498,417.6081 512.4723,417.3726 L546.446,417.3726 C548.7686,417.6081 551.4014,414.9752 551.166,412.6527 L551.166,394.2058 L604.1066,394.2058 C607.9774,394.5982 612.3655,390.2102 611.9731,386.3393 L611.9731,287.106 C612.3655,283.2351 607.9774,278.847 604.1066,279.2394 L581.2987,279.2394 L581.2987,176.1568 C581.6911,172.2859 577.303,167.8978 573.4322,168.2903 L303.7667,168.2903 C299.8958,167.8978 295.5077,172.2859 295.9001,176.1568 L295.9001,294.1557 z" stroke="Black" stroke-width="0" fill="#FFFFFF" fill-opacity="1" />
  <path d="M339.6636,294.1557 L307.3355,294.1557 L307.3355,178.5184 L569.903,178.5184 L569.903,279.2394 L535.6993,279.2394 C531.8284,278.847 527.4403,283.2351 527.8328,287.106 L527.8328,314.7209 L347.5302,314.7209 L347.5302,302.0222 C347.9226,298.1514 343.5345,293.7633 339.6636,294.1557 z" stroke="Black" stroke-width="0" fill="#FFFFFF" fill-opacity="1" />
  <path d="M525.4081,411.5015 L525.4081,408.4734 L533.5102,408.4734 L533.5102,411.5015 z" stroke="Black" stroke-width="0" fill="#FFFFFF" fill-opacity="1" />
  <path d="M546.446,353.67 L538.3839,353.67 L538.3839,290.8445 L601.6375,290.8445 L601.6375,372.4705 L551.166,372.4705 L551.166,358.3899 C551.4014,356.0674 548.7686,353.4346 546.446,353.67 z" stroke="Black" stroke-width="0" fill="#FFFFFF" fill-opacity="1" />
  <text x="3117.99104303871" y="-734.876817967482" font-family="Arial Unicode MS" font-size="437.789306640625">VOLVER</text>
  <text x="-1055.2496912122" y="-1827.36291462153" font-family="Arial Rounded MT Bold" font-size="107.69149017334">INICIAR SESIÓN</text>
  <path d="M398.8904,568.9928 C430.1914,569.0328 464.1232,563.3202 496.8665,550.3045 C529.6099,537.2888 561.1649,516.97 587.1018,491.0331 C613.0387,465.0962 633.3575,433.5412 646.3732,400.7979 C659.3889,368.0545 665.1014,334.1227 665.0615,302.8217 C665.1014,271.5206 659.3889,237.5888 646.3732,204.8455 C633.3575,172.1021 613.0387,140.5471 587.1018,114.6102 C561.1649,88.67332 529.6099,68.35452 496.8665,55.33882 C464.1232,42.32312 430.1914,36.61055 398.8904,36.65049 C367.5893,36.61055 333.6575,42.32312 300.9142,55.33882 C268.1708,68.35452 236.6158,88.67332 210.6789,114.6102 C184.742,140.5471 164.4232,172.1021 151.4075,204.8455 C138.3918,237.5888 132.6792,271.5206 132.7192,302.8217 C132.6792,334.1227 138.3918,368.0545 151.4075,400.7979 C164.4232,433.5412 184.742,465.0962 210.6789,491.0331 C236.6158,516.97 268.1708,537.2888 300.9142,550.3045 C333.6575,563.3202 367.5893,569.0328 398.8904,568.9928 z" stroke="#FFFFFF" stroke-width="0.24" fill="none" />
  <path d="M570.228,387.6196 C572.1104,387.5893 573.9711,385.2324 573.5637,383.3943 C573.5334,381.5119 571.1765,379.6512 569.3384,380.0586 C567.456,380.0889 565.5953,382.4458 566.0027,384.2839 C566.033,386.1663 568.3899,388.027 570.228,387.6196 z" stroke="#FFFFFF" stroke-width="0.24" fill="none" />
  <path d="M437.6815,340.2351 C440.2032,340.4908 443.062,337.632 442.8063,335.1103 C443.062,332.5885 440.2032,329.7298 437.6815,329.9854 C435.1597,329.7298 432.3009,332.5885 432.5566,335.1103 C432.3009,337.632 435.1597,340.4908 437.6815,340.2351 z" stroke="#FFFFFF" stroke-width="0.24" fill="none" />
  <path d="M546.446,353.67 C548.7686,353.4346 551.4014,356.0674 551.166,358.3899 L551.166,372.4705 L601.6375,372.4705 L601.6375,290.8445 L538.3839,290.8445 L538.3839,353.67 z" stroke="#FFFFFF" stroke-width="0.24" fill="none" />
  <path d="M214.0487,294.1557 C210.1778,293.7633 205.7897,298.1514 206.1821,302.0222 L206.1821,377.7815 C205.7897,381.6523 210.1778,386.0404 214.0487,385.648 L205.6797,385.648 L169.5188,403.395 C167.6637,404.1606 166.4212,406.7781 167.0006,408.6995 C167.3269,410.6796 169.5956,412.482 171.5983,412.352 L382.114,412.352 C384.1166,412.482 386.3853,410.6796 386.7116,408.6995 C387.2911,406.7781 386.0486,404.1606 384.1935,403.395 L348.0326,385.648 L339.6636,385.648 C343.5345,386.0404 347.9226,381.6523 347.5302,377.7815 L347.5302,353.67 L410.152,353.67 L408.6714,370.9464 C408.5877,372.5759 407.3574,374.2829 405.838,374.8774 L382.4934,384.9457 C380.5679,385.6245 379.192,388.2673 379.7402,390.234 C380.0157,392.257 382.3257,394.1389 384.3626,393.9996 L491.0003,393.9996 C493.0372,394.1389 495.3472,392.257 495.6227,390.234 C496.1709,388.2673 494.795,385.6245 492.8695,384.9457 L469.525,374.8774 C468.0055,374.2829 466.7751,372.5759 466.6915,370.9464 L465.2109,353.67 L512.4723,353.67 C510.1498,353.4346 507.5169,356.0674 507.7524,358.3899 L507.7524,412.6527 C507.5169,414.9752 510.1498,417.6081 512.4723,417.3726 L546.446,417.3726 C548.7686,417.6081 551.4014,414.9752 551.166,412.6527 L551.166,394.2058 L604.1066,394.2058 C607.9774,394.5982 612.3655,390.2102 611.9731,386.3393 L611.9731,287.106 C612.3655,283.2351 607.9774,278.847 604.1066,279.2394 L581.2987,279.2394 L581.2987,176.1568 C581.6911,172.2859 577.303,167.8978 573.4322,168.2903 L303.7667,168.2903 C299.8958,167.8978 295.5077,172.2859 295.9001,176.1568 L295.9001,294.1557 z" stroke="#FFFFFF" stroke-width="0.24" fill="none" />
  <path d="M339.6636,294.1557 C343.5345,293.7633 347.9226,298.1514 347.5302,302.0222 L347.5302,314.7209 L527.8328,314.7209 L527.8328,287.106 C527.4403,283.2351 531.8284,278.847 535.6993,279.2394 L569.903,279.2394 L569.903,178.5184 L307.3355,178.5184 L307.3355,294.1557 z" stroke="#FFFFFF" stroke-width="0.24" fill="none" />
  <path d="M215.2508,379.9552 L338.4616,379.9552 L338.4616,301.5483 L215.2508,301.5483 z" stroke="#FFFFFF" stroke-width="0.24" fill="none" />
  <path d="M515.619,402.323 L543.2994,402.323 L543.2994,361.5366 L515.619,361.5366 z" stroke="#FFFFFF" stroke-width="0.24" fill="none" />
  <path d="M525.4081,411.5015 L533.5103,411.5015 L533.5103,408.4734 L525.4081,408.4734 z" stroke="#FFFFFF" stroke-width="0.24" fill="none" />
</svg>