<?xml version="1.0" encoding="UTF-8" standalone="no"?>
<!DOCTYPE svg PUBLIC "-//W3C//DTD SVG 1.1//EN" "http://www.w3.org/Graphics/SVG/1.1/DTD/svg11.dtd">
<svg width="792pt" height="612pt" viewBox="0 0 792 612" overflow="visible" version="1.1" xmlns="http://www.w3.org/2000/svg">
  <path d="M392.1907,569.2115 C361.397,570.8716 327.7169,567.0083 294.828,555.8982 C261.9391,544.7881 229.8412,526.4312 202.9799,502.2559 C176.1185,478.0807 154.4936,448.0871 139.9924,416.5462 C125.4913,385.0052 118.1138,351.9168 116.5323,321.1189 C114.8722,290.3251 118.7355,256.6451 129.8456,223.7562 C140.9557,190.8672 159.3126,158.7694 183.4879,131.908 C207.6631,105.0466 237.6567,83.42175 269.1976,68.92059 C300.7386,54.41943 333.827,47.04199 364.6249,45.46045 C395.4187,43.80032 429.0987,47.66364 461.9876,58.77375 C494.8766,69.88387 526.9744,88.24078 553.8358,112.416 C580.6971,136.5912 602.322,166.5848 616.8232,198.1258 C631.3243,229.6667 638.7018,262.7551 640.2833,293.553 C641.9435,324.3468 638.0801,358.0268 626.97,390.9158 C615.8599,423.8047 597.503,455.9026 573.3278,482.7639 C549.1525,509.6253 519.159,531.2502 487.618,545.7513 C456.0771,560.2525 422.9887,567.6299 392.1907,569.2115 z M389.8961,525.6139 C415.5667,524.2957 443.1465,518.1464 469.4365,506.0594 C495.7264,493.9724 520.7266,475.9477 540.8771,453.5583 C561.0276,431.1689 576.3284,404.4147 585.5889,377.0012 C594.8494,349.5877 598.0695,321.5148 596.6857,295.8477 C595.3675,270.177 589.2183,242.5973 577.1313,216.3073 C565.0443,190.0174 547.0196,165.0172 524.6301,144.8667 C502.2407,124.7162 475.4866,109.4154 448.0731,100.1549 C420.6596,90.89445 392.5867,87.67432 366.9195,89.05806 C341.2489,90.3763 313.6691,96.52553 287.3792,108.6125 C261.0892,120.6995 236.0891,138.7242 215.9386,161.1136 C195.7881,183.5031 180.4873,210.2572 171.2268,237.6707 C161.9663,265.0842 158.7462,293.1571 160.1299,318.8243 C161.4482,344.4949 167.5974,372.0746 179.6844,398.3646 C191.7713,424.6546 209.7961,449.6547 232.1855,469.8052 C254.5749,489.9557 281.3291,505.2565 308.7426,514.517 C336.1561,523.7775 364.229,526.9976 389.8961,525.6139 z" stroke="Black" stroke-width="0" fill="#000000" fill-opacity="1" />
  <path d="M337.6131,271.1346 L332.3117,271.5674 L332.3117,264.3996 L421.4301,251.7367 L374.8727,411.6172 C372.8611,418.5251 372.5496,423.2514 372.4573,426.7996 C372.365,430.3478 372.492,432.718 373.0211,434.4745 C373.5501,436.2309 374.4813,437.3737 375.497,438.1355 C376.5128,438.8974 377.6133,439.2783 378.9677,439.2783 C380.3221,439.2783 381.9304,438.8974 383.5599,437.9662 C385.1894,437.0351 386.84,435.5537 388.7658,433.4375 C390.6916,431.3213 392.8925,428.5702 396.1514,424.5917 C399.4104,420.6132 403.7275,415.4073 411.219,404.7415 L418.9644,409.4395 C415.4091,415.0263 411.0285,421.0576 407.0159,426.4603 C403.0032,431.8631 399.3585,436.6373 395.8839,440.7184 C392.4093,444.7994 389.1048,448.1873 385.6336,451.2974 C382.1625,454.4075 378.5247,457.24 374.7342,459.9336 C370.9437,462.6272 367.0005,465.182 363.1684,466.7509 C359.3362,468.3199 355.6152,468.903 351.783,469.1113 C347.9509,469.3196 344.0077,469.153 340.5365,468.6531 C337.0654,468.1533 334.0663,467.3202 331.0395,465.8623 C328.0126,464.4044 324.958,462.3217 322.4528,460.3779 C319.9476,458.4341 317.9918,456.6291 316.6311,453.6855 C315.2704,450.742 314.5049,446.6599 314.205,441.8315 C313.9051,437.0029 314.0709,431.4279 316.036,424.6799 L354.664,292.0294 C356.2144,287.1595 354.9582,280.9793 351.6295,277.1012 C348.4977,273.0624 342.695,270.5923 337.6131,271.1346 z" stroke="Black" stroke-width="0" fill="#000000" fill-opacity="1" />
  <path d="M409.484,209.6862 C402.1276,209.8818 393.2776,206.5432 387.1833,200.449 C381.0891,194.3547 377.7505,185.5047 377.9461,178.1483 C377.7505,170.7919 381.0891,161.9419 387.1833,155.8477 C393.2776,149.7534 402.1276,146.4149 409.484,146.6104 C416.8404,146.4149 425.6904,149.7534 431.7846,155.8477 C437.8789,161.9419 441.2174,170.7919 441.0219,178.1483 C441.2174,185.5047 437.8789,194.3547 431.7846,200.449 C425.6904,206.5432 416.8404,209.8818 409.484,209.6862 z" stroke="Black" stroke-width="0" fill="#000000" fill-opacity="1" />
  <text x="-3190.00019268545" y="-27.0860729312251" font-family="Arial Rounded MT Bold" font-size="149.417617797852">INICIAR SESIÓN</text>
  <path d="M409.484,209.6862 C416.8404,209.8818 425.6904,206.5432 431.7846,200.449 C437.8789,194.3547 441.2174,185.5047 441.0219,178.1483 C441.2174,170.7919 437.8789,161.9419 431.7846,155.8477 C425.6904,149.7534 416.8404,146.4149 409.484,146.6104 C402.1276,146.4149 393.2776,149.7534 387.1833,155.8477 C381.0891,161.9419 377.7505,170.7919 377.9461,178.1483 C377.7505,185.5047 381.0891,194.3547 387.1833,200.449 C393.2776,206.5432 402.1276,209.8818 409.484,209.6862 z" stroke="#000000" stroke-width="0.24" fill="none" />
  <path d="M389.8961,525.6139 C415.5667,524.2957 443.1465,518.1464 469.4365,506.0594 C495.7264,493.9724 520.7266,475.9477 540.8771,453.5583 C561.0276,431.1689 576.3284,404.4147 585.5889,377.0012 C594.8494,349.5877 598.0695,321.5148 596.6857,295.8477 C595.3675,270.177 589.2183,242.5973 577.1313,216.3073 C565.0443,190.0174 547.0196,165.0172 524.6301,144.8667 C502.2407,124.7162 475.4866,109.4154 448.0731,100.1549 C420.6596,90.89445 392.5867,87.67432 366.9195,89.05806 C341.2489,90.3763 313.6691,96.52553 287.3792,108.6125 C261.0892,120.6995 236.0891,138.7242 215.9386,161.1136 C195.7881,183.5031 180.4873,210.2572 171.2268,237.6707 C161.9663,265.0842 158.7462,293.1571 160.1299,318.8243 C161.4482,344.4949 167.5974,372.0746 179.6844,398.3646 C191.7713,424.6546 209.7961,449.6547 232.1855,469.8052 C254.5749,489.9557 281.3291,505.2565 308.7426,514.517 C336.1561,523.7775 364.229,526.9976 389.8961,525.6139 z" stroke="#000000" stroke-width="0.24" fill="none" />
  <path d="M392.1907,569.2115 C422.9887,567.6299 456.0771,560.2525 487.618,545.7513 C519.159,531.2502 549.1525,509.6253 573.3278,482.7639 C597.503,455.9026 615.8599,423.8047 626.97,390.9158 C638.0801,358.0268 641.9435,324.3468 640.2833,293.553 C638.7018,262.7551 631.3243,229.6667 616.8232,198.1258 C602.322,166.5848 580.6971,136.5912 553.8358,112.416 C526.9744,88.24078 494.8766,69.88387 461.9876,58.77375 C429.0987,47.66364 395.4187,43.80032 364.6249,45.46045 C333.827,47.04199 300.7386,54.41943 269.1976,68.92059 C237.6567,83.42175 207.6631,105.0466 183.4879,131.908 C159.3126,158.7694 140.9557,190.8672 129.8456,223.7562 C118.7355,256.6451 114.8722,290.3251 116.5323,321.1189 C118.1138,351.9168 125.4913,385.0052 139.9924,416.5462 C154.4936,448.0871 176.1185,478.0807 202.9799,502.2559 C229.8412,526.4312 261.9391,544.7881 294.828,555.8982 C327.7169,567.0083 361.397,570.8716 392.1907,569.2115 z" stroke="#000000" stroke-width="0.24" fill="none" />
  <path d="M337.6131,271.1346 C342.695,270.5923 348.4977,273.0624 351.6295,277.1012 C354.9582,280.9793 356.2144,287.1595 354.664,292.0294 L316.036,424.6799 C314.0709,431.4279 313.9051,437.0029 314.205,441.8315 C314.5049,446.6599 315.2704,450.742 316.6311,453.6855 C317.9918,456.6291 319.9476,458.4341 322.4528,460.3779 C324.958,462.3217 328.0126,464.4044 331.0395,465.8623 C334.0663,467.3202 337.0654,468.1533 340.5365,468.6531 C344.0077,469.153 347.9509,469.3196 351.783,469.1113 C355.6152,468.903 359.3362,468.3199 363.1684,466.7509 C367.0005,465.182 370.9437,462.6272 374.7342,459.9336 C378.5247,457.24 382.1625,454.4075 385.6336,451.2974 C389.1048,448.1873 392.4093,444.7994 395.8839,440.7184 C399.3585,436.6373 403.0032,431.8631 407.0159,426.4603 C411.0285,421.0576 415.4091,415.0263 418.9644,409.4395 L411.219,404.7415 C403.7275,415.4073 399.4104,420.6132 396.1514,424.5917 C392.8925,428.5702 390.6916,431.3213 388.7658,433.4375 C386.84,435.5537 385.1894,437.0351 383.5599,437.9662 C381.9304,438.8974 380.3221,439.2783 378.9677,439.2783 C377.6133,439.2783 376.5128,438.8974 375.497,438.1355 C374.4813,437.3737 373.5501,436.2309 373.0211,434.4745 C372.492,432.718 372.365,430.3478 372.4573,426.7996 C372.5496,423.2514 372.8611,418.5251 374.8727,411.6172 L421.4301,251.7367 L332.3117,264.3996 L332.3117,271.5674 z" stroke="#000000" stroke-width="0.24" fill="none" />
</svg>