<?xml version="1.0" encoding="UTF-8" standalone="no"?>
<!DOCTYPE svg PUBLIC "-//W3C//DTD SVG 1.1//EN" "http://www.w3.org/Graphics/SVG/1.1/DTD/svg11.dtd">
<svg width="792pt" height="612pt" viewBox="0 0 792 612" overflow="visible" version="1.1" xmlns="http://www.w3.org/2000/svg">
  <path d="M148.9591,350.3793 L148.9591,268.4748 C148.4145,263.1031 154.504,257.0136 159.8757,257.5582 L268.8226,257.5582 L268.8226,236.2616 C268.6799,232.3967 271.3318,228.1031 274.8515,226.5003 C278.2434,224.6423 283.2699,225.0911 286.279,227.5206 L384.0709,300.6861 C386.7367,302.5907 388.5197,306.1515 388.4477,309.427 C388.5197,312.7025 386.7367,316.2634 384.0709,318.168 L286.279,391.3334 C283.2699,393.763 278.2434,394.2118 274.8515,392.3538 C271.3318,390.7509 268.6799,386.4573 268.8226,382.5925 L268.8226,361.2959 L159.8757,361.2959 C154.504,361.8405 148.4145,355.751 148.9591,350.3793 z" stroke="Black" stroke-width="0" fill="#FFFFFF" fill-opacity="1" />
  <path d="M303.3277,487.7058 L303.3277,417.796 L335.1749,393.9687 L335.1749,471.4895 L430.1128,471.4895 L430.1128,309.427 L430.1128,147.3645 L335.1749,147.3645 L335.1749,224.8854 L303.3277,201.0581 L303.3277,131.1482 C303.2262,127.3287 304.9596,122.7336 308.1238,119.5694 C311.2881,116.4052 315.8831,114.6718 319.7026,114.7733 L430.1128,114.7733 L430.1128,109.2693 C430.0273,104.6267 432.3703,99.61554 435.9875,96.70416 C439.4951,93.66158 444.8427,92.24601 449.3963,93.15475 L569.7146,114.8712 C576.8803,115.6385 583.6987,123.7977 583.181,130.9857 L583.181,309.427 L583.181,487.8683 C583.6987,495.0563 576.8803,503.2155 569.7146,503.9828 L449.3963,525.6993 C444.8427,526.608 439.4951,525.1925 435.9875,522.1499 C432.3703,519.2385 430.0273,514.2273 430.1128,509.5848 L430.1128,504.0807 L319.7026,504.0807 C315.8831,504.1823 311.2881,502.4489 308.1238,499.2846 C304.9596,496.1204 303.2262,491.5254 303.3277,487.7058 z M473.9064,309.427 C470.5886,309.3173 466.5972,311.1904 463.8487,314.6096 C461.1001,318.0288 459.5944,322.994 459.6826,327.1214 C459.5944,331.2487 461.1001,336.214 463.8487,339.6332 C466.5972,343.0524 470.5886,344.9255 473.9064,344.8157 C477.2242,344.9255 481.2156,343.0524 483.9641,339.6332 C486.7127,336.214 488.2184,331.2487 488.1302,327.1214 C488.2184,322.994 486.7127,318.0288 483.9641,314.6096 C481.2156,311.1904 477.2242,309.3173 473.9064,309.427 z" stroke="Black" stroke-width="0" fill="#FFFFFF" fill-opacity="1" />
  <text x="-3693.97498998435" y="363.116107651429" font-family="Arial Rounded MT Bold" font-size="149.446517944336">INICIAR SESIÓN</text>
  <text x="2097.34916799234" y="3553.03924407836" font-family="Arial Unicode MS" font-size="607.532592773438">VOLVER</text>
  <text x="-3693.97498998435" y="2036.96539962474" font-family="Arial Rounded MT Bold" font-size="149.446517944336">INICIAR SESIÓN</text>
  <path d="M473.9064,309.427 C470.5886,309.3173 466.5972,311.1904 463.8487,314.6096 C461.1001,318.0288 459.5944,322.994 459.6826,327.1214 C459.5944,331.2487 461.1001,336.214 463.8487,339.6332 C466.5972,343.0524 470.5886,344.9255 473.9064,344.8157 C477.2242,344.9255 481.2156,343.0524 483.9641,339.6332 C486.7127,336.214 488.2184,331.2487 488.1302,327.1214 C488.2184,322.994 486.7127,318.0288 483.9641,314.6096 C481.2156,311.1904 477.2242,309.3173 473.9064,309.427 z" stroke="#FFFFFF" stroke-width="0.24" fill="none" />
  <path d="M303.3277,487.7058 C303.2262,491.5254 304.9596,496.1204 308.1238,499.2846 C311.2881,502.4489 315.8831,504.1823 319.7026,504.0807 L430.1128,504.0807 L430.1128,509.5848 C430.0273,514.2273 432.3703,519.2385 435.9875,522.1499 C439.4951,525.1925 444.8427,526.608 449.3963,525.6993 L569.7146,503.9828 C576.8803,503.2155 583.6987,495.0563 583.181,487.8683 L583.181,309.427 L583.181,130.9857 C583.6987,123.7977 576.8803,115.6385 569.7146,114.8712 L449.3963,93.15475 C444.8427,92.24601 439.4951,93.66158 435.9875,96.70416 C432.3703,99.61554 430.0273,104.6267 430.1128,109.2693 L430.1128,114.7733 L319.7026,114.7733 C315.8831,114.6718 311.2881,116.4052 308.1238,119.5694 C304.9596,122.7336 303.2262,127.3287 303.3277,131.1482 L303.3277,201.0581 L335.1749,224.8854 L335.1749,147.3645 L430.1128,147.3645 L430.1128,309.427 L430.1128,471.4895 L335.1749,471.4895 L335.1749,393.9687 L303.3277,417.796 z" stroke="#FFFFFF" stroke-width="0.24" fill="none" />
  <path d="M148.9591,350.3793 C148.4145,355.751 154.504,361.8405 159.8757,361.2959 L268.8226,361.2959 L268.8226,382.5925 C268.6799,386.4573 271.3318,390.7509 274.8515,392.3538 C278.2434,394.2118 283.2699,393.763 286.279,391.3334 L384.0709,318.168 C386.7367,316.2634 388.5197,312.7025 388.4477,309.427 C388.5197,306.1515 386.7367,302.5907 384.0709,300.6861 L286.279,227.5206 C283.2699,225.0911 278.2434,224.6423 274.8515,226.5003 C271.3318,228.1031 268.6799,232.3967 268.8226,236.2616 L268.8226,257.5582 L159.8757,257.5582 C154.504,257.0136 148.4145,263.1031 148.9591,268.4748 L148.9591,350.8396" stroke="#FFFFFF" stroke-width="0.24" fill="none" />
</svg>