<?xml version="1.0" encoding="UTF-8" standalone="no"?>
<!DOCTYPE svg PUBLIC "-//W3C//DTD SVG 1.1//EN" "http://www.w3.org/Graphics/SVG/1.1/DTD/svg11.dtd">
<svg width="792pt" height="612pt" viewBox="0 0 792 612" overflow="visible" version="1.1" xmlns="http://www.w3.org/2000/svg">
  <path d="M147.6768,358.9202 L147.6768,277.3082 C147.1342,271.9557 153.2019,265.8879 158.5544,266.4306 L267.1123,266.4306 L267.1123,245.21 C266.9701,241.359 269.6125,237.0807 273.1196,235.4836 C276.4994,233.6322 281.5079,234.0794 284.5063,236.5003 L381.9489,309.4045 C384.6053,311.3022 386.3819,314.8503 386.3101,318.1142 C386.3819,321.378 384.6053,324.9261 381.9489,326.8239 L284.5063,399.7281 C281.5079,402.149 276.4994,402.5961 273.1196,400.7447 C269.6125,399.1476 266.9701,394.8694 267.1123,391.0183 L267.1123,369.7978 L158.5544,369.7978 C153.2019,370.3404 147.1342,364.2727 147.6768,358.9202 z" stroke="Black" stroke-width="0" fill="#000000" fill-opacity="1" />
  <path d="M301.4941,495.7563 L301.4941,426.0961 L333.2276,402.3539 L333.2276,479.5979 L427.8264,479.5979 L427.8264,318.1142 L427.8264,156.6305 L333.2276,156.6305 L333.2276,233.8745 L301.4941,210.1323 L301.4941,140.4721 C301.393,136.6662 303.1202,132.0876 306.2731,128.9346 C309.426,125.7817 314.0046,124.0545 317.8105,124.1557 L427.8264,124.1557 L427.8264,118.6713 C427.7413,114.0453 430.0758,109.052 433.6801,106.151 C437.1752,103.1193 442.5038,101.7088 447.041,102.6143 L566.9297,124.2532 C574.0697,125.0177 580.8638,133.1478 580.348,140.3102 L580.348,318.1142 L580.348,495.9182 C580.8638,503.0805 574.0697,511.2106 566.9297,511.9752 L447.041,533.6141 C442.5038,534.5195 437.1752,533.109 433.6801,530.0773 C430.0758,527.1763 427.7413,522.183 427.8264,517.5571 L427.8264,512.0727 L317.8105,512.0727 C314.0046,512.1739 309.426,510.4467 306.2731,507.2937 C303.1202,504.1408 301.393,499.5622 301.4941,495.7563 z M471.4636,318.1142 C468.1577,318.0049 464.1805,319.8712 461.4418,323.2782 C458.703,326.6852 457.2027,331.6328 457.2906,335.7453 C457.2027,339.8579 458.703,344.8055 461.4418,348.2125 C464.1805,351.6194 468.1577,353.4858 471.4636,353.3765 C474.7696,353.4858 478.7467,351.6194 481.4854,348.2125 C484.2242,344.8055 485.7245,339.8579 485.6366,335.7453 C485.7245,331.6328 484.2242,326.6852 481.4854,323.2782 C478.7467,319.8712 474.7696,318.0049 471.4636,318.1142 z" stroke="Black" stroke-width="0" fill="#000000" fill-opacity="1" />
  <text x="-2573.3243971872" y="539.483567866962" font-family="Arial Rounded MT Bold" font-size="148.912780761719">INICIAR SESIÓN</text>
  <text x="3197.3164602253" y="3718.01412166381" font-family="Arial Unicode MS" font-size="605.362854003906">VOLVER</text>
  <text x="-2573.3243971872" y="2207.35482665466" font-family="Arial Rounded MT Bold" font-size="148.912780761719">INICIAR SESIÓN</text>
  <path d="M471.4636,318.1142 C468.1577,318.0049 464.1805,319.8712 461.4418,323.2782 C458.703,326.6852 457.2027,331.6328 457.2906,335.7453 C457.2027,339.8579 458.703,344.8055 461.4418,348.2125 C464.1805,351.6194 468.1577,353.4858 471.4636,353.3765 C474.7696,353.4858 478.7467,351.6194 481.4854,348.2125 C484.2242,344.8055 485.7245,339.8579 485.6366,335.7453 C485.7245,331.6328 484.2242,326.6852 481.4854,323.2782 C478.7467,319.8712 474.7696,318.0049 471.4636,318.1142 z" stroke="#000000" stroke-width="0.24" fill="none" />
  <path d="M301.4941,495.7563 C301.393,499.5622 303.1202,504.1408 306.2731,507.2937 C309.426,510.4467 314.0046,512.1739 317.8105,512.0727 L427.8264,512.0727 L427.8264,517.5571 C427.7413,522.183 430.0758,527.1763 433.6801,530.0773 C437.1752,533.109 442.5038,534.5195 447.041,533.6141 L566.9297,511.9752 C574.0697,511.2106 580.8638,503.0805 580.348,495.9182 L580.348,318.1142 L580.348,140.3102 C580.8638,133.1478 574.0697,125.0177 566.9297,124.2532 L447.041,102.6143 C442.5038,101.7088 437.1752,103.1193 433.6801,106.151 C430.0758,109.052 427.7413,114.0453 427.8264,118.6713 L427.8264,124.1557 L317.8105,124.1557 C314.0046,124.0545 309.426,125.7817 306.2731,128.9346 C303.1202,132.0876 301.393,136.6662 301.4941,140.4721 L301.4941,210.1323 L333.2276,233.8745 L333.2276,156.6305 L427.8264,156.6305 L427.8264,318.1142 L427.8264,479.5979 L333.2276,479.5979 L333.2276,402.3539 L301.4941,426.0961 z" stroke="#000000" stroke-width="0.24" fill="none" />
  <path d="M147.6768,358.9202 C147.1342,364.2727 153.2019,370.3404 158.5544,369.7978 L267.1123,369.7978 L267.1123,391.0183 C266.9701,394.8694 269.6125,399.1476 273.1196,400.7447 C276.4994,402.5961 281.5079,402.149 284.5063,399.7281 L381.9489,326.8239 C384.6053,324.9261 386.3819,321.378 386.3101,318.1142 C386.3819,314.8503 384.6053,311.3022 381.9489,309.4045 L284.5063,236.5003 C281.5079,234.0794 276.4994,233.6322 273.1196,235.4836 C269.6125,237.0807 266.9701,241.359 267.1123,245.21 L267.1123,266.4306 L158.5544,266.4306 C153.2019,265.8879 147.1342,271.9557 147.6768,277.3082 L147.6768,359.3788" stroke="#000000" stroke-width="0.24" fill="none" />
</svg>