<?xml version="1.0" encoding="UTF-8" standalone="no"?>
<!DOCTYPE svg PUBLIC "-//W3C//DTD SVG 1.1//EN" "http://www.w3.org/Graphics/SVG/1.1/DTD/svg11.dtd">
<svg width="792pt" height="612pt" viewBox="0 0 792 612" overflow="visible" version="1.1" xmlns="http://www.w3.org/2000/svg">
  <path d="M526.5738,344.601 C526.8907,356.525 521.4794,370.8698 511.6012,380.748 C501.7231,390.6261 487.3782,396.0375 475.4542,395.7206 L281.9561,395.7206 L296.4688,410.3153 C299.4074,413.1175 301.5443,417.8789 301.5309,422.6342 C301.5175,427.3896 299.3538,432.1389 296.3995,434.9244 C293.5974,437.8629 288.836,439.9998 284.0806,439.9865 C279.3252,439.973 274.5759,437.8094 271.7904,434.8551 L224.3274,387.1238 C219.1382,382.8567 219.1382,372.1669 224.3274,367.8998 L228.0932,364.1128 L242.6059,349.518 L271.7904,320.1686 C274.5759,317.2143 279.3252,315.0506 284.0806,315.0372 C288.836,315.0238 293.5974,317.1607 296.3995,320.0992 C299.3538,322.8847 301.5175,327.634 301.5309,332.3894 C301.5443,337.1447 299.4074,341.9062 296.4688,344.7083 L281.9561,359.3031 L477.5703,359.3031 C480.7501,359.3876 484.5754,357.9445 487.2095,355.3104 C489.8437,352.6762 491.2867,348.8509 491.2022,345.6712 L491.2022,265.5343 C491.2867,262.3546 489.8437,258.5293 487.2095,255.8951 C484.5754,253.2609 480.7501,251.8179 477.5703,251.9024 L268.0681,251.9024 C263.9647,252.0115 259.0283,250.1493 255.629,246.75 C252.2297,243.3507 250.3675,238.4142 250.4766,234.3109 C250.3675,230.2076 252.2297,225.2712 255.629,221.8719 C259.0283,218.4725 263.9647,216.6103 268.0681,216.7194 L475.4542,216.7194 C487.3782,216.4024 501.7231,221.8138 511.6012,231.692 C521.4794,241.5701 526.8907,255.915 526.5738,267.839 z" stroke="Black" stroke-width="0" fill="#000000" fill-opacity="1" />
  <path d="M371.189,582.3012 C339.1208,582.3421 304.3574,576.4895 270.8115,563.1548 C237.2656,549.8201 204.9372,529.0033 178.3647,502.4308 C151.7921,475.8582 130.9753,443.5298 117.6406,409.9839 C104.3059,376.438 98.45331,341.6746 98.49422,309.6064 C98.45331,277.5383 104.3059,242.7748 117.6406,209.2289 C130.9753,175.6831 151.7921,143.3547 178.3647,116.7821 C204.9372,90.20956 237.2656,69.39275 270.8115,56.05805 C304.3574,42.72336 339.1208,36.87078 371.189,36.91169 C403.2571,36.87078 438.0206,42.72336 471.5665,56.05805 C505.1124,69.39275 537.4407,90.20956 564.0133,116.7821 C590.5859,143.3547 611.4026,175.6831 624.7374,209.2289 C638.0721,242.7748 643.9246,277.5383 643.8837,309.6064 C643.9246,341.6746 638.0721,376.438 624.7374,409.9839 C611.4026,443.5298 590.5859,475.8582 564.0133,502.4308 C537.4407,529.0033 505.1124,549.8201 471.5665,563.1548 C438.0206,576.4895 403.2571,582.3421 371.189,582.3012 z M371.189,544.1239 C398.7676,544.1591 428.6642,539.1259 457.5136,527.6581 C486.3631,516.1902 514.1655,498.2878 537.0179,475.4353 C559.8703,452.5829 577.7728,424.7805 589.2406,395.9311 C600.7084,367.0816 605.7416,337.1851 605.7065,309.6064 C605.7416,282.0278 600.7084,252.1313 589.2406,223.2818 C577.7728,194.4323 559.8703,166.63 537.0179,143.7775 C514.1655,120.9251 486.3631,103.0227 457.5136,91.55482 C428.6642,80.08699 398.7676,75.05377 371.189,75.08895 C343.6104,75.05377 313.7138,80.08699 284.8643,91.55482 C256.0149,103.0227 228.2125,120.9251 205.3601,143.7775 C182.5077,166.63 164.6052,194.4323 153.1374,223.2818 C141.6695,252.1313 136.6363,282.0278 136.6715,309.6064 C136.6363,337.1851 141.6695,367.0816 153.1374,395.9311 C164.6052,424.7805 182.5077,452.5829 205.3601,475.4353 C228.2125,498.2878 256.0149,516.1902 284.8643,527.6581 C313.7138,539.1259 343.6104,544.1591 371.189,544.1239 z" stroke="Black" stroke-width="0" fill="#000000" fill-opacity="1" />
  <path d="M371.189,582.3012 C403.2571,582.3421 438.0206,576.4895 471.5665,563.1548 C505.1124,549.8201 537.4407,529.0033 564.0133,502.4308 C590.5859,475.8582 611.4026,443.5298 624.7374,409.9839 C638.0721,376.438 643.9246,341.6746 643.8837,309.6064 C643.9246,277.5383 638.0721,242.7748 624.7374,209.2289 C611.4026,175.6831 590.5859,143.3547 564.0133,116.7821 C537.4407,90.20956 505.1124,69.39275 471.5665,56.05805 C438.0206,42.72336 403.2571,36.87078 371.189,36.91169 C339.1208,36.87078 304.3574,42.72336 270.8115,56.05805 C237.2656,69.39275 204.9372,90.20956 178.3647,116.7821 C151.7921,143.3547 130.9753,175.6831 117.6406,209.2289 C104.3059,242.7748 98.45331,277.5383 98.49422,309.6064 C98.45331,341.6746 104.3059,376.438 117.6406,409.9839 C130.9753,443.5298 151.7921,475.8582 178.3647,502.4308 C204.9372,529.0033 237.2656,549.8201 270.8115,563.1548 C304.3574,576.4895 339.1208,582.3421 371.189,582.3012 z" stroke="#000000" stroke-width="0.24" fill="none" />
  <path d="M371.189,544.1239 C398.7676,544.1591 428.6642,539.1259 457.5136,527.6581 C486.3631,516.1902 514.1655,498.2878 537.0179,475.4353 C559.8703,452.5829 577.7728,424.7805 589.2406,395.9311 C600.7084,367.0816 605.7416,337.1851 605.7065,309.6064 C605.7416,282.0278 600.7084,252.1313 589.2406,223.2818 C577.7728,194.4323 559.8703,166.63 537.0179,143.7775 C514.1655,120.9251 486.3631,103.0227 457.5136,91.55482 C428.6642,80.08699 398.7676,75.05377 371.189,75.08895 C343.6104,75.05377 313.7138,80.08699 284.8643,91.55482 C256.0149,103.0227 228.2125,120.9251 205.3601,143.7775 C182.5077,166.63 164.6052,194.4323 153.1374,223.2818 C141.6695,252.1313 136.6363,282.0278 136.6715,309.6064 C136.6363,337.1851 141.6695,367.0816 153.1374,395.9311 C164.6052,424.7805 182.5077,452.5829 205.3601,475.4353 C228.2125,498.2878 256.0149,516.1902 284.8643,527.6581 C313.7138,539.1259 343.6104,544.1591 371.189,544.1239 z" stroke="#000000" stroke-width="0.24" fill="none" />
  <text x="-5783.23304719527" y="1938.86818890835" font-family="Arial Rounded MT Bold" font-size="149.325912475586">INICIAR SESIÓN</text>
  <text x="3.41712253780505" y="3453.718459766" font-family="Arial Unicode MS" font-size="607.042236328125">VOLVER</text>
  <path d="M268.0681,251.9024 C263.9647,252.0115 259.0283,250.1493 255.629,246.75 C252.2297,243.3507 250.3675,238.4142 250.4766,234.3109 C250.3675,230.2076 252.2297,225.2712 255.629,221.8719 C259.0283,218.4725 263.9647,216.6103 268.0681,216.7194 L475.4542,216.7194 C487.3782,216.4024 501.7231,221.8138 511.6012,231.692 C521.4794,241.5701 526.8907,255.915 526.5738,267.839 L526.5738,344.601 C526.8907,356.525 521.4794,370.8698 511.6012,380.748 C501.7231,390.6261 487.3782,396.0375 475.4542,395.7206 L281.9561,395.7206 L296.4688,410.3153 C299.4074,413.1175 301.5443,417.8789 301.5309,422.6342 C301.5175,427.3896 299.3538,432.1389 296.3995,434.9244 C293.5974,437.8629 288.836,439.9998 284.0806,439.9865 C279.3252,439.973 274.5759,437.8094 271.7904,434.8551 L224.3274,387.1238 C219.1382,382.8567 219.1382,372.1669 224.3274,367.8998 L271.7904,320.1686 C274.5759,317.2143 279.3252,315.0506 284.0806,315.0372 C288.836,315.0238 293.5974,317.1607 296.3995,320.0992 C299.3538,322.8847 301.5175,327.634 301.5309,332.3894 C301.5443,337.1447 299.4074,341.9062 296.4688,344.7083 L281.9561,359.3031 L477.5703,359.3031 C480.7501,359.3876 484.5754,357.9445 487.2095,355.3104 C489.8437,352.6762 491.2867,348.8509 491.2022,345.6712 L491.2022,265.5343 C491.2867,262.3546 489.8437,258.5293 487.2095,255.8951 C484.5754,253.2609 480.7501,251.8179 477.5703,251.9024 z" stroke="#000000" stroke-width="0.24" fill="none" />
  <path d="M228.0932,364.1128 L242.606,349.518" stroke="#000000" stroke-width="0.24" fill="none" />
</svg>