<?xml version="1.0" encoding="UTF-8" standalone="no"?>
<!DOCTYPE svg PUBLIC "-//W3C//DTD SVG 1.1//EN" "http://www.w3.org/Graphics/SVG/1.1/DTD/svg11.dtd">
<svg width="792pt" height="612pt" viewBox="0 0 792 612" overflow="visible" version="1.1" xmlns="http://www.w3.org/2000/svg">
  <path d="M326.4188,370.3816 C343.6059,381.2729 365.6133,387.8661 387.6206,387.8661 C409.6279,387.8661 431.6352,381.2729 448.8224,370.3816 L467.8255,389.5877 L361.8045,572.5139 L183.7898,572.5139 C182.5122,555.692 182.2993,542.5964 182.2283,532.7126 C182.1573,522.8288 182.2283,516.1568 182.5832,508.633 C182.9381,501.1093 183.5769,492.7338 184.4286,485.494 C185.2804,478.2542 186.3451,472.15 187.6582,465.9748 C188.9713,459.7997 190.5328,453.5535 192.0234,448.8335 C193.5139,444.1134 194.9335,440.9193 196.6725,437.2284 L202.5637,425.375 C204.6576,421.4002 206.7869,417.6383 209.6261,414.0184 C212.4652,410.3985 216.0142,406.9205 221.0359,403.1587 C226.0577,399.3968 232.5522,395.351 250.9745,390.6747 L306.5509,390.4617 z" stroke="Black" stroke-width="0" fill="#000000" fill-opacity="1" />
  <path d="M405.1386,579.7988 C401.4634,579.9144 397.4078,577.5706 395.673,574.3286 C393.7379,571.202 393.7438,566.5178 395.6868,563.396 L543.3494,308.6224 C545.0891,305.3923 549.1343,303.0613 552.8013,303.1759 C556.4682,303.0613 560.5135,305.3923 562.2531,308.6224 L709.9158,563.396 C711.8588,566.5178 711.8646,571.202 709.9295,574.3286 C708.1948,577.5706 704.1391,579.9144 700.4639,579.7988 z M414.618,563.4118 L690.9846,563.4118 L552.8013,324.9936 z" stroke="Black" stroke-width="0" fill="#000000" fill-opacity="1" />
  <path d="M429.5824,70.72274 C443.5965,79.39322 451.4842,86.31034 458.0197,92.54346 C464.9224,99.12673 470.3167,104.947 476.5806,114.2984 C482.8445,123.6499 489.9778,136.5325 498.2294,159.2266 L514.5533,159.2266 L514.5533,194.8424 L387.6206,194.8424 L260.6879,194.8424 L260.6879,159.2266 L277.0117,159.2266 C285.2633,136.5325 292.3967,123.6499 298.6606,114.2984 C304.9244,104.947 310.3188,99.12673 317.2215,92.54346 C323.757,86.31034 331.6447,79.39322 345.6588,70.72274 L345.6588,154.7326 C345.5233,159.8291 347.8362,165.9603 352.0583,170.1824 C356.2804,174.4044 362.4116,176.7174 367.5081,176.5819 L407.7331,176.5819 C412.8296,176.7174 418.9608,174.4044 423.1829,170.1824 C427.4049,165.9603 429.7179,159.8291 429.5824,154.7326 z" stroke="Black" stroke-width="0" fill="#000000" fill-opacity="1" />
  <path d="M552.8013,506.7021 L574.2375,506.7021 L574.2375,552.3793 L552.8013,552.3793 L531.3651,552.3793 L531.3651,506.7021 z" stroke="Black" stroke-width="0" fill="#000000" fill-opacity="1" />
  <path d="M476.1533,270.5519 C476.8453,293.4211 467.0123,318.0145 450.7444,334.1028 C434.9262,350.6333 410.498,360.8698 387.6206,360.5544 C364.7432,360.8698 340.3149,350.6333 324.4967,334.1028 C308.2288,318.0145 298.3959,293.4211 299.0879,270.5519 C287.9768,268.8645 277.2117,258.5854 275.0132,247.564 C271.93,236.7566 276.805,222.6932 285.9157,216.1129 L387.6206,216.1129 L489.3255,216.1129 C498.4361,222.6932 503.3112,236.7566 500.228,247.564 C498.0294,258.5854 487.2644,268.8645 476.1533,270.5519 z" stroke="Black" stroke-width="0" fill="#000000" fill-opacity="1" />
  <path d="M524.1529,408.9369 L581.4497,408.9369 L571.0825,494.4071 L552.8013,494.4071 L534.5201,494.4071 z" stroke="Black" stroke-width="0" fill="#000000" fill-opacity="1" />
  <path d="M367.5081,165.6572 C362.1324,166.2022 356.0385,160.1083 356.5834,154.7326 L356.5834,42.7043 C356.0385,37.32864 362.1324,31.23467 367.5081,31.77965 L387.6206,31.77965 L407.7331,31.77965 C413.1088,31.23467 419.2027,37.32864 418.6577,42.7043 L418.6577,154.7326 C419.2027,160.1083 413.1088,166.2022 407.7331,165.6572 L387.6206,165.6572 z" stroke="Black" stroke-width="0" fill="#000000" fill-opacity="1" />
  <text x="-294.652164760771" y="-529.493497500521" font-family="Arial Unicode MS" font-size="303.990234375">VOLVER</text>
  <text x="-3192.44884226008" y="-1288.08922266818" font-family="Arial Rounded MT Bold" font-size="74.7783508300781">INICIAR SESIÓN</text>
  <path d="M367.5081,165.6572 C362.1324,166.2022 356.0385,160.1083 356.5834,154.7326 L356.5834,42.7043 C356.0385,37.32864 362.1324,31.23467 367.5081,31.77965 L387.6206,31.77965 L407.7331,31.77965 C413.1088,31.23467 419.2027,37.32864 418.6577,42.7043 L418.6577,154.7326 C419.2027,160.1083 413.1088,166.2022 407.7331,165.6572 L387.6206,165.6572 z" stroke="#000000" stroke-width="0.24" fill="none" />
  <path d="M543.3494,308.6224 C545.0891,305.3923 549.1343,303.0613 552.8013,303.1759 C556.4682,303.0613 560.5135,305.3923 562.2531,308.6224 L709.9158,563.396 C711.8588,566.5178 711.8646,571.202 709.9295,574.3286 C708.1948,577.5706 704.1391,579.9144 700.4639,579.7988 L405.1386,579.7988 C401.4634,579.9144 397.4078,577.5706 395.673,574.3286 C393.7379,571.202 393.7438,566.5178 395.6868,563.396 z" stroke="#000000" stroke-width="0.24" fill="none" />
  <path d="M285.9157,216.1129 C276.805,222.6932 271.93,236.7566 275.0132,247.564 C277.2117,258.5854 287.9768,268.8645 299.0879,270.5519 C298.3959,293.4211 308.2288,318.0145 324.4967,334.1028 C340.3149,350.6333 364.7432,360.8698 387.6206,360.5544 C410.498,360.8698 434.9262,350.6333 450.7444,334.1028 C467.0123,318.0145 476.8453,293.4211 476.1533,270.5519 C487.2644,268.8645 498.0294,258.5854 500.228,247.564 C503.3112,236.7566 498.4361,222.6932 489.3255,216.1129 L387.6206,216.1129 z" stroke="#000000" stroke-width="0.24" fill="none" />
  <path d="M407.7331,176.5819 L367.5081,176.5819 C362.4116,176.7174 356.2804,174.4044 352.0583,170.1824 C347.8362,165.9603 345.5233,159.8291 345.6588,154.7326 L345.6588,70.72274 C331.6447,79.39322 323.757,86.31034 317.2215,92.54346 C310.3188,99.12673 304.9244,104.947 298.6606,114.2984 C292.3967,123.6499 285.2633,136.5325 277.0117,159.2266 L260.6879,159.2266 L260.6879,194.8424 L387.6206,194.8424 L514.5533,194.8424 L514.5533,159.2266 L498.2294,159.2266 C489.9778,136.5325 482.8445,123.6499 476.5806,114.2984 C470.3167,104.947 464.9224,99.12673 458.0197,92.54346 C451.4842,86.31034 443.5965,79.39322 429.5824,70.72274 L429.5824,154.7326 C429.7179,159.8291 427.4049,165.9603 423.1829,170.1824 C418.9608,174.4044 412.8296,176.7174 407.7331,176.5819 z" stroke="#000000" stroke-width="0.24" fill="none" />
  <path d="M326.4188,370.3816 L306.5509,390.4617 L250.9745,390.6747 C232.5522,395.351 226.0577,399.3968 221.0359,403.1587 C216.0142,406.9205 212.4652,410.3985 209.6261,414.0184 C206.7869,417.6383 204.6576,421.4002 202.5637,425.375 L196.6725,437.2284 C194.9335,440.9193 193.5139,444.1134 192.0234,448.8335 C190.5328,453.5535 188.9713,459.7997 187.6582,465.9748 C186.3451,472.15 185.2804,478.2542 184.4286,485.494 C183.5769,492.7338 182.9381,501.1093 182.5832,508.633 C182.2283,516.1568 182.1573,522.8288 182.2283,532.7126 C182.2993,542.5964 182.5122,555.692 183.7898,572.5139 L361.8045,572.5139 L467.8255,389.5877 L448.8224,370.3816 C431.6352,381.2729 409.6279,387.8661 387.6206,387.8661 C365.6133,387.8661 343.6059,381.2729 326.4188,370.3816 z" stroke="#000000" stroke-width="0.24" fill="none" />
  <path d="M414.618,563.4119 L690.9846,563.4119 L552.8013,324.9936 z" stroke="#000000" stroke-width="0.24" fill="none" />
  <path d="M524.1529,408.9369 L581.4497,408.9369 L571.0825,494.4071 L552.8013,494.4071 L534.5201,494.4071 z" stroke="#000000" stroke-width="0.24" fill="none" />
  <path d="M552.8013,506.7021 L531.3651,506.7021 L531.3651,552.3793 L552.8013,552.3793 L574.2375,552.3793 L574.2375,506.7021 z" stroke="#000000" stroke-width="0.24" fill="none" />
</svg>