<?xml version="1.0" encoding="UTF-8" standalone="no"?>
<!DOCTYPE svg PUBLIC "-//W3C//DTD SVG 1.1//EN" "http://www.w3.org/Graphics/SVG/1.1/DTD/svg11.dtd">
<svg width="792pt" height="612pt" viewBox="0 0 792 612" overflow="visible" version="1.1" xmlns="http://www.w3.org/2000/svg">
  <path d="M359.7757,158.3165 C354.29,158.8726 348.0713,152.6539 348.6274,147.1682 L348.6274,32.84695 C348.0713,27.36125 354.29,21.14256 359.7757,21.6987 L380.2999,21.6987 L400.824,21.6987 C406.3097,21.14256 412.5284,27.36125 411.9723,32.84695 L411.9723,147.1682 C412.5284,152.6539 406.3097,158.8726 400.824,158.3165 L380.2999,158.3165 z" stroke="Black" stroke-width="0" fill="#FFFFFF" fill-opacity="1" />
  <path d="M548.8615,506.3417 L570.7364,506.3417 L570.7364,552.9539 L548.8615,552.9539 L526.9865,552.9539 L526.9865,506.3417 z" stroke="Black" stroke-width="0" fill="#FFFFFF" fill-opacity="1" />
  <path d="M398.1765,580.9346 C394.4261,581.0526 390.2874,578.6608 388.5172,575.3524 C386.5424,572.1618 386.5484,567.3817 388.5311,564.1961 L539.2161,304.2078 C540.9914,300.9117 545.1194,298.5329 548.8615,298.6498 C552.6034,298.5329 556.7315,300.9117 558.5068,304.2078 L709.1917,564.1961 C711.1745,567.3817 711.1805,572.1618 709.2057,575.3524 C707.4355,578.6608 703.2968,581.0526 699.5464,580.9346 z M407.8498,564.2122 L689.873,564.2122 L548.8615,320.9141 z" stroke="Black" stroke-width="0" fill="#FFFFFF" fill-opacity="1" />
  <path d="M470.6446,265.3581 C471.3508,288.6953 461.3166,313.7921 444.7157,330.2097 C428.5737,347.0786 403.6455,357.5246 380.2999,357.2028 C356.9542,357.5246 332.026,347.0786 315.884,330.2097 C299.2831,313.7921 289.2489,288.6953 289.9551,265.3581 C278.6165,263.6361 267.6311,253.1467 265.3876,241.8997 C262.2413,230.8711 267.2162,216.5199 276.5133,209.8048 L380.2999,209.8048 L484.0864,209.8048 C493.3836,216.5199 498.3584,230.8711 495.2121,241.8997 C492.9686,253.1467 481.9832,263.6361 470.6446,265.3581 z" stroke="Black" stroke-width="0" fill="#FFFFFF" fill-opacity="1" />
  <path d="M317.8454,367.2311 C335.3843,378.3453 357.8421,385.0734 380.2999,385.0734 C402.7576,385.0734 425.2154,378.3453 442.7543,367.2311 L462.1464,386.8303 L353.9554,573.5006 L172.2971,573.5006 C170.9934,556.3343 170.7761,542.9707 170.7036,532.8846 C170.6312,522.7985 170.7036,515.99 171.0658,508.3122 C171.4279,500.6345 172.0798,492.0876 172.949,484.6996 C173.8182,477.3116 174.9047,471.0824 176.2446,464.7809 C177.5846,458.4794 179.1781,452.1054 180.6992,447.2887 C182.2202,442.472 183.6689,439.2126 185.4435,435.4461 L191.4553,423.3501 C193.592,419.2939 195.7649,415.455 198.6622,411.761 C201.5595,408.067 205.181,404.5179 210.3056,400.679 C215.4301,396.8401 222.0576,392.7115 240.857,387.9395 L297.5708,387.7222 z" stroke="Black" stroke-width="0" fill="#FFFFFF" fill-opacity="1" />
  <path d="M519.6266,406.5755 L578.0962,406.5755 L567.5168,493.7951 L548.8615,493.7951 L530.2061,493.7951 z" stroke="Black" stroke-width="0" fill="#FFFFFF" fill-opacity="1" />
  <path d="M423.1205,61.43887 C437.4215,70.2868 445.4706,77.3455 452.1399,83.7062 C459.1838,90.42422 464.6886,96.36361 471.0807,105.9065 C477.4728,115.4493 484.7522,128.5956 493.1726,151.7542 L509.8306,151.7542 L509.8306,188.0989 L380.2999,188.0989 L250.7691,188.0989 L250.7691,151.7542 L267.4271,151.7542 C275.8476,128.5956 283.1269,115.4493 289.519,105.9065 C295.9111,96.36361 301.4159,90.42422 308.4598,83.7062 C315.1291,77.3455 323.1782,70.2868 337.4792,61.43887 L337.4792,147.1682 C337.3409,152.369 339.7012,158.6257 344.0097,162.9342 C348.3182,167.2427 354.5749,169.603 359.7757,169.4647 L400.824,169.4647 C406.0248,169.603 412.2816,167.2427 416.59,162.9342 C420.8985,158.6257 423.2588,152.369 423.1205,147.1682 z" stroke="Black" stroke-width="0" fill="#FFFFFF" fill-opacity="1" />
  <text x="-4139.88867519411" y="-1325.18504235835" font-family="Arial Rounded MT Bold" font-size="76.3088989257813">INICIAR SESIÓN</text>
  <text x="-1182.78036979277" y="-551.062504102461" font-family="Arial Unicode MS" font-size="310.212249755859">VOLVER</text>
  <path d="M359.7757,158.3165 C354.29,158.8726 348.0713,152.6539 348.6274,147.1682 L348.6274,32.84695 C348.0713,27.36125 354.29,21.14256 359.7757,21.6987 L380.2999,21.6987 L400.824,21.6987 C406.3097,21.14256 412.5284,27.36125 411.9723,32.84695 L411.9723,147.1682 C412.5284,152.6539 406.3097,158.8726 400.824,158.3165 L380.2999,158.3165 z" stroke="#FFFFFF" stroke-width="0.24" fill="none" />
  <path d="M539.2161,304.2078 C540.9914,300.9117 545.1194,298.5329 548.8615,298.6498 C552.6034,298.5329 556.7315,300.9117 558.5068,304.2078 L709.1917,564.1961 C711.1745,567.3817 711.1805,572.1618 709.2057,575.3524 C707.4355,578.6608 703.2968,581.0526 699.5464,580.9346 L398.1765,580.9346 C394.4261,581.0526 390.2874,578.6608 388.5172,575.3524 C386.5424,572.1618 386.5484,567.3817 388.5311,564.1961 z" stroke="#FFFFFF" stroke-width="0.24" fill="none" />
  <path d="M276.5133,209.8048 C267.2162,216.5199 262.2413,230.8711 265.3876,241.8997 C267.6311,253.1467 278.6165,263.6361 289.9551,265.3581 C289.2489,288.6953 299.2831,313.7921 315.884,330.2097 C332.026,347.0786 356.9542,357.5246 380.2999,357.2028 C403.6455,357.5246 428.5737,347.0786 444.7157,330.2097 C461.3166,313.7921 471.3508,288.6953 470.6446,265.3581 C481.9832,263.6361 492.9686,253.1467 495.2121,241.8997 C498.3584,230.8711 493.3836,216.5199 484.0864,209.8048 L380.2999,209.8048 z" stroke="#FFFFFF" stroke-width="0.24" fill="none" />
  <path d="M400.824,169.4647 L359.7757,169.4647 C354.5749,169.603 348.3182,167.2427 344.0097,162.9342 C339.7012,158.6257 337.3409,152.369 337.4792,147.1682 L337.4792,61.43887 C323.1782,70.2868 315.1291,77.3455 308.4598,83.7062 C301.4159,90.42422 295.9111,96.36361 289.519,105.9065 C283.1269,115.4493 275.8476,128.5956 267.4271,151.7542 L250.7691,151.7542 L250.7691,188.0989 L380.2999,188.0989 L509.8306,188.0989 L509.8306,151.7542 L493.1726,151.7542 C484.7522,128.5956 477.4728,115.4493 471.0807,105.9065 C464.6886,96.36361 459.1838,90.42422 452.1399,83.7062 C445.4706,77.3455 437.4215,70.2868 423.1205,61.43887 L423.1205,147.1682 C423.2588,152.369 420.8985,158.6257 416.59,162.9342 C412.2816,167.2427 406.0248,169.603 400.824,169.4647 z" stroke="#FFFFFF" stroke-width="0.24" fill="none" />
  <path d="M317.8454,367.2311 L297.5708,387.7222 L240.857,387.9395 C222.0576,392.7115 215.4301,396.8401 210.3056,400.679 C205.181,404.5179 201.5595,408.067 198.6622,411.761 C195.7649,415.455 193.592,419.2939 191.4553,423.3501 L185.4435,435.4461 C183.6689,439.2126 182.2202,442.472 180.6992,447.2887 C179.1781,452.1054 177.5846,458.4794 176.2446,464.7809 C174.9047,471.0824 173.8182,477.3116 172.949,484.6996 C172.0798,492.0876 171.4279,500.6345 171.0658,508.3122 C170.7036,515.99 170.6312,522.7985 170.7036,532.8846 C170.7761,542.9707 170.9934,556.3343 172.2971,573.5006 L353.9554,573.5006 L462.1464,386.8303 L442.7543,367.2311 C425.2154,378.3453 402.7576,385.0734 380.2999,385.0734 C357.8421,385.0734 335.3843,378.3453 317.8454,367.2311 z" stroke="#FFFFFF" stroke-width="0.24" fill="none" />
  <path d="M407.8499,564.2123 L689.8731,564.2123 L548.8615,320.9141 z" stroke="#FFFFFF" stroke-width="0.24" fill="none" />
  <path d="M519.6267,406.5756 L578.0963,406.5756 L567.5168,493.7951 L548.8615,493.7951 L530.2061,493.7951 z" stroke="#FFFFFF" stroke-width="0.24" fill="none" />
  <path d="M548.8615,506.3418 L526.9865,506.3418 L526.9865,552.9539 L548.8615,552.9539 L570.7365,552.9539 L570.7365,506.3418 z" stroke="#FFFFFF" stroke-width="0.24" fill="none" />
</svg>