<?xml version="1.0" encoding="UTF-8" standalone="no"?>
<!DOCTYPE svg PUBLIC "-//W3C//DTD SVG 1.1//EN" "http://www.w3.org/Graphics/SVG/1.1/DTD/svg11.dtd">
<svg width="792pt" height="612pt" viewBox="0 0 792 612" overflow="visible" version="1.1" xmlns="http://www.w3.org/2000/svg">
  <path d="M383.396,544.1109 C354.9198,544.1472 324.0502,538.9502 294.2617,527.1091 C264.4734,515.268 235.7661,496.7829 212.1699,473.1867 C188.5737,449.5905 170.0886,420.8833 158.2475,391.0949 C146.4065,361.3065 141.2094,330.4369 141.2458,301.9607 C141.2094,273.4845 146.4065,242.6149 158.2475,212.8265 C170.0886,183.0381 188.5737,154.3308 212.1699,130.7346 C235.7661,107.1385 264.4734,88.65334 294.2617,76.81226 C324.0502,64.97118 354.9198,59.77415 383.396,59.81048 C411.8722,59.77415 442.7418,64.97118 472.5302,76.81226 C502.3186,88.65334 531.0258,107.1385 554.622,130.7346 C578.2182,154.3308 596.7033,183.0381 608.5444,212.8265 C620.3854,242.6149 625.5825,273.4845 625.5461,301.9607 C625.5825,330.4369 620.3854,361.3065 608.5444,391.0949 C596.7033,420.8833 578.2182,449.5905 554.622,473.1867 C531.0258,496.7829 502.3186,515.268 472.5302,527.1091 C442.7418,538.9502 411.8722,544.1472 383.396,544.1109 z M487.7256,308.3237 L491.0648,306.9835 L494.6203,305.5068 L497.5576,304.2071 L499.7256,303.14 L501.5516,302.0709 L503.2878,300.7168 L504.3807,299.5146 L505.0927,298.4471 L505.6067,297.404 L505.9143,296.5681 L506.0068,296.2665 L506.2515,295.3314 L506.6073,293.3263 L506.8568,290.5163 L506.9465,288.1409 L506.9829,285.4208 L506.9615,279.0698 L506.9026,273.519 L506.8529,269.5076 L506.781,266.4752 L506.7204,264.9963 L506.6359,263.574 L506.5198,262.2114 L506.3557,260.8804 L506.1159,259.532 L505.7408,258.1157 L505.3854,257.1405 L504.621,255.6134 L503.5779,254.1608 L502.3504,252.9334 L500.9721,251.9168 L499.7979,251.2412 L498.6942,250.7115 L496.4688,249.8019 L494.048,248.9399 L488.9472,247.3055 L481.2117,244.9484 L478.9557,244.25 L477.3057,243.7191 L476.3311,243.3834 L475.7594,243.1645 L475.425,243.0147 L474.9469,242.5367 L474.5295,242.0008 L473.6216,240.6942 L473.0538,239.8354 L472.3188,238.643 L471.7067,237.441 L471.3433,236.6101 L470.9432,235.6154 L470.1764,233.4475 L469.6898,231.7599 L469.5391,231.0693 L469.4666,230.5749 L469.4479,230.341 L469.4446,230.0262 L469.4786,229.6961 L469.5604,229.2635 L469.9651,227.9851 L470.3465,227.0754 L470.8761,225.9664 L472.4166,223.1357 L474.3793,219.8437 L476.3625,216.6749 L478.381,213.4974 L479.9221,210.8887 L480.6225,209.5247 L481.2484,208.1119 L481.7785,206.6246 L482.0713,205.5647 L482.3777,203.8703 L482.4633,202.0065 L482.3905,201.0118 L482.229,200.0163 L481.6687,198.1447 L480.9015,196.5509 L480.0717,195.2557 L479.2559,194.1843 L478.8592,193.702 L477.1298,191.7395 L474.9003,189.4022 L472.6199,187.1185 L471.0295,185.5568 L467.8054,182.4092 L464.5636,179.2109 L461.2768,175.8753 L460.0093,174.5901 L458.9028,173.5 L457.8295,172.4997 L455.6524,170.7718 L454.4625,170.0389 L453.2097,169.4325 L451.8819,168.9576 L449.3456,168.4639 L447.9974,168.4108 L446.6271,168.5035 L444.5622,168.9258 L442.2629,169.7855 L441.3867,170.1919 L440.3515,170.6987 L436.9993,172.3625 L433.774,174.0131 L432.1128,174.9106 L430.5006,175.8299 L427.6239,177.5798 L426.5736,178.2138 L425.7054,178.7042 L424.7255,179.1795 L423.3458,179.6753 L421.9475,180.0207 L421.1349,180.1633 L420.1472,180.2636 L419.5478,180.2451 L419.3101,180.2065 L418.9819,180.1264 L417.9733,179.7808 L416.1979,179.0388 L412.0176,177.1494 L410.8015,176.5878 L409.8555,176.1321 L409.1402,175.7543 L408.7717,175.5303 L408.2644,174.9295 L407.5901,173.923 L406.7456,172.5255 L405.7744,170.7371 L404.8766,168.6093 L404.4365,167.2271 L403.9564,165.5209 L403.3526,163.2714 L402.757,161.1638 L401.4915,157.2077 L400.7731,155.0926 L400.3376,153.7789 L399.5392,151.2904 L399.0977,150.0898 L398.6839,149.1606 L397.7022,147.512 L396.1051,145.7774 L395.1324,145.044 L394.1263,144.4542 L392.1822,143.6667 L390.4012,143.2202 L388.0935,142.867 L386.2295,142.6868 L384.2142,142.5506 L379.6728,142.3635 L374.6087,142.2673 L367.2724,142.2117 L362.7938,142.1525 L359.4972,142.1871 L356.3542,142.5014 L354.8631,142.7934 L353.3625,143.2301 L351.7665,143.9091 L350.2989,144.812 L349.0773,145.8468 L348.2013,146.8002 L346.7766,148.8471 L345.5625,151.5607 L345.1394,152.9602 L344.7951,154.3294 L344.38,156.0246 L343.9641,157.5551 L343.4298,159.3302 L342.5956,161.9692 L341.8593,164.3011 L341.2073,166.4281 L340.6108,168.4626 L340.1014,170.3349 L339.502,172.7299 L339.2952,173.4463 L339.1961,173.7183 L339.0894,173.9567 L338.8341,174.2232 L338.3282,174.5407 L337.5083,174.9883 L336.4206,175.5407 L331.3355,178.0092 L328.9369,179.0829 L327.9242,179.4871 L327.114,179.7681 L325.8763,180.0686 L324.7665,180.2056 L323.7052,179.739 L322.3678,179.0022 L319.9433,177.6563 L315.2595,175.1465 L312.0013,173.5419 L309.8546,172.5637 L307.7513,171.6355 L305.675,170.6991 L303.9609,169.9114 L302.3459,169.2245 L300.5003,168.5972 L298.3105,168.1846 L297.1215,168.1299 L295.9373,168.198 L293.8112,168.6244 L292.1972,169.1918 L290.3638,170.0801 L288.544,171.2339 L286.7668,172.6533 L285.1945,174.1617 L283.7937,175.6601 L282.3272,177.3095 L279.9922,179.8923 L278.795,181.1224 L277.8283,182.0518 L276.4016,183.3372 L272.8079,186.3762 L269.7416,188.9797 L268.3531,190.2549 L267.0414,191.6005 L265.7753,193.1449 L264.6592,194.9067 L263.7896,196.8832 L263.2555,198.9496 L263.057,200.9211 L263.1659,203.1502 L263.6242,205.3804 L264.3931,207.5565 L265.5197,209.8526 L266.5997,211.7139 L268.6831,215.0887 L270.4865,218.226 L272.4433,221.7879 L273.2948,223.2621 L274.179,224.7509 L274.774,225.764 L275.2021,226.5362 L275.6615,227.5395 L275.7719,227.8711 L275.8409,228.1528 L275.8771,228.3635 L275.8727,228.8368 L275.8006,229.4061 L275.6252,230.3123 L275.3445,231.4834 L274.9846,232.7769 L274.5754,234.0878 L273.8173,236.1938 L272.8624,238.4214 L272.1974,239.7844 L271.7635,240.5731 L271.4142,241.1039 L271.1652,241.4032 L270.4782,241.9096 L269.8068,242.2792 L269.0209,242.646 L268.2187,242.9805 L267.5025,243.2502 L266.7011,243.5217 L265.6466,243.8566 L263.4299,244.5443 L261.6371,245.0924 L257.8521,246.1989 L256.0678,246.6813 L253.9257,247.2426 L250.3304,248.3014 L246.7172,249.794 L244.8534,250.8549 L243.1357,252.1371 L242.2801,252.9511 L241.4487,253.9196 L240.7016,255.0292 L240.0903,256.2226 L239.638,257.427 L239.3301,258.5938 L239.0139,260.7617 L238.914,262.8195 L238.9074,264.9147 L238.9615,269.3144 L238.9551,271.7035 L238.913,274.2085 L238.7565,280.3457 L238.7167,282.3988 L238.6773,285.0034 L238.6464,286.4893 L238.6002,287.8697 L238.531,289.5709 L238.5017,290.6187 L238.5067,292.2197 L238.5493,293.0753 L238.6376,293.9904 L238.799,294.9954 L239.0712,296.0957 L239.4915,297.2686 L240.0847,298.4593 L240.8458,299.5978 L241.7325,300.6205 L242.694,301.4926 L243.6814,302.2187 L244.6402,302.8055 L245.5705,303.2944 L247.604,304.1773 L251.4659,305.4571 L257.9267,307.0161 L261.0106,307.5996 L263.3239,308.1052 L265.5652,308.7741 L266.6078,309.1539 L267.6398,309.5927 L269.1594,310.39 L269.8346,310.8049 L270.3678,311.156 L270.7799,311.4455 L271.0085,311.825 L271.2174,312.2183 L271.7474,313.3128 L272.3731,314.6977 L273.0696,316.2723 L274.4758,319.4229 L275.0892,320.8264 L275.5878,322.0244 L275.9414,322.9573 L276.1585,323.6253 L276.2605,324.0275 L276.2949,324.2364 L276.2058,324.4566 L275.8472,325.2003 L275.1981,326.4371 L274.4555,327.8977 L273.7742,329.3717 L273.1588,330.7433 L272.6075,331.8798 L272.3003,332.4556 L271.9244,333.1208 L270.8893,334.878 L269.7944,336.743 L268.6917,338.7389 L267.7066,340.641 L266.6542,342.7108 L265.9585,344.0262 L265.1837,345.417 L264.462,346.7659 L264.0917,347.5387 L263.8146,348.1844 L263.1715,350.1866 L262.8658,352.6613 L262.9389,354.0337 L263.1975,355.4201 L263.6299,356.7457 L264.1706,357.9103 L265.4899,359.9411 L266.7263,361.4084 L267.9863,362.7238 L270.6618,365.2924 L272.2144,366.7209 L275.7713,369.9516 L278.5234,372.4839 L281.0732,374.9595 L283.8853,377.8972 L285.1288,379.2433 L286.378,380.6121 L287.347,381.6453 L288.3997,382.6762 L289.9541,383.9483 L291.9608,385.1103 L294.5359,385.9265 L295.921,386.1041 L297.2514,386.1261 L298.4844,386.0306 L299.6471,385.8525 L301.4643,385.4234 L303.5969,384.7113 L307.5399,382.8924 L312.5416,380.0407 L316.1381,377.9666 L319.7045,376.0778 L322.3225,374.7841 L323.3763,374.2989 L323.9243,374.0797 L324.1825,373.9961 L324.4766,374.0481 L324.8579,374.1405 L325.4508,374.3088 L326.7567,374.7252 L329.062,375.5444 L332.4668,376.935 L334.6641,377.9575 L335.6183,378.4361 L336.2676,378.7793 L336.8912,379.1391 L337.0535,379.2484 L337.2109,379.5191 L337.5095,380.1476 L337.9839,381.3481 L338.5578,383.0089 L339.2036,385.0176 L340.0831,387.8193 L341.0201,390.6835 L342.327,394.3336 L343.9782,398.684 L345.0469,401.5091 L345.6434,403.0421 L346.2066,404.2742 L347.44,406.3023 L347.8766,406.8501 L348.3773,407.4012 L349.5579,408.4426 L350.8992,409.3054 L352.2873,409.9315 L353.619,410.3429 L354.8675,410.5961 L357.2393,410.8406 L359.6678,410.9186 L360.937,410.9301 L363.8152,410.9331 L366.4512,410.9516 L369.0857,411.0087 L372.6243,411.112 L375.3949,411.1764 L379.6572,411.176 L382.7172,411.1111 L384.6503,411.0496 L386.5718,410.9518 L388.4576,410.7892 L389.4785,410.6542 L391.6015,410.1737 C389.959,414.0675 390.3577,419.0111 392.4121,422.5005 C394.6562,426.8168 400.0286,429.9607 404.8908,429.803 L536.2371,429.803 C541.0993,429.9607 546.4717,426.8168 548.7158,422.5005 C551.2348,418.3388 551.1253,412.1151 548.4614,408.0445 z" stroke="Black" stroke-width="0" fill="#FFFFFF" fill-opacity="1" />
  <path d="M371.8944,342.5271 C356.8093,342.9282 338.6615,336.0822 326.1646,323.5853 C313.6677,311.0883 306.8217,292.9406 307.2227,277.8555 C306.8217,262.7704 313.6677,244.6226 326.1646,232.1257 C338.6615,219.6288 356.8093,212.7828 371.8944,213.1839 C386.9795,212.7828 405.1272,219.6288 417.6241,232.1257 C430.121,244.6226 436.967,262.7704 436.566,277.8555 C436.967,292.9406 430.121,311.0883 417.6241,323.5853 C405.1272,336.0822 386.9795,342.9282 371.8944,342.5271 z M371.8944,308.8911 C379.1336,309.0836 387.8427,305.7982 393.8399,299.801 C399.8371,293.8038 403.1224,285.0948 402.93,277.8555 C403.1224,270.6162 399.8371,261.9072 393.8399,255.91 C387.8427,249.9128 379.1336,246.6274 371.8944,246.8199 C364.6551,246.6274 355.9461,249.9128 349.9489,255.91 C343.9517,261.9072 340.6663,270.6162 340.8588,277.8555 C340.6663,285.0948 343.9517,293.8038 349.9489,299.801 C355.9461,305.7982 364.6551,309.0836 371.8944,308.8911 z" stroke="Black" stroke-width="0" fill="#FFFFFF" fill-opacity="1" />
  <path d="M371.8944,303.1658 C365.9906,303.3228 358.8882,300.6435 353.9973,295.7526 C349.1064,290.8617 346.4271,283.7593 346.584,277.8555 C346.4271,271.9517 349.1064,264.8493 353.9973,259.9584 C358.8882,255.0675 365.9906,252.3882 371.8944,252.5452 C377.7982,252.3882 384.9006,255.0675 389.7915,259.9584 C394.6823,264.8493 397.3617,271.9517 397.2047,277.8555 C397.3617,283.7593 394.6823,290.8617 389.7915,295.7526 C384.9006,300.6435 377.7982,303.3228 371.8944,303.1658 z" stroke="Black" stroke-width="0" fill="#FFFFFF" fill-opacity="1" />
  <path d="M470.3878,405.3231 C467.6228,405.6034 464.4883,402.4689 464.7686,399.7038 C464.4883,396.9388 467.6228,393.8043 470.3878,394.0846 C473.1529,393.8043 476.2874,396.9388 476.007,399.7038 C476.2874,402.4689 473.1529,405.6034 470.3878,405.3231 z" stroke="Black" stroke-width="0" fill="#FFFFFF" fill-opacity="1" />
  <path d="M410.9887,377.9616 L403.0046,391.0705 L404.0699,387.8908 L405.2737,384.7748 L405.8636,383.4409 L406.2146,382.7084 L407.2636,380.8434 L407.7726,380.1323 L408.2494,379.5769 L408.4707,379.3617 L408.7087,379.1601 L409.3447,378.7274 L409.7991,378.4815 L410.3897,378.2064 z" stroke="Black" stroke-width="0" fill="#FFFFFF" fill-opacity="1" />
  <path d="M483.9484,302.122 L482.7883,300.2172 C480.4564,296.1226 475.274,293.211 470.5639,293.3493 C465.8539,293.211 460.6715,296.1226 458.3396,300.2172 L416.3573,369.1471 C411.7425,370.0739 408.7617,370.999 406.6375,372.0611 C404.5132,373.1232 403.2455,374.3224 402.2006,375.6415 C401.1556,376.9605 400.3333,378.3996 399.5281,380.0955 L397.1641,385.9543 L395.0056,392.6696 L393.2925,397.9459 C392.7272,399.5734 392.1104,401.218 391.271,402.1944 C390.4316,403.1709 389.3695,403.4792 387.7421,403.6677 L381.7805,403.976 L374.911,404.0103 L365.9173,403.7876 L357.4717,403.6848 C355.3475,403.5478 354.2511,403.2051 353.4631,402.3657 C352.675,401.5263 352.1954,400.1901 351.5787,398.5455 L349.4887,393.0465 L347.3302,386.9821 L345.0004,379.7186 C344.2466,377.543 343.5614,375.9669 342.7049,374.8535 C341.8483,373.7399 340.8205,373.089 339.3301,372.3009 L333.8653,369.7484 L328.0065,367.6071 C326.2592,367.0589 324.8544,366.7162 323.4326,366.8705 C322.0107,367.0246 320.5717,367.6756 318.7387,368.5664 L312.5544,371.7699 L306.5072,375.2817 C304.6057,376.3781 302.8241,377.3374 301.0938,378.0056 C299.3636,378.6736 297.6848,379.0505 296.4171,378.9649 C295.1494,378.8792 294.2929,378.331 293.4706,377.6115 L290.5926,374.6136 L285.8644,369.6285 L280.9479,364.986 L276.6137,361.0459 L272.5023,357.1058 C271.3374,355.8895 270.5151,354.8617 270.1897,353.8509 C269.8642,352.8402 270.0355,351.8466 270.498,350.7502 L272.588,346.8101 L275.5688,341.0713 L278.8065,335.4695 L280.9308,330.9469 L282.9179,326.9554 C283.3976,325.7391 283.5346,324.677 283.4147,323.5121 C283.2948,322.3472 282.9179,321.0795 282.2327,319.3664 L279.6117,313.3706 C278.6695,311.2463 277.7787,309.1563 276.9564,307.8201 C276.1341,306.4839 275.3803,305.9015 274.3353,305.1991 C273.2903,304.4967 271.9541,303.6745 270.2924,302.9378 C268.6307,302.2012 266.6436,301.5502 264.7592,301.0877 L259.1231,299.9571 L252.8874,298.4153 C250.7803,297.7814 248.7246,297.0276 247.4912,296.154 C246.2578,295.2803 245.8466,294.2867 245.7096,292.8306 C245.5725,291.3745 245.7096,289.4558 245.7781,287.4344 L245.9151,280.325 L246.1207,270.1492 C246.1207,266.7402 245.9837,263.7251 246.1207,261.6866 C246.2578,259.648 246.6689,258.5859 247.731,257.6265 C248.7931,256.6672 250.5062,255.8107 252.4934,255.1254 C254.4806,254.4402 256.7419,253.9263 259.3629,253.2068 L266.9519,250.9455 L271.3374,249.438 C272.7422,248.8555 274.558,247.9989 275.9114,246.7655 C277.2647,245.5321 278.1555,243.9218 278.9778,242.2258 C279.8001,240.5299 280.5539,238.7483 281.2391,236.7268 C281.9243,234.7054 282.541,232.4441 282.8323,230.7481 C283.1235,229.0522 283.0892,227.9215 282.8665,226.7909 C282.6438,225.6602 282.2327,224.5296 281.5303,223.1934 L278.738,218.3796 L275.0377,211.767 C273.633,209.4201 272.0227,207.056 271.1319,205.1031 C270.2411,203.1502 270.0697,201.6084 270.2924,200.2551 C270.5151,198.9017 271.1319,197.7368 272.3653,196.3835 C273.5987,195.0301 275.4489,193.4884 277.3846,191.878 L283.0721,186.9443 C284.8023,185.2998 286.2413,183.6895 287.6632,182.0791 C289.0851,180.4688 290.4898,178.8585 291.8603,177.7108 C293.2307,176.563 294.567,175.8778 295.6805,175.5351 C296.794,175.1925 297.6848,175.1925 298.9525,175.6037 C300.2202,176.0148 301.8647,176.8371 303.8005,177.7108 L310.533,180.7772 L318.1049,184.8201 C320.1948,185.985 321.4625,186.7045 322.4904,187.0643 C323.5182,187.424 324.3062,187.424 325.3512,187.3383 C326.3962,187.2527 327.6982,187.0814 329.24,186.6017 C330.7817,186.1221 332.5634,185.334 334.3621,184.4946 L339.6213,181.9421 C341.2659,181.1198 342.7391,180.3661 343.8012,179.4067 C344.8633,178.4474 345.5143,177.2825 345.9597,176.0662 L347.1246,171.7663 L349.0604,165.2566 L351.0819,158.6783 L352.3153,153.933 C352.7093,152.751 353.189,151.9973 353.6858,151.3977 C354.1826,150.7981 354.6965,150.3527 355.6559,150.0101 C356.6152,149.6674 358.0199,149.4276 359.733,149.342 L366.2942,149.3591 L376.1102,149.4447 L384.984,149.7702 C387.4166,149.9415 389.1982,150.1814 390.3288,150.5925 C391.4595,151.0037 391.9391,151.5861 392.3503,152.5112 L393.7208,156.5712 L395.982,163.4921 C396.7358,166.0789 397.3525,168.7856 398.1234,170.9783 C398.8943,173.1711 399.8194,174.8499 400.556,176.1176 L402.4233,179.0641 C403.0057,179.8864 403.6224,180.6744 404.7188,181.4282 C405.8152,182.1819 407.3912,182.9014 409.0358,183.6552 L413.9524,185.8651 C415.5113,186.5332 416.916,187.0814 418.355,187.3041 C419.794,187.5268 421.2673,187.424 422.9461,187.1156 C424.6249,186.8073 426.5093,186.2934 428.428,185.3512 C430.3467,184.409 432.2996,183.0385 434.8178,181.5995 L442.5268,177.608 C444.6339,176.563 445.7645,175.9805 446.8438,175.7236 C447.923,175.4666 448.9509,175.5351 449.9273,175.8435 C450.9038,176.1519 451.8289,176.7 453.3192,178.0705 L459.572,184.3404 L468.1204,192.7346 L473.3624,198.285 C474.5102,199.6555 475.1954,200.6833 475.2982,202.0024 C475.401,203.3215 474.9213,204.9318 474.0305,206.7134 C473.1397,208.495 471.8378,210.448 470.1418,213.1204 C468.4459,215.7928 466.3559,219.1847 464.934,221.8743 C463.5121,224.5638 462.7584,226.551 462.45,228.3327 C462.1417,230.1143 462.2787,231.6903 462.8098,233.746 C463.3408,235.8017 464.2659,238.3371 465.071,240.1359 C465.8762,241.9346 466.5614,242.9967 467.4351,244.3158 C468.3088,245.6349 469.3709,247.2109 470.5187,248.2559 C471.6665,249.3009 472.8999,249.8148 475.5381,250.6714 L486.0736,253.9091 C489.928,255.0912 493.5941,256.2561 495.8211,257.2668 C498.0481,258.2775 498.8361,259.1341 499.2473,261.7379 C499.6584,264.3419 499.6927,268.6931 499.744,273.4041 L499.8126,286.8347 C499.7612,290.4836 499.5899,292.7107 499.1445,294.2353 C498.6991,295.76 497.9796,296.5822 483.9484,302.122 z M371.8944,349.6837 C388.6488,350.1292 408.8048,342.5255 422.6846,328.6457 C436.5644,314.7659 444.168,294.6099 443.7226,277.8555 C444.168,261.1011 436.5644,240.9451 422.6846,227.0653 C408.8048,213.1855 388.6488,205.5818 371.8944,206.0273 C355.14,205.5818 334.9839,213.1855 321.1042,227.0653 C307.2243,240.9451 299.6207,261.1011 300.0661,277.8555 C299.6207,294.6099 307.2243,314.7659 321.1042,328.6457 C334.9839,342.5255 355.14,350.1292 371.8944,349.6837 z" stroke="Black" stroke-width="0" fill="#FFFFFF" fill-opacity="1" />
  <path d="M475.3512,343.0861 L475.3512,380.1966 C475.59,382.5523 472.9196,385.2227 470.5639,384.9839 C468.2083,385.2227 465.5379,382.5523 465.7767,380.1966 L465.7767,343.0861 C465.5379,340.7304 468.2083,338.06 470.5639,338.2989 C472.9196,338.06 475.59,340.7304 475.3512,343.0861 z" stroke="Black" stroke-width="0" fill="#FFFFFF" fill-opacity="1" />
  <text x="1228.84696197106" y="-642.089332248512" font-family="Arial Unicode MS" font-size="398.280426025391">VOLVER</text>
  <text x="-2567.77421439079" y="-1635.98259495821" font-family="Arial Rounded MT Bold" font-size="97.9727249145508">INICIAR SESIÓN</text>
  <path d="M371.8944,303.1658 C377.7982,303.3228 384.9006,300.6435 389.7915,295.7526 C394.6823,290.8617 397.3617,283.7593 397.2047,277.8555 C397.3617,271.9517 394.6823,264.8493 389.7915,259.9584 C384.9006,255.0675 377.7982,252.3882 371.8944,252.5452 C365.9906,252.3882 358.8882,255.0675 353.9973,259.9584 C349.1064,264.8493 346.4271,271.9517 346.584,277.8555 C346.4271,283.7593 349.1064,290.8617 353.9973,295.7526 C358.8882,300.6435 365.9906,303.3228 371.8944,303.1658 z" stroke="#FFFFFF" stroke-width="0.24" fill="none" />
  <path d="M371.8944,308.8911 C379.1336,309.0836 387.8427,305.7982 393.8399,299.801 C399.8371,293.8038 403.1224,285.0948 402.93,277.8555 C403.1224,270.6162 399.8371,261.9072 393.8399,255.91 C387.8427,249.9128 379.1336,246.6274 371.8944,246.8199 C364.6551,246.6274 355.9461,249.9128 349.9489,255.91 C343.9517,261.9072 340.6663,270.6162 340.8588,277.8555 C340.6663,285.0948 343.9517,293.8038 349.9489,299.801 C355.9461,305.7982 364.6551,309.0836 371.8944,308.8911 z" stroke="#FFFFFF" stroke-width="0.24" fill="none" />
  <path d="M371.8944,342.5271 C386.9795,342.9282 405.1272,336.0822 417.6241,323.5853 C430.121,311.0883 436.967,292.9406 436.566,277.8555 C436.967,262.7704 430.121,244.6226 417.6241,232.1257 C405.1272,219.6288 386.9795,212.7828 371.8944,213.1839 C356.8093,212.7828 338.6615,219.6288 326.1646,232.1257 C313.6677,244.6226 306.8217,262.7704 307.2227,277.8555 C306.8217,292.9406 313.6677,311.0883 326.1646,323.5853 C338.6615,336.0822 356.8093,342.9282 371.8944,342.5271 z" stroke="#FFFFFF" stroke-width="0.24" fill="none" />
  <path d="M371.8944,349.6837 C388.6488,350.1292 408.8048,342.5255 422.6846,328.6457 C436.5644,314.7659 444.168,294.6099 443.7226,277.8555 C444.168,261.1011 436.5644,240.9451 422.6846,227.0653 C408.8048,213.1855 388.6488,205.5818 371.8944,206.0273 C355.14,205.5818 334.9839,213.1855 321.1042,227.0653 C307.2243,240.9451 299.6207,261.1011 300.0661,277.8555 C299.6207,294.6099 307.2243,314.7659 321.1042,328.6457 C334.9839,342.5255 355.14,350.1292 371.8944,349.6837 z" stroke="#FFFFFF" stroke-width="0.24" fill="none" />
  <path d="M470.3878,405.3231 C473.1529,405.6034 476.2874,402.4689 476.007,399.7038 C476.2874,396.9388 473.1529,393.8043 470.3878,394.0846 C467.6228,393.8043 464.4883,396.9388 464.7686,399.7038 C464.4883,402.4689 467.6228,405.6034 470.3878,405.3231 z" stroke="#FFFFFF" stroke-width="0.24" fill="none" />
  <path d="M475.3512,343.0861 C475.59,340.7304 472.9196,338.06 470.5639,338.2989 C468.2083,338.06 465.5379,340.7304 465.7767,343.0861 L465.7767,380.1966 C465.5379,382.5523 468.2083,385.2227 470.5639,384.9839 C472.9196,385.2227 475.59,382.5523 475.3512,380.1966 z" stroke="#FFFFFF" stroke-width="0.24" fill="none" />
  <path d="M483.9484,302.122 C497.9796,296.5822 498.6991,295.76 499.1445,294.2353 C499.5899,292.7107 499.7612,290.4836 499.8126,286.8347 L499.744,273.4041 C499.6927,268.6931 499.6584,264.3419 499.2473,261.7379 C498.8361,259.1341 498.0481,258.2775 495.8211,257.2668 C493.5941,256.2561 489.928,255.0912 486.0736,253.9091 L475.5381,250.6714 C472.8999,249.8148 471.6665,249.3009 470.5187,248.2559 C469.3709,247.2109 468.3088,245.6349 467.4351,244.3158 C466.5614,242.9967 465.8762,241.9346 465.071,240.1359 C464.2659,238.3371 463.3408,235.8017 462.8098,233.746 C462.2787,231.6903 462.1417,230.1143 462.45,228.3327 C462.7584,226.551 463.5121,224.5638 464.934,221.8743 C466.3559,219.1847 468.4459,215.7928 470.1418,213.1204 C471.8378,210.448 473.1397,208.495 474.0305,206.7134 C474.9213,204.9318 475.401,203.3215 475.2982,202.0024 C475.1954,200.6833 474.5102,199.6555 473.3624,198.285 L468.1204,192.7346 L459.572,184.3404 L453.3192,178.0705 C451.8289,176.7 450.9038,176.1519 449.9273,175.8435 C448.9509,175.5351 447.923,175.4666 446.8438,175.7236 C445.7645,175.9805 444.6339,176.563 442.5268,177.608 L434.8178,181.5995 C432.2996,183.0385 430.3467,184.409 428.428,185.3512 C426.5093,186.2934 424.6249,186.8073 422.9461,187.1156 C421.2673,187.424 419.794,187.5268 418.355,187.3041 C416.916,187.0814 415.5113,186.5332 413.9524,185.8651 L409.0358,183.6552 C407.3912,182.9014 405.8152,182.1819 404.7188,181.4282 C403.6224,180.6744 403.0057,179.8864 402.4233,179.0641 L400.556,176.1176 C399.8194,174.8499 398.8943,173.1711 398.1234,170.9783 C397.3525,168.7856 396.7358,166.0789 395.982,163.4921 L393.7208,156.5712 L392.3503,152.5112 C391.9391,151.5861 391.4595,151.0037 390.3288,150.5925 C389.1982,150.1814 387.4166,149.9415 384.984,149.7702 L376.1102,149.4447 L366.2942,149.3591 L359.733,149.342 C358.0199,149.4276 356.6152,149.6674 355.6559,150.0101 C354.6965,150.3527 354.1826,150.7981 353.6858,151.3977 C353.189,151.9973 352.7093,152.751 352.3153,153.933 L351.0819,158.6783 L349.0604,165.2566 L347.1246,171.7663 L345.9597,176.0662 C345.5143,177.2825 344.8633,178.4474 343.8012,179.4067 C342.7391,180.3661 341.2659,181.1198 339.6213,181.9421 L334.3621,184.4946 C332.5634,185.334 330.7817,186.1221 329.24,186.6017 C327.6982,187.0814 326.3962,187.2527 325.3512,187.3383 C324.3062,187.424 323.5182,187.424 322.4904,187.0643 C321.4625,186.7045 320.1948,185.985 318.1049,184.8201 L310.533,180.7772 L303.8005,177.7108 C301.8647,176.8371 300.2202,176.0148 298.9525,175.6037 C297.6848,175.1925 296.794,175.1925 295.6805,175.5351 C294.567,175.8778 293.2307,176.563 291.8603,177.7108 C290.4898,178.8585 289.0851,180.4688 287.6632,182.0791 C286.2413,183.6895 284.8023,185.2998 283.0721,186.9443 L277.3846,191.878 C275.4489,193.4884 273.5987,195.0301 272.3653,196.3835 C271.1319,197.7368 270.5151,198.9017 270.2924,200.2551 C270.0697,201.6084 270.2411,203.1502 271.1319,205.1031 C272.0227,207.056 273.633,209.4201 275.0377,211.767 L278.738,218.3796 L281.5303,223.1934 C282.2327,224.5296 282.6438,225.6602 282.8665,226.7909 C283.0892,227.9215 283.1235,229.0522 282.8323,230.7481 C282.541,232.4441 281.9243,234.7054 281.2391,236.7268 C280.5539,238.7483 279.8001,240.5299 278.9778,242.2258 C278.1555,243.9218 277.2647,245.5321 275.9114,246.7655 C274.558,247.9989 272.7422,248.8555 271.3374,249.438 L266.9519,250.9455 L259.3629,253.2068 C256.7419,253.9263 254.4806,254.4402 252.4934,255.1254 C250.5062,255.8107 248.7931,256.6672 247.731,257.6265 C246.6689,258.5859 246.2578,259.648 246.1207,261.6866 C245.9837,263.7251 246.1207,266.7402 246.1207,270.1492 L245.9151,280.325 L245.7781,287.4344 C245.7096,289.4558 245.5725,291.3745 245.7096,292.8306 C245.8466,294.2867 246.2578,295.2803 247.4912,296.154 C248.7246,297.0276 250.7803,297.7814 252.8874,298.4153 L259.1231,299.9571 L264.7592,301.0877 C266.6436,301.5502 268.6307,302.2012 270.2924,302.9378 C271.9541,303.6745 273.2903,304.4967 274.3353,305.1991 C275.3803,305.9015 276.1341,306.4839 276.9564,307.8201 C277.7787,309.1563 278.6695,311.2463 279.6117,313.3706 L282.2327,319.3664 C282.9179,321.0795 283.2948,322.3472 283.4147,323.5121 C283.5346,324.677 283.3976,325.7391 282.9179,326.9554 L280.9308,330.9469 L278.8065,335.4695 L275.5688,341.0713 L272.588,346.8101 L270.498,350.7502 C270.0355,351.8466 269.8642,352.8402 270.1897,353.8509 C270.5151,354.8617 271.3374,355.8895 272.5023,357.1058 L276.6137,361.0459 L280.9479,364.986 L285.8644,369.6285 L290.5926,374.6136 L293.4706,377.6115 C294.2929,378.331 295.1494,378.8792 296.4171,378.9649 C297.6848,379.0505 299.3636,378.6736 301.0938,378.0056 C302.8241,377.3374 304.6057,376.3781 306.5072,375.2817 L312.5544,371.7699 L318.7387,368.5664 C320.5717,367.6756 322.0107,367.0246 323.4326,366.8705 C324.8544,366.7162 326.2592,367.0589 328.0065,367.6071 L333.8653,369.7484 L339.3301,372.3009 C340.8205,373.089 341.8483,373.7399 342.7049,374.8535 C343.5614,375.9669 344.2466,377.543 345.0004,379.7186 L347.3302,386.9821 L349.4887,393.0465 L351.5787,398.5455 C352.1954,400.1901 352.675,401.5263 353.4631,402.3657 C354.2511,403.2051 355.3475,403.5478 357.4717,403.6848 L365.9173,403.7876 L374.911,404.0103 L381.7805,403.976 L387.7421,403.6677 C389.3695,403.4792 390.4316,403.1709 391.271,402.1944 C392.1104,401.218 392.7272,399.5734 393.2925,397.9459 L395.0056,392.6696 L397.1641,385.9543 L399.5281,380.0955 C400.3333,378.3996 401.1556,376.9605 402.2006,375.6415 C403.2455,374.3224 404.5132,373.1232 406.6375,372.0611 C408.7617,370.999 411.7425,370.0739 416.3573,369.1471 L458.3396,300.2172 C460.6715,296.1226 465.8539,293.211 470.5639,293.3493 C475.274,293.211 480.4564,296.1226 482.7883,300.2172 z" stroke="#FFFFFF" stroke-width="0.24" fill="none" />
  <path d="M403.0046,391.0705 L404.0699,387.8908 L405.2737,384.7748 L405.8636,383.4409 L406.2146,382.7084 L407.2636,380.8434 L407.7726,380.1323 L408.2494,379.5769 L408.4707,379.3617 L408.7087,379.1601 L409.3447,378.7274 L409.7991,378.4815 L410.3897,378.2064 L410.9887,377.9616 z" stroke="#FFFFFF" stroke-width="0.24" fill="none" />
  <path d="M487.7256,308.3237 L491.0648,306.9835 L494.6203,305.5068 L497.5576,304.2071 L499.7256,303.14 L501.5516,302.0709 L503.2878,300.7168 L504.3807,299.5146 L505.0927,298.4471 L505.6067,297.404 L505.9143,296.5681 L506.0068,296.2665 L506.2515,295.3314 L506.6073,293.3263 L506.8568,290.5163 L506.9465,288.1409 L506.9829,285.4208 L506.9615,279.0698 L506.9026,273.519 L506.8529,269.5076 L506.781,266.4752 L506.7204,264.9963 L506.6359,263.574 L506.5198,262.2114 L506.3557,260.8804 L506.1159,259.532 L505.7408,258.1157 L505.3854,257.1405 L504.621,255.6134 L503.5779,254.1608 L502.3504,252.9334 L500.9721,251.9168 L499.7979,251.2412 L498.6942,250.7115 L496.4688,249.8019 L494.048,248.9399 L488.9472,247.3055 L481.2117,244.9484 L478.9557,244.25 L477.3057,243.7191 L476.3311,243.3834 L475.7594,243.1645 L475.425,243.0147 L474.9469,242.5367 L474.5295,242.0008 L473.6216,240.6942 L473.0538,239.8354 L472.3188,238.643 L471.7067,237.441 L471.3433,236.6101 L470.9432,235.6154 L470.1764,233.4475 L469.6898,231.7599 L469.5391,231.0693 L469.4666,230.5749 L469.4479,230.341 L469.4446,230.0262 L469.4786,229.6961 L469.5604,229.2635 L469.9651,227.9851 L470.3465,227.0754 L470.8761,225.9664 L472.4166,223.1357 L474.3793,219.8437 L476.3625,216.6749 L478.381,213.4974 L479.9221,210.8887 L480.6225,209.5247 L481.2484,208.1119 L481.7785,206.6246 L482.0713,205.5647 L482.3777,203.8703 L482.4633,202.0065 L482.3905,201.0118 L482.229,200.0163 L481.6687,198.1447 L480.9015,196.5509 L480.0717,195.2557 L479.2559,194.1843 L478.8592,193.702 L477.1298,191.7395 L474.9003,189.4022 L472.6199,187.1185 L471.0295,185.5568 L467.8054,182.4092 L464.5636,179.2109 L461.2768,175.8753 L460.0093,174.5901 L458.9028,173.5 L457.8295,172.4997 L455.6524,170.7718 L454.4625,170.0389 L453.2097,169.4325 L451.8819,168.9576 L449.3456,168.4639 L447.9974,168.4108 L446.6271,168.5035 L444.5622,168.9258 L442.2629,169.7855 L441.3867,170.1919 L440.3515,170.6987 L436.9993,172.3625 L433.774,174.0131 L432.1128,174.9106 L430.5006,175.8299 L427.6239,177.5798 L426.5736,178.2138 L425.7054,178.7042 L424.7255,179.1795 L423.3458,179.6753 L421.9475,180.0207 L421.1349,180.1633 L420.1472,180.2636 L419.5478,180.2451 L419.3101,180.2065 L418.9819,180.1264 L417.9733,179.7808 L416.1979,179.0388 L412.0176,177.1494 L410.8015,176.5878 L409.8555,176.1321 L409.1402,175.7543 L408.7717,175.5303 L408.2644,174.9295 L407.5901,173.923 L406.7456,172.5255 L405.7744,170.7371 L404.8766,168.6093 L404.4365,167.2271 L403.9564,165.5209 L403.3526,163.2714 L402.757,161.1638 L401.4915,157.2077 L400.7731,155.0926 L400.3376,153.7789 L399.5392,151.2904 L399.0977,150.0898 L398.6839,149.1606 L397.7022,147.512 L396.1051,145.7774 L395.1324,145.044 L394.1263,144.4542 L392.1822,143.6667 L390.4012,143.2202 L388.0935,142.867 L386.2295,142.6868 L384.2142,142.5506 L379.6728,142.3635 L374.6087,142.2673 L367.2724,142.2117 L362.7938,142.1525 L359.4972,142.1871 L356.3542,142.5014 L354.8631,142.7934 L353.3625,143.2301 L351.7665,143.9091 L350.2989,144.812 L349.0773,145.8468 L348.2013,146.8002 L346.7766,148.8471 L345.5625,151.5607 L345.1394,152.9602 L344.7951,154.3294 L344.38,156.0246 L343.9641,157.5551 L343.4298,159.3302 L342.5956,161.9692 L341.8593,164.3011 L341.2073,166.4281 L340.6108,168.4626 L340.1014,170.3349 L339.502,172.7299 L339.2952,173.4463 L339.1961,173.7183 L339.0894,173.9567 L338.8341,174.2232 L338.3282,174.5407 L337.5083,174.9883 L336.4206,175.5407 L331.3355,178.0092 L328.9369,179.0829 L327.9242,179.4871 L327.114,179.7681 L325.8763,180.0686 L324.7665,180.2056 L323.7052,179.739 L322.3678,179.0022 L319.9433,177.6563 L315.2595,175.1465 L312.0013,173.5419 L309.8546,172.5637 L307.7513,171.6355 L305.675,170.6991 L303.9609,169.9114 L302.3459,169.2245 L300.5003,168.5972 L298.3105,168.1846 L297.1215,168.1299 L295.9373,168.198 L293.8112,168.6244 L292.1972,169.1918 L290.3638,170.0801 L288.544,171.2339 L286.7668,172.6533 L285.1945,174.1617 L283.7937,175.6601 L282.3272,177.3095 L279.9922,179.8923 L278.795,181.1224 L277.8283,182.0518 L276.4016,183.3372 L272.8079,186.3762 L269.7416,188.9797 L268.3531,190.2549 L267.0414,191.6005 L265.7753,193.1449 L264.6592,194.9067 L263.7896,196.8832 L263.2555,198.9496 L263.057,200.9211 L263.1659,203.1502 L263.6242,205.3804 L264.3931,207.5565 L265.5197,209.8526 L266.5997,211.7139 L268.6831,215.0887 L270.4865,218.226 L272.4433,221.7879 L273.2948,223.2621 L274.179,224.7509 L274.774,225.764 L275.2021,226.5362 L275.6615,227.5395 L275.7719,227.8711 L275.8409,228.1528 L275.8771,228.3635 L275.8727,228.8368 L275.8006,229.4061 L275.6252,230.3123 L275.3445,231.4834 L274.9846,232.7769 L274.5754,234.0878 L273.8173,236.1938 L272.8624,238.4214 L272.1974,239.7844 L271.7635,240.5731 L271.4142,241.1039 L271.1652,241.4032 L270.4782,241.9096 L269.8068,242.2792 L269.0209,242.646 L268.2187,242.9805 L267.5025,243.2502 L266.7011,243.5217 L265.6466,243.8566 L263.4299,244.5443 L261.6371,245.0924 L257.8521,246.1989 L256.0678,246.6813 L253.9257,247.2426 L250.3304,248.3014 L246.7172,249.794 L244.8534,250.8549 L243.1357,252.1371 L242.2801,252.9511 L241.4487,253.9196 L240.7016,255.0292 L240.0903,256.2226 L239.638,257.427 L239.3301,258.5938 L239.0139,260.7617 L238.914,262.8195 L238.9074,264.9147 L238.9615,269.3144 L238.9551,271.7035 L238.913,274.2085 L238.7565,280.3457 L238.7167,282.3988 L238.6773,285.0034 L238.6464,286.4893 L238.6002,287.8697 L238.531,289.5709 L238.5017,290.6187 L238.5067,292.2197 L238.5493,293.0753 L238.6376,293.9904 L238.799,294.9954 L239.0712,296.0957 L239.4915,297.2686 L240.0847,298.4593 L240.8458,299.5978 L241.7325,300.6205 L242.694,301.4926 L243.6814,302.2187 L244.6402,302.8055 L245.5705,303.2944 L247.604,304.1773 L251.4659,305.4571 L257.9267,307.0161 L261.0106,307.5996 L263.3239,308.1052 L265.5652,308.7741 L266.6078,309.1539 L267.6398,309.5927 L269.1594,310.39 L269.8346,310.8049 L270.3678,311.156 L270.7799,311.4455 L271.0085,311.825 L271.2174,312.2183 L271.7474,313.3128 L272.3731,314.6977 L273.0696,316.2723 L274.4758,319.4229 L275.0892,320.8264 L275.5878,322.0244 L275.9414,322.9573 L276.1585,323.6253 L276.2605,324.0275 L276.2949,324.2364 L276.2058,324.4566 L275.8472,325.2003 L275.1981,326.4371 L274.4555,327.8977 L273.7742,329.3717 L273.1588,330.7433 L272.6075,331.8798 L272.3003,332.4556 L271.9244,333.1208 L270.8893,334.878 L269.7944,336.743 L268.6917,338.7389 L267.7066,340.641 L266.6542,342.7108 L265.9585,344.0262 L265.1837,345.417 L264.462,346.7659 L264.0917,347.5387 L263.8146,348.1844 L263.1715,350.1866 L262.8658,352.6613 L262.9389,354.0337 L263.1975,355.4201 L263.6299,356.7457 L264.1706,357.9103 L265.4899,359.9411 L266.7263,361.4084 L267.9863,362.7238 L270.6618,365.2924 L272.2144,366.7209 L275.7713,369.9516 L278.5234,372.4839 L281.0732,374.9595 L283.8853,377.8972 L285.1288,379.2433 L286.378,380.6121 L287.347,381.6453 L288.3997,382.6762 L289.9541,383.9483 L291.9608,385.1103 L294.5359,385.9265 L295.921,386.1041 L297.2514,386.1261 L298.4844,386.0306 L299.6471,385.8525 L301.4643,385.4234 L303.5969,384.7113 L307.5399,382.8924 L312.5416,380.0407 L316.1381,377.9666 L319.7045,376.0778 L322.3225,374.7841 L323.3763,374.2989 L323.9243,374.0797 L324.1825,373.9961 L324.4766,374.0481 L324.8579,374.1405 L325.4508,374.3088 L326.7567,374.7252 L329.062,375.5444 L332.4668,376.935 L334.6641,377.9575 L335.6183,378.4361 L336.2676,378.7793 L336.8912,379.1391 L337.0535,379.2484 L337.2109,379.5191 L337.5095,380.1476 L337.9839,381.3481 L338.5578,383.0089 L339.2036,385.0176 L340.0831,387.8193 L341.0201,390.6835 L342.327,394.3336 L343.9782,398.684 L345.0469,401.5091 L345.6434,403.0421 L346.2066,404.2742 L347.44,406.3023 L347.8766,406.8501 L348.3773,407.4012 L349.5579,408.4426 L350.8992,409.3054 L352.2873,409.9315 L353.619,410.3429 L354.8675,410.5961 L357.2393,410.8406 L359.6678,410.9186 L360.937,410.9301 L363.8152,410.9331 L366.4512,410.9516 L369.0857,411.0087 L372.6243,411.112 L375.3949,411.1764 L379.6572,411.176 L382.7172,411.1111 L384.6503,411.0496 L386.5718,410.9518 L388.4576,410.7892 L389.4785,410.6542 L391.6015,410.1737 C389.8233,414.3102 390.4201,419.8511 393.0384,423.5141 C395.4669,427.3055 400.3898,429.9176 404.8908,429.803 L536.2371,429.803 C541.0993,429.9607 546.4717,426.8168 548.7158,422.5005 C551.2348,418.3388 551.1253,412.1151 548.4614,408.0445 z" stroke="#FFFFFF" stroke-width="0.24" fill="none" />
  <path d="M383.396,544.1109 C411.8722,544.1472 442.7418,538.9502 472.5302,527.1091 C502.3186,515.268 531.0258,496.7829 554.622,473.1867 C578.2182,449.5905 596.7033,420.8833 608.5444,391.0949 C620.3854,361.3065 625.5825,330.4369 625.5461,301.9607 C625.5825,273.4845 620.3854,242.6149 608.5444,212.8265 C596.7033,183.0381 578.2182,154.3308 554.622,130.7346 C531.0258,107.1385 502.3186,88.65334 472.5302,76.81226 C442.7418,64.97118 411.8722,59.77415 383.396,59.81048 C354.9198,59.77415 324.0502,64.97118 294.2617,76.81226 C264.4734,88.65334 235.7661,107.1385 212.1699,130.7346 C188.5737,154.3308 170.0886,183.0381 158.2475,212.8265 C146.4065,242.6149 141.2094,273.4845 141.2458,301.9607 C141.2094,330.4369 146.4065,361.3065 158.2475,391.0949 C170.0886,420.8833 188.5737,449.5905 212.1699,473.1867 C235.7661,496.7829 264.4734,515.268 294.2617,527.1091 C324.0502,538.9502 354.9198,544.1472 383.396,544.1109 z" stroke="#FFFFFF" stroke-width="0.24" fill="none" />
</svg>