<?xml version="1.0" encoding="UTF-8" standalone="no"?>
<!DOCTYPE svg PUBLIC "-//W3C//DTD SVG 1.1//EN" "http://www.w3.org/Graphics/SVG/1.1/DTD/svg11.dtd">
<svg width="792pt" height="612pt" viewBox="0 0 792 612" overflow="visible" version="1.1" xmlns="http://www.w3.org/2000/svg">
  <path d="M406.4438,343.5453 C390.0777,343.9803 370.3888,336.5529 356.8306,322.9948 C343.2724,309.4366 335.845,289.7477 336.2801,273.3815 C335.845,257.0153 343.2724,237.3264 356.8306,223.7682 C370.3888,210.21 390.0777,202.7826 406.4438,203.2177 C422.81,202.7826 442.499,210.21 456.0571,223.7682 C469.6153,237.3264 477.0427,257.0153 476.6076,273.3815 C477.0427,289.7477 469.6153,309.4366 456.0571,322.9948 C442.499,336.5529 422.81,343.9803 406.4438,343.5453 z M406.4438,307.0527 C414.2979,307.2615 423.7465,303.6972 430.253,297.1907 C436.7595,290.6842 440.3239,281.2355 440.1151,273.3815 C440.3239,265.5274 436.7595,256.0788 430.253,249.5723 C423.7465,243.0658 414.2979,239.5014 406.4438,239.7102 C398.5898,239.5014 389.1412,243.0658 382.6347,249.5723 C376.1282,256.0788 372.5638,265.5274 372.7726,273.3815 C372.5638,281.2355 376.1282,290.6842 382.6347,297.1907 C389.1412,303.6972 398.5898,307.2615 406.4438,307.0527 z" stroke="Black" stroke-width="0" fill="#000000" fill-opacity="1" />
  <path d="M518.6865,344.1517 L518.6865,384.4138 C518.9456,386.9695 516.0485,389.8666 513.4927,389.6075 C510.9371,389.8666 508.0399,386.9695 508.299,384.4138 L508.299,344.1517 C508.0399,341.596 510.9371,338.6988 513.4927,338.9579 C516.0485,338.6988 518.9456,341.596 518.6865,344.1517 z" stroke="Black" stroke-width="0" fill="#000000" fill-opacity="1" />
  <path d="M528.0139,299.7087 L526.7552,297.6422 C524.2253,293.1999 518.6028,290.041 513.4927,290.1911 C508.3828,290.041 502.7602,293.1999 500.2303,297.6422 L454.6827,372.4258 C449.676,373.4314 446.4421,374.435 444.1375,375.5873 C441.8328,376.7397 440.4575,378.0407 439.3237,379.4718 C438.19,380.9029 437.2979,382.4641 436.4243,384.304 C435.5508,386.144 434.6959,388.2628 433.8595,390.6604 L431.5177,397.946 L429.6591,403.6704 C429.0458,405.436 428.3767,407.2203 427.466,408.2797 C426.5553,409.3391 425.403,409.6736 423.6374,409.878 L417.1695,410.2126 L409.7166,410.2498 L399.9591,410.0081 C396.5208,409.971 393.101,410.0453 390.7964,409.8966 C388.4917,409.7479 387.3022,409.3762 386.4473,408.4655 C385.5924,407.5548 385.072,406.1051 384.4029,404.3209 L382.1354,398.3549 L379.7936,391.7755 L377.266,383.8952 C376.4482,381.5348 375.7047,379.8249 374.7755,378.6168 C373.8462,377.4088 372.731,376.7025 371.1141,375.8475 L365.1852,373.0783 L358.8289,370.7551 C356.9332,370.1603 355.4091,369.7886 353.8665,369.9559 C352.3239,370.1231 350.7627,370.8294 348.774,371.7959 L342.0645,375.2714 L335.5038,379.0815 C333.4408,380.271 331.5079,381.3118 329.6307,382.0366 C327.7535,382.7614 325.9321,383.1703 324.5568,383.0774 C323.1815,382.9845 322.2522,382.3897 321.36,381.6091 L318.2376,378.3566 L313.108,372.9482 L307.7739,367.9114 L303.0717,363.6367 L298.6111,359.362 C297.3473,358.0424 296.4552,356.9273 296.102,355.8307 C295.7489,354.7342 295.9348,353.6562 296.4366,352.4667 L298.704,348.192 L301.938,341.9658 L305.4507,335.8882 L307.7553,330.9816 C308.4987,329.4576 309.3908,327.9707 309.9112,326.6511 C310.4316,325.3315 310.5803,324.1792 310.4502,322.9154 C310.3201,321.6515 309.9112,320.2762 309.1678,318.4176 L306.3242,311.9126 C305.302,309.608 304.3355,307.3405 303.4434,305.8908 C302.5513,304.4411 301.7335,303.8092 300.5998,303.0472 C299.466,302.2852 298.0164,301.3931 296.2135,300.5939 C294.4107,299.7947 292.2548,299.0884 290.2104,298.5866 L284.0956,297.36 L277.3304,295.6873 C275.0444,294.9996 272.8141,294.1818 271.4759,293.2339 C270.1378,292.2861 269.6917,291.2081 269.543,289.6283 C269.3943,288.0485 269.543,285.9669 269.6173,283.7738 L269.766,276.0607 L269.9891,265.0208 C269.9891,261.3222 269.8404,258.0511 269.9891,255.8394 C270.1378,253.6277 270.5838,252.4754 271.7361,251.4346 C272.8884,250.3938 274.747,249.4645 276.903,248.7211 C279.0589,247.9777 281.5122,247.4201 284.3558,246.6395 L292.5893,244.1862 L297.3473,242.5506 C298.8713,241.9187 300.8414,240.9894 302.3097,239.6512 C303.7779,238.3131 304.7444,236.566 305.6365,234.726 C306.5286,232.886 307.3464,230.9531 308.0898,228.76 C308.8333,226.5669 309.5023,224.1136 309.8183,222.2736 C310.1342,220.4336 310.0971,219.2069 309.8555,217.9803 C309.6139,216.7536 309.1678,215.527 308.4058,214.0773 L305.3763,208.8547 L301.3618,201.6806 C299.8378,199.1343 298.0907,196.5695 297.1242,194.4507 C296.1578,192.332 295.9719,190.6592 296.2135,189.191 C296.4552,187.7227 297.1242,186.4589 298.4624,184.9906 C299.8006,183.5223 301.8079,181.8496 303.9081,180.1025 L310.0785,174.7498 C311.9557,172.9656 313.5169,171.2186 315.0595,169.4715 C316.6021,167.7244 318.1261,165.9774 319.613,164.7321 C321.0999,163.4869 322.5495,162.7435 323.7576,162.3717 C324.9657,162 325.9321,162 327.3075,162.4461 C328.6828,162.8922 330.4671,163.7843 332.5673,164.7321 L339.8714,168.059 L348.0863,172.4452 C350.3538,173.709 351.7292,174.4896 352.8443,174.8799 C353.9594,175.2702 354.8144,175.2702 355.9481,175.1773 C357.0818,175.0844 358.4944,174.8985 360.1671,174.3781 C361.8398,173.8577 363.7727,173.0028 365.7242,172.0921 L371.43,169.3228 C373.2143,168.4307 374.8126,167.6129 375.9649,166.5721 C377.1173,165.5313 377.8235,164.2675 378.3068,162.9479 C378.79,161.6283 379.0502,160.253 379.5706,158.2829 L381.6708,151.2203 L383.8639,144.0834 L385.2021,138.9351 C385.6295,137.6527 386.1499,136.8349 386.6889,136.1844 C387.2279,135.5339 387.7855,135.0507 388.8263,134.679 C389.8671,134.3073 391.3911,134.0471 393.2497,133.9541 L400.368,133.9727 L411.0176,134.0657 L420.6451,134.4188 C423.2842,134.6046 425.2172,134.8649 426.4438,135.3109 C427.6705,135.757 428.1909,136.3889 428.6369,137.3925 L430.1238,141.7973 L432.5771,149.306 C433.3949,152.1124 434.064,155.049 434.9003,157.4279 C435.7367,159.8069 436.7403,161.6283 437.5395,163.0037 L439.5653,166.2004 C440.1973,167.0925 440.8664,167.9475 442.0558,168.7652 C443.2453,169.583 444.9552,170.3636 446.7394,171.1814 L452.0735,173.5789 C453.7649,174.3038 455.2889,174.8985 456.8501,175.1402 C458.4113,175.3818 460.0097,175.2702 461.8311,174.9357 C463.6525,174.6012 465.6969,174.0436 467.7785,173.0214 C469.8601,171.9992 471.9789,170.5123 474.711,168.9511 C477.4431,167.3899 480.7885,165.7543 483.0746,164.6206 C485.3606,163.4869 486.5873,162.855 487.7582,162.5762 C488.9291,162.2974 490.0442,162.3717 491.1036,162.7063 C492.163,163.0408 493.1666,163.6356 494.7836,165.1224 L501.5674,171.9248 L510.8417,181.0318 C513.5366,183.7082 515.2836,185.5667 516.5289,187.0536 C517.7742,188.5405 518.5176,189.6556 518.6291,191.0867 C518.7406,192.5178 518.2202,194.2649 517.2537,196.1978 C516.2873,198.1307 514.8748,200.2495 513.0348,203.1488 C511.1948,206.0482 508.9273,209.7282 507.3847,212.6462 C505.8421,215.5641 505.0243,217.7201 504.6898,219.653 C504.3552,221.5859 504.5039,223.2958 505.0801,225.5261 C505.6563,227.7564 506.6599,230.5071 507.5334,232.4586 C508.4069,234.4101 509.1504,235.5624 510.0982,236.9935 C511.0461,238.4246 512.1984,240.1345 513.4437,241.2682 C514.6889,242.4019 516.0271,242.9595 518.8893,243.8888 L530.3195,247.4015 C534.5013,248.6839 538.4786,249.9478 540.8948,251.0443 C543.311,252.1409 544.1659,253.0702 544.6119,255.8952 C545.058,258.7202 545.0952,263.441 545.1509,268.5521 L545.2253,283.1233 C545.1695,287.0821 544.9836,289.4982 544.5004,291.1523 C544.0172,292.8065 543.2366,293.6986 528.0139,299.7087 z M406.4438,351.3096 C424.6211,351.7928 446.4888,343.5435 461.5474,328.485 C476.6059,313.4265 484.8552,291.5587 484.372,273.3815 C484.8552,255.2042 476.6059,233.3365 461.5474,218.278 C446.4888,203.2195 424.6211,194.9701 406.4438,195.4534 C388.2666,194.9701 366.3989,203.2195 351.3403,218.278 C336.2818,233.3365 328.0325,255.2042 328.5157,273.3815 C328.0325,291.5587 336.2818,313.4265 351.3403,328.485 C366.3989,343.5435 388.2666,351.7928 406.4438,351.3096 z" stroke="Black" stroke-width="0" fill="#000000" fill-opacity="1" />
  <path d="M406.4438,300.8412 C400.0387,301.0115 392.3331,298.1047 387.0269,292.7985 C381.7206,287.4922 378.8138,279.7867 378.9841,273.3815 C378.8138,266.9763 381.7206,259.2707 387.0269,253.9645 C392.3331,248.6583 400.0387,245.7514 406.4438,245.9217 C412.849,245.7514 420.5546,248.6583 425.8608,253.9645 C431.1671,259.2707 434.0739,266.9763 433.9036,273.3815 C434.0739,279.7867 431.1671,287.4922 425.8608,292.7985 C420.5546,298.1047 412.849,301.0115 406.4438,300.8412 z" stroke="Black" stroke-width="0" fill="#000000" fill-opacity="1" />
  <path d="M418.9222,562.2482 C388.0277,562.2876 354.5366,556.6492 322.2184,543.8026 C289.9003,530.9559 258.7551,510.9009 233.1551,485.3009 C207.555,459.7008 187.5001,428.5557 174.6534,396.2375 C161.8068,363.9194 156.1684,330.4283 156.2078,299.5338 C156.1684,268.6393 161.8068,235.1481 174.6534,202.83 C187.5001,170.5118 207.555,139.3667 233.1551,113.7666 C258.7551,88.16658 289.9003,68.11165 322.2184,55.26499 C354.5366,42.41833 388.0277,36.77995 418.9222,36.81937 C449.8167,36.77995 483.3078,42.41833 515.626,55.26499 C547.9441,68.11165 579.0893,88.16658 604.6893,113.7666 C630.2894,139.3667 650.3443,170.5118 663.191,202.83 C676.0376,235.1481 681.676,268.6393 681.6366,299.5338 C681.676,330.4283 676.0376,363.9194 663.191,396.2375 C650.3443,428.5557 630.2894,459.7008 604.6893,485.3009 C579.0893,510.9009 547.9441,530.9559 515.626,543.8026 C483.3078,556.6492 449.8167,562.2876 418.9222,562.2482 z M532.1119,306.4371 L535.7346,304.9831 L539.5921,303.381 L542.7788,301.971 L545.1309,300.8133 L547.112,299.6534 L548.9956,298.1842 L550.1813,296.8799 L550.9538,295.7219 L551.5115,294.5901 L551.8452,293.6833 L551.9456,293.3561 L552.211,292.3415 L552.597,290.1661 L552.8678,287.1175 L552.965,284.5404 L553.0046,281.5892 L552.9813,274.6989 L552.9174,268.6767 L552.8635,264.3247 L552.7855,261.0347 L552.7197,259.4302 L552.6281,257.8871 L552.5021,256.4088 L552.3241,254.9648 L552.0639,253.502 L551.657,251.9653 L551.2714,250.9073 L550.442,249.2505 L549.3104,247.6746 L547.9786,246.3429 L546.4833,245.2399 L545.2093,244.507 L544.012,243.9324 L541.5976,242.9454 L538.9712,242.0103 L533.4372,240.2371 L525.0447,237.6798 L522.5972,236.9221 L520.8071,236.3461 L519.7496,235.9819 L519.1295,235.7444 L518.7667,235.5818 L518.2479,235.0633 L517.7951,234.4819 L516.8101,233.0643 L516.194,232.1326 L515.3966,230.8389 L514.7325,229.5348 L514.3383,228.6334 L513.9042,227.5542 L513.0723,225.2022 L512.5444,223.3712 L512.3809,222.622 L512.3023,222.0857 L512.282,221.8319 L512.2784,221.4903 L512.3152,221.1322 L512.404,220.6629 L512.843,219.2759 L513.2568,218.289 L513.8314,217.0858 L515.5027,214.0147 L517.6321,210.4431 L519.7838,207.0052 L521.9737,203.5579 L523.6456,200.7277 L524.4055,199.2478 L525.0846,197.715 L525.6597,196.1014 L525.9774,194.9515 L526.3098,193.1132 L526.4027,191.0912 L526.3237,190.012 L526.1485,188.932 L525.5405,186.9014 L524.7082,185.1723 L523.808,183.767 L522.9229,182.6046 L522.4924,182.0814 L520.6162,179.9523 L518.1974,177.4164 L515.7233,174.9388 L513.9979,173.2445 L510.4999,169.8296 L506.9828,166.3596 L503.4169,162.7408 L502.0418,161.3465 L500.8413,160.1638 L499.6769,159.0785 L497.3148,157.2039 L496.0239,156.4087 L494.6647,155.7509 L493.2242,155.2356 L490.4725,154.7 L489.0098,154.6423 L487.5232,154.743 L485.2829,155.2012 L482.7883,156.1338 L481.8376,156.5748 L480.7145,157.1245 L477.0777,158.9297 L473.5785,160.7205 L471.7762,161.6942 L470.0271,162.6915 L466.9061,164.5901 L465.7666,165.2778 L464.8247,165.8099 L463.7616,166.3256 L462.2647,166.8635 L460.7477,167.2382 L459.866,167.393 L458.7945,167.5018 L458.1442,167.4817 L457.8862,167.4398 L457.5302,167.3529 L456.4359,166.978 L454.5098,166.1729 L449.9745,164.1231 L448.6552,163.5138 L447.6287,163.0194 L446.8527,162.6095 L446.4529,162.3665 L446.1776,162.0883 L445.9025,161.7146 L445.1711,160.6227 L444.2548,159.1065 L443.201,157.1662 L442.2271,154.8577 L441.7495,153.3581 L441.2286,151.507 L440.5736,149.0665 L439.9275,146.7799 L438.5544,142.4878 L437.775,140.1932 L437.3025,138.7679 L436.4363,136.0681 L435.9573,134.7655 L435.5085,133.7573 L434.4434,131.9688 L432.7107,130.0868 L431.6554,129.2912 L430.5638,128.6513 L428.4546,127.7969 L426.5224,127.3125 L424.0187,126.9293 L421.9964,126.7338 L419.8099,126.586 L414.8829,126.3831 L409.3886,126.2787 L401.4294,126.2184 L396.5705,126.1542 L392.9939,126.1917 L389.584,126.5327 L387.9662,126.8494 L386.3381,127.3232 L384.6067,128.06 L383.0144,129.0395 L381.6891,130.1622 L380.7387,131.1965 L379.1929,133.4173 L377.8758,136.3613 L377.4167,137.8796 L377.0432,139.3652 L376.5928,141.2044 L376.1416,142.8648 L375.562,144.7906 L374.657,147.6537 L373.858,150.1837 L373.1508,152.4913 L372.5035,154.6986 L371.951,156.7298 L371.3005,159.3283 L371.0762,160.1055 L370.9687,160.4007 L370.853,160.6592 L370.576,160.9484 L370.0272,161.2929 L369.1376,161.7784 L367.9575,162.3778 L362.4406,165.0559 L359.8383,166.2207 L358.7396,166.6593 L357.8605,166.9642 L356.5177,167.2902 L355.3138,167.4389 L354.1623,166.9327 L352.7113,166.1332 L350.0809,164.673 L344.9993,161.9501 L341.4644,160.2093 L339.1354,159.1479 L336.8535,158.1409 L334.601,157.1251 L332.7413,156.2704 L330.9891,155.5252 L328.9868,154.8447 L326.6109,154.3969 L325.321,154.3376 L324.0362,154.4115 L321.7296,154.8742 L319.9785,155.4897 L317.9894,156.4535 L316.0151,157.7052 L314.087,159.2452 L312.3811,160.8817 L310.8614,162.5073 L309.2703,164.2968 L306.737,167.0989 L305.4382,168.4335 L304.3894,169.4419 L302.8415,170.8364 L298.9426,174.1335 L295.6159,176.9581 L294.1095,178.3416 L292.6863,179.8015 L291.3128,181.477 L290.1019,183.3884 L289.1585,185.5327 L288.5789,187.7747 L288.3636,189.9136 L288.4818,192.332 L288.979,194.7516 L289.8132,197.1125 L291.0355,199.6035 L292.2072,201.623 L294.4676,205.2843 L296.4241,208.688 L298.5471,212.5525 L299.4709,214.1519 L300.4302,215.767 L301.0757,216.8663 L301.5402,217.7039 L302.0385,218.7925 L302.1583,219.1522 L302.2332,219.4579 L302.2725,219.6865 L302.2677,220.1999 L302.1895,220.8176 L301.9992,221.8007 L301.6946,223.0713 L301.3041,224.4746 L300.8603,225.8969 L300.0378,228.1817 L299.0018,230.5985 L298.2803,232.0773 L297.8096,232.933 L297.4306,233.5088 L297.1604,233.8335 L296.4151,234.3829 L295.6867,234.7839 L294.834,235.1819 L293.9637,235.5448 L293.1866,235.8374 L292.3172,236.132 L291.1731,236.4953 L288.7682,237.2414 L286.8232,237.836 L282.7167,239.0365 L280.7809,239.5598 L278.4569,240.1688 L274.5563,241.3176 L270.6362,242.937 L268.6142,244.088 L266.7505,245.479 L265.8223,246.3621 L264.9203,247.4129 L264.1097,248.6167 L263.4465,249.9114 L262.9559,251.2181 L262.6218,252.484 L262.2787,254.836 L262.1704,257.0686 L262.1631,259.3418 L262.2219,264.1151 L262.2149,266.7071 L262.1692,269.4248 L261.9995,276.0831 L261.9563,278.3106 L261.9135,281.1364 L261.8801,282.7485 L261.8299,284.2462 L261.7549,286.0918 L261.723,287.2285 L261.7285,288.9655 L261.7747,289.8938 L261.8705,290.8866 L262.0455,291.977 L262.3409,293.1707 L262.7969,294.4432 L263.4405,295.735 L264.2662,296.9702 L265.2282,298.0797 L266.2714,299.0259 L267.3426,299.8137 L268.3828,300.4503 L269.3921,300.9808 L271.5983,301.9386 L275.7882,303.3271 L282.7976,305.0185 L286.1434,305.6515 L288.6532,306.2 L291.0849,306.9258 L292.2161,307.3379 L293.3356,307.8139 L294.9842,308.6789 L295.7168,309.1291 L296.2953,309.51 L296.7424,309.8241 L296.9904,310.2358 L297.2171,310.6624 L297.7921,311.8499 L298.4709,313.3524 L299.2266,315.0608 L300.7521,318.4789 L301.4177,320.0017 L301.9586,321.3013 L302.3422,322.3134 L302.5778,323.0382 L302.6884,323.4745 L302.7257,323.7012 L302.6291,323.9401 L302.2401,324.747 L301.5358,326.0888 L300.7301,327.6734 L299.991,329.2726 L299.3234,330.7607 L298.7253,331.9937 L298.3919,332.6184 L297.9841,333.3401 L296.8611,335.2466 L295.6732,337.2699 L294.4769,339.4353 L293.4081,341.4989 L292.2663,343.7446 L291.5115,345.1715 L290.671,346.6805 L289.888,348.144 L289.4863,348.9824 L289.1856,349.6829 L288.4879,351.8551 L288.1562,354.5401 L288.2355,356.029 L288.5161,357.5332 L288.9852,358.9713 L289.5718,360.2348 L291.0031,362.4381 L292.3445,364.0299 L293.7115,365.4571 L296.6142,368.2438 L298.2987,369.7937 L302.1577,373.2987 L305.1435,376.046 L307.9098,378.7319 L310.9608,381.919 L312.3099,383.3795 L313.6651,384.8645 L314.7165,385.9854 L315.8586,387.1039 L317.545,388.4841 L319.722,389.7448 L322.5158,390.6302 L324.0186,390.8229 L325.462,390.8468 L326.7997,390.7432 L328.0611,390.5499 L330.0326,390.0844 L332.3463,389.3118 L336.6242,387.3384 L342.0506,384.2446 L345.9526,381.9943 L349.8219,379.9451 L352.6621,378.5416 L353.8055,378.0152 L354.4,377.7774 L354.6802,377.6866 L354.9992,377.743 L355.4129,377.8434 L356.0562,378.0259 L357.4729,378.4777 L359.974,379.3665 L363.668,380.8752 L366.0518,381.9845 L367.0872,382.5037 L367.7915,382.8761 L368.4681,383.2664 L368.6441,383.3851 L368.815,383.6787 L369.1389,384.3605 L369.6536,385.663 L370.2762,387.4648 L370.9769,389.6441 L371.9311,392.6837 L372.9476,395.7913 L374.3655,399.7512 L376.1569,404.4711 L377.3164,407.5362 L377.9635,409.1994 L378.5745,410.5361 L379.9127,412.7364 L380.3864,413.3307 L380.9296,413.9287 L382.2104,415.0585 L383.6657,415.9946 L385.1717,416.6738 L386.6165,417.1202 L387.971,417.3948 L390.5442,417.6601 L393.179,417.7447 L394.5559,417.7573 L397.6786,417.7604 L400.5384,417.7805 L403.3967,417.8425 L407.2357,417.9546 L410.2417,418.0244 L414.866,418.024 L418.1858,417.9536 L420.2831,417.8869 L422.3677,417.7807 L424.4137,417.6044 L425.5212,417.4579 L427.8245,416.9366 C426.0426,421.1611 426.4751,426.5245 428.704,430.3103 C431.1387,434.9931 436.9673,438.404 442.2425,438.2329 L584.743,438.2329 C590.0182,438.404 595.8469,434.9931 598.2815,430.3103 C601.0145,425.7951 600.8957,419.0428 598.0056,414.6265 z" stroke="Black" stroke-width="0" fill="#000000" fill-opacity="1" />
  <path d="M448.8582,381.9889 L440.1961,396.2111 L441.3518,392.7613 L442.6579,389.3808 L443.2979,387.9336 L443.6786,387.1388 L444.8167,385.1154 L445.369,384.344 L445.8862,383.7414 L446.1264,383.5079 L446.3846,383.2892 L447.0746,382.8198 L447.5676,382.553 L448.2083,382.2545 z" stroke="Black" stroke-width="0" fill="#000000" fill-opacity="1" />
  <path d="M513.3017,411.674 C510.3018,411.9781 506.9012,408.5775 507.2053,405.5776 C506.9012,402.5777 510.3018,399.1771 513.3017,399.4812 C516.3015,399.1771 519.7022,402.5777 519.3981,405.5776 C519.7022,408.5775 516.3015,411.9781 513.3017,411.674 z" stroke="Black" stroke-width="0" fill="#000000" fill-opacity="1" />
  <text x="-2782.87112085206" y="-630.477198373116" font-family="Arial Rounded MT Bold" font-size="106.292900085449">INICIAR SESIÓN</text>
  <path d="M406.4438,300.8412 C412.849,301.0115 420.5546,298.1047 425.8608,292.7985 C431.1671,287.4922 434.0739,279.7867 433.9036,273.3815 C434.0739,266.9763 431.1671,259.2707 425.8608,253.9645 C420.5546,248.6583 412.849,245.7514 406.4438,245.9217 C400.0387,245.7514 392.3331,248.6583 387.0269,253.9645 C381.7206,259.2707 378.8138,266.9763 378.9841,273.3815 C378.8138,279.7867 381.7206,287.4922 387.0269,292.7985 C392.3331,298.1047 400.0387,301.0115 406.4438,300.8412 z" stroke="#000000" stroke-width="0.24" fill="none" />
  <path d="M406.4438,307.0527 C414.2979,307.2615 423.7465,303.6972 430.253,297.1907 C436.7595,290.6842 440.3239,281.2355 440.1151,273.3815 C440.3239,265.5274 436.7595,256.0788 430.253,249.5723 C423.7465,243.0658 414.2979,239.5014 406.4438,239.7102 C398.5898,239.5014 389.1412,243.0658 382.6347,249.5723 C376.1282,256.0788 372.5638,265.5274 372.7726,273.3815 C372.5638,281.2355 376.1282,290.6842 382.6347,297.1907 C389.1412,303.6972 398.5898,307.2615 406.4438,307.0527 z" stroke="#000000" stroke-width="0.24" fill="none" />
  <path d="M406.4438,343.5453 C422.81,343.9803 442.499,336.5529 456.0571,322.9948 C469.6153,309.4366 477.0427,289.7477 476.6076,273.3815 C477.0427,257.0153 469.6153,237.3264 456.0571,223.7682 C442.499,210.21 422.81,202.7826 406.4438,203.2177 C390.0777,202.7826 370.3888,210.21 356.8306,223.7682 C343.2724,237.3264 335.845,257.0153 336.2801,273.3815 C335.845,289.7477 343.2724,309.4366 356.8306,322.9948 C370.3888,336.5529 390.0777,343.9803 406.4438,343.5453 z" stroke="#000000" stroke-width="0.24" fill="none" />
  <path d="M406.4438,351.3096 C424.6211,351.7928 446.4888,343.5435 461.5474,328.485 C476.6059,313.4265 484.8552,291.5587 484.372,273.3815 C484.8552,255.2042 476.6059,233.3365 461.5474,218.278 C446.4888,203.2195 424.6211,194.9701 406.4438,195.4534 C388.2666,194.9701 366.3989,203.2195 351.3403,218.278 C336.2818,233.3365 328.0325,255.2042 328.5157,273.3815 C328.0325,291.5587 336.2818,313.4265 351.3403,328.485 C366.3989,343.5435 388.2666,351.7928 406.4438,351.3096 z" stroke="#000000" stroke-width="0.24" fill="none" />
  <path d="M513.3017,411.674 C516.3015,411.9781 519.7022,408.5775 519.3981,405.5776 C519.7022,402.5777 516.3015,399.1771 513.3017,399.4812 C510.3018,399.1771 506.9012,402.5777 507.2053,405.5776 C506.9012,408.5775 510.3018,411.9781 513.3017,411.674 z" stroke="#000000" stroke-width="0.24" fill="none" />
  <path d="M518.6865,344.1517 C518.9456,341.596 516.0485,338.6988 513.4927,338.9579 C510.9371,338.6988 508.0399,341.596 508.299,344.1517 L508.299,384.4138 C508.0399,386.9695 510.9371,389.8666 513.4927,389.6075 C516.0485,389.8666 518.9456,386.9695 518.6865,384.4138 z" stroke="#000000" stroke-width="0.24" fill="none" />
  <path d="M528.0139,299.7087 C543.2366,293.6986 544.0172,292.8065 544.5004,291.1523 C544.9836,289.4982 545.1695,287.0821 545.2253,283.1233 L545.1509,268.5521 C545.0952,263.441 545.058,258.7202 544.6119,255.8952 C544.1659,253.0702 543.311,252.1409 540.8948,251.0443 C538.4786,249.9478 534.5013,248.6839 530.3195,247.4015 L518.8893,243.8888 C516.0271,242.9595 514.6889,242.4019 513.4437,241.2682 C512.1984,240.1345 511.0461,238.4246 510.0982,236.9935 C509.1504,235.5624 508.4069,234.4101 507.5334,232.4586 C506.6599,230.5071 505.6563,227.7564 505.0801,225.5261 C504.5039,223.2958 504.3552,221.5859 504.6898,219.653 C505.0243,217.7201 505.8421,215.5641 507.3847,212.6462 C508.9273,209.7282 511.1948,206.0482 513.0348,203.1488 C514.8748,200.2495 516.2873,198.1307 517.2537,196.1978 C518.2202,194.2649 518.7406,192.5178 518.6291,191.0867 C518.5176,189.6556 517.7742,188.5405 516.5289,187.0536 C515.2836,185.5667 513.5366,183.7082 510.8417,181.0318 L501.5674,171.9248 L494.7836,165.1224 C493.1666,163.6356 492.163,163.0408 491.1036,162.7063 C490.0442,162.3717 488.9291,162.2974 487.7582,162.5762 C486.5873,162.855 485.3606,163.4869 483.0746,164.6206 C480.7885,165.7543 477.4431,167.3899 474.711,168.9511 C471.9789,170.5123 469.8601,171.9992 467.7785,173.0214 C465.6969,174.0436 463.6525,174.6012 461.8311,174.9357 C460.0097,175.2702 458.4113,175.3818 456.8501,175.1402 C455.2889,174.8985 453.7649,174.3038 452.0735,173.5789 L446.7394,171.1814 C444.9552,170.3636 443.2453,169.583 442.0558,168.7652 C440.8664,167.9475 440.1973,167.0925 439.5653,166.2004 L437.5395,163.0037 C436.7403,161.6283 435.7367,159.8069 434.9003,157.4279 C434.064,155.049 433.3949,152.1124 432.5771,149.306 L430.1238,141.7973 L428.6369,137.3925 C428.1909,136.3889 427.6705,135.757 426.4438,135.3109 C425.2172,134.8649 423.2842,134.6046 420.6451,134.4188 L411.0176,134.0657 L400.368,133.9727 L393.2497,133.9541 C391.3911,134.0471 389.8671,134.3073 388.8263,134.679 C387.7855,135.0507 387.2279,135.5339 386.6889,136.1844 C386.1499,136.8349 385.6295,137.6527 385.2021,138.9351 L383.8639,144.0834 L381.6708,151.2203 L379.5706,158.2829 C379.0502,160.253 378.79,161.6283 378.3068,162.9479 C377.8235,164.2675 377.1173,165.5313 375.9649,166.5721 C374.8126,167.6129 373.2143,168.4307 371.43,169.3228 L365.7242,172.0921 C363.7727,173.0028 361.8398,173.8577 360.1671,174.3781 C358.4944,174.8985 357.0818,175.0844 355.9481,175.1773 C354.8144,175.2702 353.9594,175.2702 352.8443,174.8799 C351.7292,174.4896 350.3538,173.709 348.0863,172.4452 L339.8714,168.059 L332.5673,164.7321 C330.4671,163.7843 328.6828,162.8922 327.3075,162.4461 C325.9321,162 324.9657,162 323.7576,162.3717 C322.5495,162.7435 321.0999,163.4869 319.613,164.7321 C318.1261,165.9774 316.6021,167.7244 315.0595,169.4715 C313.5169,171.2186 311.9557,172.9656 310.0785,174.7498 L303.9081,180.1025 C301.8079,181.8496 299.8006,183.5223 298.4624,184.9906 C297.1242,186.4589 296.4552,187.7227 296.2135,189.191 C295.9719,190.6592 296.1578,192.332 297.1242,194.4507 C298.0907,196.5695 299.8378,199.1343 301.3618,201.6806 L305.3763,208.8547 L308.4058,214.0773 C309.1678,215.527 309.6139,216.7536 309.8555,217.9803 C310.0971,219.2069 310.1342,220.4336 309.8183,222.2736 C309.5023,224.1136 308.8333,226.5669 308.0898,228.76 C307.3464,230.9531 306.5286,232.886 305.6365,234.726 C304.7444,236.566 303.7779,238.3131 302.3097,239.6512 C300.8414,240.9894 298.8713,241.9187 297.3473,242.5506 L292.5893,244.1862 L284.3558,246.6395 C281.5122,247.4201 279.0589,247.9777 276.903,248.7211 C274.747,249.4645 272.8884,250.3938 271.7361,251.4346 C270.5838,252.4754 270.1378,253.6277 269.9891,255.8394 C269.8404,258.0511 269.9891,261.3222 269.9891,265.0208 L269.766,276.0607 L269.6173,283.7738 C269.543,285.9669 269.3943,288.0485 269.543,289.6283 C269.6917,291.2081 270.1378,292.2861 271.4759,293.2339 C272.8141,294.1818 275.0444,294.9996 277.3304,295.6873 L284.0956,297.36 L290.2104,298.5866 C292.2548,299.0884 294.4107,299.7947 296.2135,300.5939 C298.0164,301.3931 299.466,302.2852 300.5998,303.0472 C301.7335,303.8092 302.5513,304.4411 303.4434,305.8908 C304.3355,307.3405 305.302,309.608 306.3242,311.9126 L309.1678,318.4176 C309.9112,320.2762 310.3201,321.6515 310.4502,322.9154 C310.5803,324.1792 310.4316,325.3315 309.9112,326.6511 C309.3908,327.9707 308.4987,329.4576 307.7553,330.9816 L305.4507,335.8882 L301.938,341.9658 L298.704,348.192 L296.4366,352.4667 C295.9348,353.6562 295.7489,354.7342 296.102,355.8307 C296.4552,356.9273 297.3473,358.0424 298.6111,359.362 L303.0717,363.6367 L307.7739,367.9114 L313.108,372.9482 L318.2376,378.3566 L321.36,381.6091 C322.2522,382.3897 323.1815,382.9845 324.5568,383.0774 C325.9321,383.1703 327.7535,382.7614 329.6307,382.0366 C331.5079,381.3118 333.4408,380.271 335.5038,379.0815 L342.0645,375.2714 L348.774,371.7959 C350.7627,370.8294 352.3239,370.1231 353.8665,369.9559 C355.4091,369.7886 356.9332,370.1603 358.8289,370.7551 L365.1852,373.0783 L371.1141,375.8475 C372.731,376.7025 373.8462,377.4088 374.7755,378.6168 C375.7047,379.8249 376.4482,381.5348 377.266,383.8952 L379.7936,391.7755 L382.1354,398.3549 L384.4029,404.3209 C385.072,406.1051 385.5924,407.5548 386.4473,408.4655 C387.3022,409.3762 388.4917,409.7479 390.7964,409.8966 C393.101,410.0453 396.5208,409.971 399.9591,410.0081 L409.7166,410.2498 L417.1695,410.2126 L423.6374,409.878 C425.403,409.6736 426.5553,409.3391 427.466,408.2797 C428.3767,407.2203 429.0458,405.436 429.6591,403.6704 L431.5177,397.946 L433.8595,390.6604 C434.6959,388.2628 435.5508,386.144 436.4243,384.304 C437.2979,382.4641 438.19,380.9029 439.3237,379.4718 C440.4575,378.0407 441.8328,376.7397 444.1375,375.5873 C446.4421,374.435 449.676,373.4314 454.6827,372.4258 L500.2303,297.6422 C502.7602,293.1999 508.3828,290.041 513.4927,290.1911 C518.6028,290.041 524.2253,293.1999 526.7552,297.6422 z" stroke="#000000" stroke-width="0.24" fill="none" />
  <path d="M440.1961,396.2111 L441.3518,392.7613 L442.6579,389.3808 L443.2979,387.9336 L443.6786,387.1388 L444.8167,385.1154 L445.369,384.344 L445.8862,383.7414 L446.1264,383.5079 L446.3846,383.2892 L447.0746,382.8198 L447.5676,382.553 L448.2083,382.2545 L448.8582,381.9889 z" stroke="#000000" stroke-width="0.24" fill="none" />
  <path d="M532.1119,306.4371 L535.7346,304.9831 L539.5921,303.381 L542.7788,301.971 L545.1309,300.8133 L547.112,299.6534 L548.9956,298.1842 L550.1813,296.8799 L550.9538,295.7219 L551.5115,294.5901 L551.8452,293.6833 L551.9456,293.3561 L552.211,292.3415 L552.597,290.1661 L552.8678,287.1175 L552.965,284.5404 L553.0046,281.5892 L552.9813,274.6989 L552.9174,268.6767 L552.8635,264.3247 L552.7855,261.0347 L552.7197,259.4302 L552.6281,257.8871 L552.5021,256.4088 L552.3241,254.9648 L552.0639,253.502 L551.657,251.9653 L551.2714,250.9073 L550.442,249.2505 L549.3104,247.6746 L547.9786,246.3429 L546.4833,245.2399 L545.2093,244.507 L544.012,243.9324 L541.5976,242.9454 L538.9712,242.0103 L533.4372,240.2371 L525.0447,237.6798 L522.5972,236.9221 L520.8071,236.3461 L519.7496,235.9819 L519.1295,235.7444 L518.7667,235.5818 L518.2479,235.0633 L517.7951,234.4819 L516.8101,233.0643 L516.194,232.1326 L515.3966,230.8389 L514.7325,229.5348 L514.3383,228.6334 L513.9042,227.5542 L513.0723,225.2022 L512.5444,223.3712 L512.3809,222.622 L512.3023,222.0857 L512.282,221.8319 L512.2784,221.4903 L512.3152,221.1322 L512.404,220.6629 L512.843,219.2759 L513.2568,218.289 L513.8314,217.0858 L515.5027,214.0147 L517.6321,210.4431 L519.7838,207.0052 L521.9737,203.5579 L523.6456,200.7277 L524.4055,199.2478 L525.0846,197.715 L525.6597,196.1014 L525.9774,194.9515 L526.3098,193.1132 L526.4027,191.0912 L526.3237,190.012 L526.1485,188.932 L525.5405,186.9014 L524.7082,185.1723 L523.808,183.767 L522.9229,182.6046 L522.4924,182.0814 L520.6162,179.9523 L518.1974,177.4164 L515.7233,174.9388 L513.9979,173.2445 L510.4999,169.8296 L506.9828,166.3596 L503.4169,162.7408 L502.0418,161.3465 L500.8413,160.1638 L499.6769,159.0785 L497.3148,157.2039 L496.0239,156.4087 L494.6647,155.7509 L493.2242,155.2356 L490.4725,154.7 L489.0098,154.6423 L487.5232,154.743 L485.2829,155.2012 L482.7883,156.1338 L481.8376,156.5748 L480.7145,157.1245 L477.0777,158.9297 L473.5785,160.7205 L471.7762,161.6942 L470.0271,162.6915 L466.9061,164.5901 L465.7666,165.2778 L464.8247,165.8099 L463.7616,166.3256 L462.2647,166.8635 L460.7477,167.2382 L459.866,167.393 L458.7945,167.5018 L458.1442,167.4817 L457.8862,167.4398 L457.5302,167.3529 L456.4359,166.978 L454.5098,166.1729 L449.9745,164.1231 L448.6552,163.5138 L447.6287,163.0194 L446.8527,162.6095 L446.4529,162.3665 L446.1776,162.0883 L445.9025,161.7146 L445.1711,160.6227 L444.2548,159.1065 L443.201,157.1662 L442.2271,154.8577 L441.7495,153.3581 L441.2286,151.507 L440.5736,149.0665 L439.9275,146.7799 L438.5544,142.4878 L437.775,140.1932 L437.3025,138.7679 L436.4363,136.0681 L435.9573,134.7655 L435.5085,133.7573 L434.4434,131.9688 L432.7107,130.0868 L431.6554,129.2912 L430.5638,128.6513 L428.4546,127.7969 L426.5224,127.3125 L424.0187,126.9293 L421.9964,126.7338 L419.8099,126.586 L414.8829,126.3831 L409.3886,126.2787 L401.4294,126.2184 L396.5705,126.1542 L392.9939,126.1917 L389.584,126.5327 L387.9662,126.8494 L386.3381,127.3232 L384.6067,128.06 L383.0144,129.0395 L381.6891,130.1622 L380.7387,131.1965 L379.1929,133.4173 L377.8758,136.3613 L377.4167,137.8796 L377.0432,139.3652 L376.5928,141.2044 L376.1416,142.8648 L375.562,144.7906 L374.657,147.6537 L373.858,150.1837 L373.1508,152.4913 L372.5035,154.6986 L371.951,156.7298 L371.3005,159.3283 L371.0762,160.1055 L370.9687,160.4007 L370.853,160.6592 L370.576,160.9484 L370.0272,161.2929 L369.1376,161.7784 L367.9575,162.3778 L362.4406,165.0559 L359.8383,166.2207 L358.7396,166.6593 L357.8605,166.9642 L356.5177,167.2902 L355.3138,167.4389 L354.1623,166.9327 L352.7113,166.1332 L350.0809,164.673 L344.9993,161.9501 L341.4644,160.2093 L339.1354,159.1479 L336.8535,158.1409 L334.601,157.1251 L332.7413,156.2704 L330.9891,155.5252 L328.9868,154.8447 L326.6109,154.3969 L325.321,154.3376 L324.0362,154.4115 L321.7296,154.8742 L319.9785,155.4897 L317.9894,156.4535 L316.0151,157.7052 L314.087,159.2452 L312.3811,160.8817 L310.8614,162.5073 L309.2703,164.2968 L306.737,167.0989 L305.4382,168.4335 L304.3894,169.4419 L302.8415,170.8364 L298.9426,174.1335 L295.6159,176.9581 L294.1095,178.3416 L292.6863,179.8015 L291.3128,181.477 L290.1019,183.3884 L289.1585,185.5327 L288.5789,187.7747 L288.3636,189.9136 L288.4818,192.332 L288.979,194.7516 L289.8132,197.1125 L291.0355,199.6035 L292.2072,201.623 L294.4676,205.2843 L296.4241,208.688 L298.5471,212.5525 L299.4709,214.1519 L300.4302,215.767 L301.0757,216.8663 L301.5402,217.7039 L302.0385,218.7925 L302.1583,219.1522 L302.2332,219.4579 L302.2725,219.6865 L302.2677,220.1999 L302.1895,220.8176 L301.9992,221.8007 L301.6946,223.0713 L301.3041,224.4746 L300.8603,225.8969 L300.0378,228.1817 L299.0018,230.5985 L298.2803,232.0773 L297.8096,232.933 L297.4306,233.5088 L297.1604,233.8335 L296.4151,234.3829 L295.6867,234.7839 L294.834,235.1819 L293.9637,235.5448 L293.1866,235.8374 L292.3172,236.132 L291.1731,236.4953 L288.7682,237.2414 L286.8232,237.836 L282.7167,239.0365 L280.7809,239.5598 L278.4569,240.1688 L274.5563,241.3176 L270.6362,242.937 L268.6142,244.088 L266.7505,245.479 L265.8223,246.3621 L264.9203,247.4129 L264.1097,248.6167 L263.4465,249.9114 L262.9559,251.2181 L262.6218,252.484 L262.2787,254.836 L262.1704,257.0686 L262.1631,259.3418 L262.2219,264.1151 L262.2149,266.7071 L262.1692,269.4248 L261.9995,276.0831 L261.9563,278.3106 L261.9135,281.1364 L261.8801,282.7485 L261.8299,284.2462 L261.7549,286.0918 L261.723,287.2285 L261.7285,288.9655 L261.7747,289.8938 L261.8705,290.8866 L262.0455,291.977 L262.3409,293.1707 L262.7969,294.4432 L263.4405,295.735 L264.2662,296.9702 L265.2282,298.0797 L266.2714,299.0259 L267.3426,299.8137 L268.3828,300.4503 L269.3921,300.9808 L271.5983,301.9386 L275.7882,303.3271 L282.7976,305.0185 L286.1434,305.6515 L288.6532,306.2 L291.0849,306.9258 L292.2161,307.3379 L293.3356,307.8139 L294.9842,308.6789 L295.7168,309.1291 L296.2953,309.51 L296.7424,309.8241 L296.9904,310.2358 L297.2171,310.6624 L297.7921,311.8499 L298.4709,313.3524 L299.2266,315.0608 L300.7521,318.4789 L301.4177,320.0017 L301.9586,321.3013 L302.3422,322.3134 L302.5778,323.0382 L302.6884,323.4745 L302.7257,323.7012 L302.6291,323.9401 L302.2401,324.747 L301.5358,326.0888 L300.7301,327.6734 L299.991,329.2726 L299.3234,330.7607 L298.7253,331.9937 L298.3919,332.6184 L297.9841,333.3401 L296.8611,335.2466 L295.6732,337.2699 L294.4769,339.4353 L293.4081,341.4989 L292.2663,343.7446 L291.5115,345.1715 L290.671,346.6805 L289.888,348.144 L289.4863,348.9824 L289.1856,349.6829 L288.4879,351.8551 L288.1562,354.5401 L288.2355,356.029 L288.5161,357.5332 L288.9852,358.9713 L289.5718,360.2348 L291.0031,362.4381 L292.3445,364.0299 L293.7115,365.4571 L296.6142,368.2438 L298.2987,369.7937 L302.1577,373.2987 L305.1435,376.046 L307.9098,378.7319 L310.9608,381.919 L312.3099,383.3795 L313.6651,384.8645 L314.7165,385.9854 L315.8586,387.1039 L317.545,388.4841 L319.722,389.7448 L322.5158,390.6302 L324.0186,390.8229 L325.462,390.8468 L326.7997,390.7432 L328.0611,390.5499 L330.0326,390.0844 L332.3463,389.3118 L336.6242,387.3384 L342.0506,384.2446 L345.9526,381.9943 L349.8219,379.9451 L352.6621,378.5416 L353.8055,378.0152 L354.4,377.7774 L354.6802,377.6866 L354.9992,377.743 L355.4129,377.8434 L356.0562,378.0259 L357.4729,378.4777 L359.974,379.3665 L363.668,380.8752 L366.0518,381.9845 L367.0872,382.5037 L367.7915,382.8761 L368.4681,383.2664 L368.6441,383.3851 L368.815,383.6787 L369.1389,384.3605 L369.6536,385.663 L370.2762,387.4648 L370.9769,389.6441 L371.9311,392.6837 L372.9476,395.7913 L374.3655,399.7512 L376.1569,404.4711 L377.3164,407.5362 L377.9635,409.1994 L378.5745,410.5361 L379.9127,412.7364 L380.3864,413.3307 L380.9296,413.9287 L382.2104,415.0585 L383.6657,415.9946 L385.1717,416.6738 L386.6165,417.1202 L387.971,417.3948 L390.5442,417.6601 L393.179,417.7447 L394.5559,417.7573 L397.6786,417.7604 L400.5384,417.7805 L403.3967,417.8425 L407.2357,417.9546 L410.2417,418.0244 L414.866,418.024 L418.1858,417.9536 L420.2831,417.8869 L422.3677,417.7807 L424.4137,417.6044 L425.5212,417.4579 L427.8245,416.9366 C425.8954,421.4244 426.5429,427.4359 429.3835,431.4099 C432.0182,435.5233 437.3592,438.3572 442.2425,438.2329 L584.743,438.2329 C590.0182,438.404 595.8469,434.9931 598.2815,430.3103 C601.0145,425.7951 600.8957,419.0428 598.0056,414.6265 z" stroke="#000000" stroke-width="0.24" fill="none" />
  <path d="M418.9222,562.2482 C449.8167,562.2876 483.3078,556.6492 515.626,543.8026 C547.9441,530.9559 579.0893,510.9009 604.6893,485.3009 C630.2894,459.7008 650.3443,428.5557 663.191,396.2375 C676.0376,363.9194 681.676,330.4283 681.6366,299.5338 C681.676,268.6393 676.0376,235.1481 663.191,202.83 C650.3443,170.5118 630.2894,139.3667 604.6893,113.7666 C579.0893,88.16658 547.9441,68.11165 515.626,55.26499 C483.3078,42.41833 449.8167,36.77995 418.9222,36.81937 C388.0277,36.77995 354.5366,42.41833 322.2184,55.26499 C289.9003,68.11165 258.7551,88.16658 233.1551,113.7666 C207.555,139.3667 187.5001,170.5118 174.6534,202.83 C161.8068,235.1481 156.1684,268.6393 156.2078,299.5338 C156.1684,330.4283 161.8068,363.9194 174.6534,396.2375 C187.5001,428.5557 207.555,459.7008 233.1551,485.3009 C258.7551,510.9009 289.9003,530.9559 322.2184,543.8026 C354.5366,556.6492 388.0277,562.2876 418.9222,562.2482 z" stroke="#000000" stroke-width="0.24" fill="none" />
</svg>