<?xml version="1.0" encoding="UTF-8" standalone="no"?>
<!DOCTYPE svg PUBLIC "-//W3C//DTD SVG 1.1//EN" "http://www.w3.org/Graphics/SVG/1.1/DTD/svg11.dtd">
<svg width="792pt" height="612pt" viewBox="0 0 792 612" overflow="visible" version="1.1" xmlns="http://www.w3.org/2000/svg">
  <path d="M329.6906,295.0543 L294.9195,295.0543 L294.9195,170.6783 L577.3289,170.6783 L577.3289,279.0108 L540.5405,279.0108 C536.3771,278.5887 531.6575,283.3084 532.0795,287.4718 L532.0795,317.1736 L338.1516,317.1736 L338.1516,303.5153 C338.5737,299.3519 333.854,294.6322 329.6906,295.0543 z" stroke="Black" stroke-width="0" fill="#000000" fill-opacity="1" />
  <path d="M552.0994,359.066 L543.428,359.066 L543.428,291.4928 L611.4615,291.4928 L611.4615,379.2873 L557.176,379.2873 L557.176,364.1426 C557.4293,361.6446 554.5974,358.8128 552.0994,359.066 z" stroke="Black" stroke-width="0" fill="#000000" fill-opacity="1" />
  <path d="M393.393,590.6606 C359.7267,590.7036 323.2307,584.5593 288.0129,570.56 C252.7951,556.5607 218.8555,534.7064 190.9586,506.8095 C163.0617,478.9126 141.2074,444.9731 127.2081,409.7553 C113.2089,374.5375 107.0646,338.0415 107.1076,304.3751 C107.0646,270.7087 113.2089,234.2127 127.2081,198.9949 C141.2074,163.7772 163.0617,129.8376 190.9586,101.9407 C218.8555,74.04377 252.7951,52.18948 288.0129,38.1902 C323.2307,24.19092 359.7267,18.04666 393.393,18.08961 C427.0594,18.04666 463.5555,24.19092 498.7732,38.1902 C533.991,52.18948 567.9305,74.04377 595.8275,101.9407 C623.7244,129.8376 645.5787,163.7772 659.5779,198.9949 C673.5772,234.2127 679.7215,270.7087 679.6785,304.3751 C679.7215,338.0415 673.5772,374.5375 659.5779,409.7553 C645.5787,444.9731 623.7244,478.9126 595.8275,506.8095 C567.9305,534.7064 533.991,556.5607 498.7732,570.56 C463.5555,584.5593 427.0594,590.7036 393.393,590.6606 z M194.583,295.0543 C190.4196,294.6322 185.7,299.3519 186.122,303.5153 L186.122,384.9996 C185.7396,389.0007 190.093,393.6458 194.2058,393.4564 L185.5817,393.4606 L146.6881,412.5486 C144.6928,413.3722 143.3564,416.1875 143.9796,418.254 C144.3306,420.3838 146.7707,422.3224 148.9247,422.1826 L375.3489,422.1826 C377.5029,422.3224 379.9431,420.3838 380.294,418.254 C380.9173,416.1875 379.5808,413.3722 377.5856,412.5486 L338.692,393.4606 L330.0677,393.4564 C334.1805,393.6459 338.5341,389.0008 338.1516,384.9996 L338.1516,359.066 L405.5057,359.066 L403.9133,377.648 C403.8233,379.4006 402.4999,381.2366 400.8657,381.8761 L375.757,392.7052 C373.686,393.4353 372.2061,396.2778 372.7957,398.3932 C373.092,400.569 375.5767,402.5931 377.7675,402.4433 L492.4636,402.4433 C494.6544,402.5931 497.1391,400.569 497.4354,398.3932 C498.025,396.2778 496.5451,393.4353 494.4741,392.7052 L469.3654,381.8761 C467.7312,381.2366 466.4078,379.4006 466.3179,377.648 L464.7254,359.066 L515.332,359.0686 C512.8643,358.9549 510.2522,361.7419 510.4817,364.1426 L510.4817,422.506 C510.2285,425.004 513.0602,427.8358 515.5583,427.5826 L552.0994,427.5826 C554.5974,427.8358 557.4293,425.004 557.176,422.506 L557.176,402.6651 L614.1173,402.6651 C618.2806,403.0872 623.0004,398.3675 622.5783,394.2041 L622.5783,287.4718 C623.0004,283.3084 618.2806,278.5887 614.1173,279.0108 L589.5858,279.0108 L589.5858,168.1383 C590.0079,163.9749 585.2882,159.2552 581.1248,159.6773 L291.081,159.6773 C286.9176,159.2552 282.1979,163.9749 282.62,168.1383 L282.62,295.0543 z" stroke="Black" stroke-width="0" fill="#000000" fill-opacity="1" />
  <path d="M518.9427,411.3956 L518.9427,367.527 L548.715,367.527 L548.715,411.3956 z" stroke="Black" stroke-width="0" fill="#000000" fill-opacity="1" />
  <path d="M577.6785,395.5811 C575.7015,396.0194 573.1665,394.0181 573.134,391.9933 C572.6957,390.0164 574.6971,387.4814 576.7217,387.4488 C578.6987,387.0106 581.2338,389.0119 581.2663,391.0366 C581.7045,393.0136 579.7032,395.5486 577.6785,395.5811 z" stroke="Black" stroke-width="0" fill="#000000" fill-opacity="1" />
  <path d="M435.1156,344.6159 C432.4032,344.8909 429.3285,341.8161 429.6034,339.1038 C429.3285,336.3914 432.4032,333.3167 435.1156,333.5916 C437.8279,333.3167 440.9027,336.3914 440.6277,339.1038 C440.9027,341.8161 437.8279,344.8909 435.1156,344.6159 z" stroke="Black" stroke-width="0" fill="#000000" fill-opacity="1" />
  <path d="M195.8759,387.3375 L195.8759,303.0055 L328.3977,303.0055 L328.3977,387.3375 z" stroke="Black" stroke-width="0" fill="#000000" fill-opacity="1" />
  <path d="M529.4717,421.2678 L529.4717,418.0108 L538.186,418.0108 L538.186,421.2678 z" stroke="Black" stroke-width="0" fill="#000000" fill-opacity="1" />
  <text x="-1170.63513776473" y="-709.077728333198" font-family="Arial Rounded MT Bold" font-size="115.829643249512">INICIAR SESIÓN</text>
  <path d="M393.393,590.6606 C427.0594,590.7036 463.5555,584.5593 498.7732,570.56 C533.991,556.5607 567.9305,534.7064 595.8275,506.8095 C623.7244,478.9126 645.5787,444.9731 659.5779,409.7553 C673.5772,374.5375 679.7215,338.0415 679.6785,304.3751 C679.7215,270.7087 673.5772,234.2127 659.5779,198.9949 C645.5787,163.7772 623.7244,129.8376 595.8275,101.9407 C567.9305,74.04377 533.991,52.18948 498.7732,38.1902 C463.5555,24.19092 427.0594,18.04666 393.393,18.08961 C359.7267,18.04666 323.2307,24.19092 288.0129,38.1902 C252.7951,52.18948 218.8555,74.04377 190.9586,101.9407 C163.0617,129.8376 141.2074,163.7772 127.2081,198.9949 C113.2089,234.2127 107.0646,270.7087 107.1076,304.3751 C107.0646,338.0415 113.2089,374.5375 127.2081,409.7553 C141.2074,444.9731 163.0617,478.9126 190.9586,506.8095 C218.8555,534.7064 252.7951,556.5607 288.0129,570.56 C323.2307,584.5593 359.7267,590.7036 393.393,590.6606 z" stroke="#000000" stroke-width="0.24" fill="none" />
  <path d="M577.6785,395.5811 C579.7032,395.5486 581.7045,393.0136 581.2663,391.0366 C581.2338,389.0119 578.6987,387.0106 576.7217,387.4488 C574.6971,387.4814 572.6957,390.0164 573.134,391.9933 C573.1665,394.0181 575.7015,396.0194 577.6785,395.5811 z" stroke="#000000" stroke-width="0.24" fill="none" />
  <path d="M435.1156,344.6159 C437.8279,344.8909 440.9027,341.8161 440.6277,339.1038 C440.9027,336.3914 437.8279,333.3167 435.1156,333.5916 C432.4032,333.3167 429.3285,336.3914 429.6034,339.1038 C429.3285,341.8161 432.4032,344.8909 435.1156,344.6159 z" stroke="#000000" stroke-width="0.24" fill="none" />
  <path d="M552.0994,359.066 C554.5974,358.8128 557.4293,361.6446 557.176,364.1426 L557.176,379.2873 L611.4615,379.2873 L611.4615,291.4928 L543.428,291.4928 L543.428,359.066 z" stroke="#000000" stroke-width="0.24" fill="none" />
  <path d="M194.583,295.0543 C190.4196,294.6322 185.7,299.3519 186.122,303.5153 L186.122,384.9996 C185.7,389.163 190.4196,393.8827 194.583,393.4606 L185.5817,393.4606 L146.6881,412.5486 C144.6928,413.3722 143.3564,416.1875 143.9796,418.254 C144.3306,420.3838 146.7707,422.3224 148.9247,422.1826 L375.3489,422.1826 C377.5029,422.3224 379.9431,420.3838 380.294,418.254 C380.9173,416.1875 379.5808,413.3722 377.5856,412.5486 L338.692,393.4606 L329.6906,393.4606 C333.854,393.8827 338.5737,389.163 338.1516,384.9996 L338.1516,359.066 L405.5057,359.066 L403.9133,377.648 C403.8233,379.4006 402.4999,381.2366 400.8657,381.8761 L375.757,392.7052 C373.686,393.4353 372.2061,396.2778 372.7957,398.3932 C373.092,400.569 375.5767,402.5931 377.7675,402.4433 L492.4636,402.4433 C494.6544,402.5931 497.1391,400.569 497.4354,398.3932 C498.025,396.2778 496.5451,393.4353 494.4741,392.7052 L469.3654,381.8761 C467.7312,381.2366 466.4078,379.4006 466.3179,377.648 L464.7254,359.066 L515.5583,359.066 C513.0602,358.8128 510.2285,361.6446 510.4817,364.1426 L510.4817,422.506 C510.2285,425.004 513.0602,427.8358 515.5583,427.5826 L552.0994,427.5826 C554.5974,427.8358 557.4293,425.004 557.176,422.506 L557.176,402.6651 L614.1173,402.6651 C618.2806,403.0872 623.0004,398.3675 622.5783,394.2041 L622.5783,287.4718 C623.0004,283.3084 618.2806,278.5887 614.1173,279.0108 L589.5858,279.0108 L589.5858,168.1383 C590.0079,163.9749 585.2882,159.2552 581.1248,159.6773 L291.081,159.6773 C286.9176,159.2552 282.1979,163.9749 282.62,168.1383 L282.62,295.0543 z" stroke="#000000" stroke-width="0.24" fill="none" />
  <path d="M329.6906,295.0543 C333.854,294.6322 338.5737,299.3519 338.1516,303.5153 L338.1516,317.1736 L532.0795,317.1736 L532.0795,287.4718 C531.6575,283.3084 536.3771,278.5887 540.5405,279.0108 L577.3289,279.0108 L577.3289,170.6783 L294.9195,170.6783 L294.9195,295.0543 z" stroke="#000000" stroke-width="0.24" fill="none" />
  <path d="M195.876,387.3375 L328.3977,387.3375 L328.3977,303.0055 L195.876,303.0055 z" stroke="#000000" stroke-width="0.24" fill="none" />
  <path d="M518.9427,411.3957 L548.715,411.3957 L548.715,367.5271 L518.9427,367.5271 z" stroke="#000000" stroke-width="0.24" fill="none" />
  <path d="M529.4717,421.2678 L538.186,421.2678 L538.186,418.0108 L529.4717,418.0108 z" stroke="#000000" stroke-width="0.24" fill="none" />
</svg>