<?xml version="1.0" encoding="UTF-8" standalone="no"?>
<!DOCTYPE svg PUBLIC "-//W3C//DTD SVG 1.1//EN" "http://www.w3.org/Graphics/SVG/1.1/DTD/svg11.dtd">
<svg width="792pt" height="612pt" viewBox="0 0 792 612" overflow="visible" version="1.1" xmlns="http://www.w3.org/2000/svg">
  <path d="M416.6889,559.6055 C387.4013,559.6429 355.6521,554.2978 325.0149,542.1193 C294.3777,529.9409 264.8525,510.929 240.584,486.6605 C216.3155,462.392 197.3037,432.8668 185.1252,402.2296 C172.9467,371.5924 167.6016,339.8432 167.639,310.5556 C167.6016,281.268 172.9467,249.5189 185.1252,218.8817 C197.3037,188.2445 216.3155,158.7193 240.584,134.4508 C264.8525,110.1823 294.3777,91.17045 325.0149,78.99198 C355.6521,66.81351 387.4013,61.4684 416.6889,61.50577 C445.9765,61.4684 477.7256,66.81351 508.3628,78.99198 C539,91.17045 568.5252,110.1823 592.7937,134.4508 C617.0623,158.7193 636.074,188.2445 648.2525,218.8817 C660.431,249.5189 665.7761,281.268 665.7388,310.5556 C665.7761,339.8432 660.431,371.5924 648.2525,402.2296 C636.074,432.8668 617.0623,462.392 592.7937,486.6605 C568.5252,510.929 539,529.9409 508.3628,542.1193 C477.7256,554.2978 445.9765,559.6429 416.6889,559.6055 z M277.4184,421.9659 L407.9395,421.9659 L416.6889,421.9659 L425.4382,421.9659 L555.9594,421.9659 C560.0259,422.0741 564.9179,420.2286 568.2867,416.8598 C571.6555,413.491 573.501,408.5989 573.3929,404.5325 L573.3929,223.3276 C573.4166,219.7661 572.2206,216.0468 570.1255,213.1666 C567.1158,208.756 561.2975,205.769 555.9594,205.8941 L494.3535,205.8941 L486.3447,174.7708 C484.9662,167.6142 476.7357,161.2335 469.4613,161.6818 L416.6889,161.6818 L363.9165,161.6818 C356.6421,161.2335 348.4116,167.6142 347.033,174.7708 L339.0243,205.8941 L277.4184,205.8941 C272.0802,205.769 266.2619,208.756 263.2522,213.1666 C261.1571,216.0468 259.9612,219.7661 259.9849,223.3276 L259.9849,404.5325 C259.8768,408.5989 261.7223,413.491 265.091,416.8598 C268.4598,420.2286 273.3519,422.0741 277.4184,421.9659 z" stroke="Black" stroke-width="0" fill="#000000" fill-opacity="1" />
  <path d="M416.6889,363.3827 C404.3666,363.7103 389.5426,358.1181 379.3345,347.91 C369.1264,337.7019 363.5343,322.8779 363.8618,310.5556 C363.5343,298.2334 369.1264,283.4094 379.3345,273.2013 C389.5426,262.9932 404.3666,257.401 416.6889,257.7286 C429.0111,257.401 443.8351,262.9932 454.0432,273.2013 C464.2513,283.4094 469.8435,298.2334 469.5159,310.5556 C469.8435,322.8779 464.2513,337.7019 454.0432,347.91 C443.8351,358.1181 429.0111,363.7103 416.6889,363.3827 z" stroke="Black" stroke-width="0" fill="#000000" fill-opacity="1" />
  <path d="M345.782,232.0443 C353.0564,232.4927 361.2868,226.112 362.6654,218.9554 L370.6742,187.8321 L416.6889,187.8321 L462.7036,187.8321 L470.7123,218.9554 C472.0909,226.112 480.3214,232.4927 487.5958,232.0443 L547.2426,232.0443 L547.2426,395.8157 L416.6889,395.8157 L286.1351,395.8157 L286.1351,232.0443 z M416.6889,389.5329 C435.1108,390.0226 457.273,381.6623 472.5342,366.401 C487.7955,351.1397 496.1559,328.9776 495.6661,310.5556 C496.1559,292.1337 487.7955,269.9716 472.5342,254.7103 C457.273,239.449 435.1108,231.0887 416.6889,231.5784 C398.2669,231.0887 376.1048,239.449 360.8435,254.7103 C345.5823,269.9716 337.2219,292.1337 337.7116,310.5556 C337.2219,328.9776 345.5823,351.1397 360.8435,366.401 C376.1048,381.6623 398.2669,390.0226 416.6889,389.5329 z" stroke="Black" stroke-width="0" fill="#000000" fill-opacity="1" />
  <text x="-4505.96185276593" y="1557.53601585376" font-family="Arial Rounded MT Bold" font-size="119.330787658691">INICIAR SESIÓN</text>
  <text x="118.322740042721" y="4104.64130812193" font-family="Arial Unicode MS" font-size="485.105560302734">VOLVER</text>
  <text x="-4505.96185276593" y="2894.07931414154" font-family="Arial Rounded MT Bold" font-size="119.330787658691">INICIAR SESIÓN</text>
  <path d="M416.6889,559.6055 C445.9765,559.6429 477.7256,554.2978 508.3628,542.1193 C539,529.9409 568.5252,510.929 592.7937,486.6605 C617.0623,462.392 636.074,432.8668 648.2525,402.2296 C660.431,371.5924 665.7761,339.8432 665.7388,310.5556 C665.7761,281.268 660.431,249.5189 648.2525,218.8817 C636.074,188.2445 617.0623,158.7193 592.7937,134.4508 C568.5252,110.1823 539,91.17045 508.3628,78.99198 C477.7256,66.81351 445.9765,61.4684 416.6889,61.50577 C387.4013,61.4684 355.6521,66.81351 325.0149,78.99198 C294.3777,91.17045 264.8525,110.1823 240.584,134.4508 C216.3155,158.7193 197.3037,188.2445 185.1252,218.8817 C172.9467,249.5189 167.6016,281.268 167.639,310.5556 C167.6016,339.8432 172.9467,371.5924 185.1252,402.2296 C197.3037,432.8668 216.3155,462.392 240.584,486.6605 C264.8525,510.929 294.3777,529.9409 325.0149,542.1193 C355.6521,554.2978 387.4013,559.6429 416.6889,559.6055 z" stroke="#000000" stroke-width="0.24" fill="none" />
  <path d="M416.6889,363.3827 C429.0111,363.7103 443.8351,358.1181 454.0432,347.91 C464.2513,337.7019 469.8435,322.8779 469.5159,310.5556 C469.8435,298.2334 464.2513,283.4094 454.0432,273.2013 C443.8351,262.9932 429.0111,257.401 416.6889,257.7286 C404.3666,257.401 389.5426,262.9932 379.3345,273.2013 C369.1264,283.4094 363.5343,298.2334 363.8618,310.5556 C363.5343,322.8779 369.1264,337.7019 379.3345,347.91 C389.5426,358.1181 404.3666,363.7103 416.6889,363.3827 z" stroke="#000000" stroke-width="0.24" fill="none" />
  <path d="M416.6889,389.5329 C435.1108,390.0226 457.273,381.6623 472.5342,366.401 C487.7955,351.1397 496.1559,328.9776 495.6661,310.5556 C496.1559,292.1337 487.7955,269.9716 472.5342,254.7103 C457.273,239.449 435.1108,231.0887 416.6889,231.5784 C398.2669,231.0887 376.1048,239.449 360.8435,254.7103 C345.5823,269.9716 337.2219,292.1337 337.7116,310.5556 C337.2219,328.9776 345.5823,351.1397 360.8435,366.401 C376.1048,381.6623 398.2669,390.0226 416.6889,389.5329 z" stroke="#000000" stroke-width="0.24" fill="none" />
  <path d="M345.782,232.0443 C353.0564,232.4927 361.2868,226.112 362.6654,218.9554 L370.6742,187.8321 L416.6889,187.8321 L462.7036,187.8321 L470.7123,218.9554 C472.0909,226.112 480.3214,232.4927 487.5958,232.0443 L547.2426,232.0443 L547.2426,395.8157 L416.6889,395.8157 L286.1351,395.8157 L286.1351,232.0443 z" stroke="#000000" stroke-width="0.24" fill="none" />
  <path d="M277.4184,421.9659 C273.3519,422.0741 268.4598,420.2286 265.091,416.8598 C261.7223,413.491 259.8768,408.5989 259.9849,404.5325 L259.9849,223.3276 C259.9612,219.7661 261.1571,216.0468 263.2522,213.1666 C266.2619,208.756 272.0802,205.769 277.4184,205.8941 L339.0243,205.8941 L347.033,174.7708 C348.4116,167.6142 356.6421,161.2335 363.9165,161.6818 L416.6889,161.6818 L469.4613,161.6818 C476.7357,161.2335 484.9662,167.6142 486.3447,174.7708 L494.3535,205.8941 L555.9594,205.8941 C561.2975,205.769 567.1158,208.756 570.1255,213.1666 C572.2206,216.0468 573.4166,219.7661 573.3929,223.3276 L573.3929,404.5325 C573.501,408.5989 571.6555,413.491 568.2867,416.8598 C564.9179,420.2286 560.0259,422.0741 555.9594,421.9659 L425.4382,421.9659 L416.6889,421.9659 L407.9395,421.9659 z" stroke="#000000" stroke-width="0.24" fill="none" />
</svg>